  0
SECTION
  2
HEADER
  9
$ACADVER
  1
AC1014
  9
$HANDSEED
  5
FFFF
  9
$MEASUREMENT
 70
     1
  0
ENDSEC
  0
SECTION
  2
TABLES
  0
TABLE
  2
VPORT
  5
8
330
0
100
AcDbSymbolTable
 70
     4
  0
VPORT
  5
2E
330
8
100
AcDbSymbolTableRecord
100
AcDbViewportTableRecord
  2
*ACTIVE
 70
     0
 10
0.0
 20
0.0
 11
1.0
 21
1.0
 12
210.0
 22
148.5
 13
0.0
 23
0.0
 14
10.0
 24
10.0
 15
10.0
 25
10.0
 16
0.0
 26
0.0
 36
1.0
 17
0.0
 27
0.0
 37
0.0
 40
341.0
 41
1.24
 42
50.0
 43
0.0
 44
0.0
 50
0.0
 51
0.0
 71
     0
 72
   100
 73
     1
 74
     3
 75
     0
 76
     0
 77
     0
 78
     0
  0
ENDTAB
  0
TABLE
  2
LTYPE
  5
5
330
0
100
AcDbSymbolTable
 70
     1
  0
LTYPE
  5
14
330
5
100
AcDbSymbolTableRecord
100
AcDbLinetypeTableRecord
  2
BYBLOCK
 70
     0
  3

 72
    65
 73
     0
 40
0.0
  0
LTYPE
  5
15
330
5
100
AcDbSymbolTableRecord
100
AcDbLinetypeTableRecord
  2
BYLAYER
 70
     0
  3

 72
    65
 73
     0
 40
0.0
  0
LTYPE
  5
16
330
5
100
AcDbSymbolTableRecord
100
AcDbLinetypeTableRecord
  2
CONTINUOUS
 70
     0
  3
Solid line
 72
    65
 73
     0
 40
0.0
  0
ENDTAB
  0
TABLE
  2
LAYER
  5
2
100
AcDbSymbolTable
 70
6
  0
LAYER
  5
50
100
AcDbSymbolTableRecord
100
AcDbLayerTableRecord
  2
0
 70
0
  6
CONTINUOUS
  0
LAYER
  5
51
100
AcDbSymbolTableRecord
100
AcDbLayerTableRecord
  2
Layer_1
 70
0
  6
CONTINUOUS
  0
LAYER
  5
52
100
AcDbSymbolTableRecord
100
AcDbLayerTableRecord
  2
scans
 70
0
  6
CONTINUOUS
  0
LAYER
  5
53
100
AcDbSymbolTableRecord
100
AcDbLayerTableRecord
  2
cuts
 70
0
  6
CONTINUOUS
  0
LAYER
  5
54
100
AcDbSymbolTableRecord
100
AcDbLayerTableRecord
  2
TB_#
 70
0
  6
CONTINUOUS
  0
LAYER
  5
55
100
AcDbSymbolTableRecord
100
AcDbLayerTableRecord
  2
ref
 70
0
  6
CONTINUOUS
  0
ENDTAB
  0
TABLE
  2
STYLE
  5
3
330
0
100
AcDbSymbolTable
 70
     1
  0
STYLE
  5
11
330
3
100
AcDbSymbolTableRecord
100
AcDbTextStyleTableRecord
  2
STANDARD
 70
     0
 40
0.0
 41
1.0
 50
0.0
 71
     0
 42
2.5
  3
txt
  4

  0
ENDTAB
  0
TABLE
  2
VIEW
  5
6
330
0
100
AcDbSymbolTable
 70
     0
  0
ENDTAB
  0
TABLE
  2
UCS
  5
7
330
0
100
AcDbSymbolTable
 70
     0
  0
ENDTAB
  0
TABLE
  2
APPID
  5
9
330
0
100
AcDbSymbolTable
 70
     2
  0
APPID
  5
12
330
9
100
AcDbSymbolTableRecord
100
AcDbRegAppTableRecord
  2
ACAD
 70
     0
  0
ENDTAB
  0
TABLE
  2
DIMSTYLE
  5
A
330
0
100
AcDbSymbolTable
 70
     1
  0
DIMSTYLE
105
27
330
A
100
AcDbSymbolTableRecord
100
AcDbDimStyleTableRecord
  2
ISO-25
 70
     0
  3

  4

  5

  6

  7

 40
1.0
 41
2.5
 42
0.625
 43
3.75
 44
1.25
 45
0.0
 46
0.0
 47
0.0
 48
0.0
140
2.5
141
2.5
142
0.0
143
0.03937007874016
144
1.0
145
0.0
146
1.0
147
0.625
 71
     0
 72
     0
 73
     0
 74
     0
 75
     0
 76
     0
 77
     1
 78
     8
170
     0
171
     3
172
     1
173
     0
174
     0
175
     0
176
     0
177
     0
178
     0
270
     2
271
     2
272
     2
273
     2
274
     3
340
11
275
     0
280
     0
281
     0
282
     0
283
     0
284
     8
285
     0
286
     0
287
     3
288
     0
  0
ENDTAB
  0
TABLE
  2
BLOCK_RECORD
  5
1
330
0
100
AcDbSymbolTable
 70
     1
  0
BLOCK_RECORD
  5
1F
330
1
100
AcDbSymbolTableRecord
100
AcDbBlockTableRecord
  2
*MODEL_SPACE
  0
BLOCK_RECORD
  5
1B
330
1
100
AcDbSymbolTableRecord
100
AcDbBlockTableRecord
  2
*PAPER_SPACE
  0
ENDTAB
  0
ENDSEC
  0
SECTION
  2
BLOCKS
  0
BLOCK
  5
20
330
1F
100
AcDbEntity
  8
0
100
AcDbBlockBegin
  2
*MODEL_SPACE
 70
     0
 10
0.0
 20
0.0
 30
0.0
  3
*MODEL_SPACE
  1

  0
ENDBLK
  5
21
330
1F
100
AcDbEntity
  8
0
100
AcDbBlockEnd
  0
BLOCK
  5
1C
330
1B
100
AcDbEntity
 67
     1
  8
0
100
AcDbBlockBegin
  2
*PAPER_SPACE
  1

  0
ENDBLK
  5
1D
330
1B
100
AcDbEntity
 67
     1
  8
0
100
AcDbBlockEnd
  0
ENDSEC
  0
SECTION
  2
ENTITIES
  0
SPLINE
  5
100
100
AcDbEntity
  8
cuts
 62
7
100
AcDbSpline
 70
8
 71
3
 72
8
 73
4
 74
0
 40
0
 40
0
 40
0
 40
0
 40
1
 40
1
 40
1
 40
1
 10
1.594956
 20
23.294013
 30
0.0
 10
1.594956
 20
23.258451
 30
0.0
 10
1.566128
 20
23.229623
 30
0.0
 10
1.530566
 20
23.229623
 30
0.0
  0
SPLINE
  5
101
100
AcDbEntity
  8
cuts
 62
7
100
AcDbSpline
 70
8
 71
3
 72
8
 73
4
 74
0
 40
0
 40
0
 40
0
 40
0
 40
1
 40
1
 40
1
 40
1
 10
1.530566
 20
23.229623
 30
0.0
 10
1.495004
 20
23.229623
 30
0.0
 10
1.466175
 20
23.258451
 30
0.0
 10
1.466175
 20
23.294013
 30
0.0
  0
SPLINE
  5
102
100
AcDbEntity
  8
cuts
 62
7
100
AcDbSpline
 70
8
 71
3
 72
8
 73
4
 74
0
 40
0
 40
0
 40
0
 40
0
 40
1
 40
1
 40
1
 40
1
 10
1.466175
 20
23.294013
 30
0.0
 10
1.466175
 20
23.317018
 30
0.0
 10
1.478448
 20
23.338275
 30
0.0
 10
1.498371
 20
23.349777
 30
0.0
  0
SPLINE
  5
103
100
AcDbEntity
  8
cuts
 62
7
100
AcDbSpline
 70
8
 71
3
 72
8
 73
4
 74
0
 40
0
 40
0
 40
0
 40
0
 40
1
 40
1
 40
1
 40
1
 10
1.498371
 20
23.349777
 30
0.0
 10
1.518293
 20
23.361279
 30
0.0
 10
1.542839
 20
23.361279
 30
0.0
 10
1.562761
 20
23.349777
 30
0.0
  0
SPLINE
  5
104
100
AcDbEntity
  8
cuts
 62
7
100
AcDbSpline
 70
8
 71
3
 72
8
 73
4
 74
0
 40
0
 40
0
 40
0
 40
0
 40
1
 40
1
 40
1
 40
1
 10
1.562761
 20
23.349777
 30
0.0
 10
1.582684
 20
23.338275
 30
0.0
 10
1.594956
 20
23.317018
 30
0.0
 10
1.594956
 20
23.294013
 30
0.0
  0
SPLINE
  5
105
100
AcDbEntity
  8
cuts
 62
7
100
AcDbSpline
 70
8
 71
3
 72
8
 73
4
 74
0
 40
0
 40
0
 40
0
 40
0
 40
1
 40
1
 40
1
 40
1
 10
5.010376
 20
20.205548
 30
0.0
 10
5.010376
 20
20.182591
 30
0.0
 10
4.998128
 20
20.161377
 30
0.0
 10
4.978246
 20
20.149898
 30
0.0
  0
SPLINE
  5
106
100
AcDbEntity
  8
cuts
 62
7
100
AcDbSpline
 70
8
 71
3
 72
8
 73
4
 74
0
 40
0
 40
0
 40
0
 40
0
 40
1
 40
1
 40
1
 40
1
 10
4.978246
 20
20.149898
 30
0.0
 10
4.958364
 20
20.138419
 30
0.0
 10
4.933869
 20
20.138419
 30
0.0
 10
4.913987
 20
20.149898
 30
0.0
  0
SPLINE
  5
107
100
AcDbEntity
  8
cuts
 62
7
100
AcDbSpline
 70
8
 71
3
 72
8
 73
4
 74
0
 40
0
 40
0
 40
0
 40
0
 40
1
 40
1
 40
1
 40
1
 10
4.913987
 20
20.149898
 30
0.0
 10
4.894105
 20
20.161377
 30
0.0
 10
4.881857
 20
20.182591
 30
0.0
 10
4.881857
 20
20.205548
 30
0.0
  0
SPLINE
  5
108
100
AcDbEntity
  8
cuts
 62
7
100
AcDbSpline
 70
8
 71
3
 72
8
 73
4
 74
0
 40
0
 40
0
 40
0
 40
0
 40
1
 40
1
 40
1
 40
1
 10
4.881857
 20
20.205548
 30
0.0
 10
4.881857
 20
20.228506
 30
0.0
 10
4.894105
 20
20.249719
 30
0.0
 10
4.913987
 20
20.261198
 30
0.0
  0
SPLINE
  5
109
100
AcDbEntity
  8
cuts
 62
7
100
AcDbSpline
 70
8
 71
3
 72
8
 73
4
 74
0
 40
0
 40
0
 40
0
 40
0
 40
1
 40
1
 40
1
 40
1
 10
4.913987
 20
20.261198
 30
0.0
 10
4.933869
 20
20.272677
 30
0.0
 10
4.958364
 20
20.272677
 30
0.0
 10
4.978246
 20
20.261198
 30
0.0
  0
SPLINE
  5
10a
100
AcDbEntity
  8
cuts
 62
7
100
AcDbSpline
 70
8
 71
3
 72
8
 73
4
 74
0
 40
0
 40
0
 40
0
 40
0
 40
1
 40
1
 40
1
 40
1
 10
4.978246
 20
20.261198
 30
0.0
 10
4.998128
 20
20.249719
 30
0.0
 10
5.010376
 20
20.228506
 30
0.0
 10
5.010376
 20
20.205548
 30
0.0
  0
LWPOLYLINE
  5
10b
100
AcDbEntity
  8
cuts
 62
7
100
AcDbPolyline
 90
1
 70
1
 10
1.594956
 20
23.294013
 30
0.0
  0
SPLINE
  5
10c
100
AcDbEntity
  8
cuts
 62
7
100
AcDbSpline
 70
8
 71
3
 72
8
 73
4
 74
0
 40
0
 40
0
 40
0
 40
0
 40
1
 40
1
 40
1
 40
1
 10
5.961762
 20
22.525876
 30
0.0
 10
5.961762
 20
22.502872
 30
0.0
 10
5.949489
 20
22.481614
 30
0.0
 10
5.929566
 20
22.470112
 30
0.0
  0
SPLINE
  5
10d
100
AcDbEntity
  8
cuts
 62
7
100
AcDbSpline
 70
8
 71
3
 72
8
 73
4
 74
0
 40
0
 40
0
 40
0
 40
0
 40
1
 40
1
 40
1
 40
1
 10
5.929566
 20
22.470112
 30
0.0
 10
5.909644
 20
22.458610
 30
0.0
 10
5.885098
 20
22.458610
 30
0.0
 10
5.865176
 20
22.470112
 30
0.0
  0
SPLINE
  5
10e
100
AcDbEntity
  8
cuts
 62
7
100
AcDbSpline
 70
8
 71
3
 72
8
 73
4
 74
0
 40
0
 40
0
 40
0
 40
0
 40
1
 40
1
 40
1
 40
1
 10
5.865176
 20
22.470112
 30
0.0
 10
5.845253
 20
22.481614
 30
0.0
 10
5.832981
 20
22.502872
 30
0.0
 10
5.832981
 20
22.525876
 30
0.0
  0
SPLINE
  5
10f
100
AcDbEntity
  8
cuts
 62
7
100
AcDbSpline
 70
8
 71
3
 72
8
 73
4
 74
0
 40
0
 40
0
 40
0
 40
0
 40
1
 40
1
 40
1
 40
1
 10
5.832981
 20
22.525876
 30
0.0
 10
5.832981
 20
22.548881
 30
0.0
 10
5.845253
 20
22.570138
 30
0.0
 10
5.865176
 20
22.581640
 30
0.0
  0
SPLINE
  5
110
100
AcDbEntity
  8
cuts
 62
7
100
AcDbSpline
 70
8
 71
3
 72
8
 73
4
 74
0
 40
0
 40
0
 40
0
 40
0
 40
1
 40
1
 40
1
 40
1
 10
5.865176
 20
22.581640
 30
0.0
 10
5.885098
 20
22.593142
 30
0.0
 10
5.909644
 20
22.593142
 30
0.0
 10
5.929566
 20
22.581640
 30
0.0
  0
SPLINE
  5
111
100
AcDbEntity
  8
cuts
 62
7
100
AcDbSpline
 70
8
 71
3
 72
8
 73
4
 74
0
 40
0
 40
0
 40
0
 40
0
 40
1
 40
1
 40
1
 40
1
 10
5.929566
 20
22.581640
 30
0.0
 10
5.949489
 20
22.570138
 30
0.0
 10
5.961762
 20
22.548881
 30
0.0
 10
5.961762
 20
22.525876
 30
0.0
  0
LWPOLYLINE
  5
112
100
AcDbEntity
  8
cuts
 62
7
100
AcDbPolyline
 90
1
 70
1
 10
5.010376
 20
20.205548
 30
0.0
  0
SPLINE
  5
113
100
AcDbEntity
  8
cuts
 62
7
100
AcDbSpline
 70
8
 71
3
 72
8
 73
4
 74
0
 40
0
 40
0
 40
0
 40
0
 40
1
 40
1
 40
1
 40
1
 10
8.067275
 20
19.912169
 30
0.0
 10
8.067275
 20
19.889211
 30
0.0
 10
8.055027
 20
19.867998
 30
0.0
 10
8.035146
 20
19.856519
 30
0.0
  0
SPLINE
  5
114
100
AcDbEntity
  8
cuts
 62
7
100
AcDbSpline
 70
8
 71
3
 72
8
 73
4
 74
0
 40
0
 40
0
 40
0
 40
0
 40
1
 40
1
 40
1
 40
1
 10
8.035146
 20
19.856519
 30
0.0
 10
8.015264
 20
19.845040
 30
0.0
 10
7.990768
 20
19.845040
 30
0.0
 10
7.970886
 20
19.856519
 30
0.0
  0
SPLINE
  5
115
100
AcDbEntity
  8
cuts
 62
7
100
AcDbSpline
 70
8
 71
3
 72
8
 73
4
 74
0
 40
0
 40
0
 40
0
 40
0
 40
1
 40
1
 40
1
 40
1
 10
7.970886
 20
19.856519
 30
0.0
 10
7.951004
 20
19.867998
 30
0.0
 10
7.938757
 20
19.889211
 30
0.0
 10
7.938757
 20
19.912169
 30
0.0
  0
SPLINE
  5
116
100
AcDbEntity
  8
cuts
 62
7
100
AcDbSpline
 70
8
 71
3
 72
8
 73
4
 74
0
 40
0
 40
0
 40
0
 40
0
 40
1
 40
1
 40
1
 40
1
 10
7.938757
 20
19.912169
 30
0.0
 10
7.938757
 20
19.935127
 30
0.0
 10
7.951004
 20
19.956340
 30
0.0
 10
7.970886
 20
19.967819
 30
0.0
  0
SPLINE
  5
117
100
AcDbEntity
  8
cuts
 62
7
100
AcDbSpline
 70
8
 71
3
 72
8
 73
4
 74
0
 40
0
 40
0
 40
0
 40
0
 40
1
 40
1
 40
1
 40
1
 10
7.970886
 20
19.967819
 30
0.0
 10
7.990768
 20
19.979298
 30
0.0
 10
8.015264
 20
19.979298
 30
0.0
 10
8.035146
 20
19.967819
 30
0.0
  0
SPLINE
  5
118
100
AcDbEntity
  8
cuts
 62
7
100
AcDbSpline
 70
8
 71
3
 72
8
 73
4
 74
0
 40
0
 40
0
 40
0
 40
0
 40
1
 40
1
 40
1
 40
1
 10
8.035146
 20
19.967819
 30
0.0
 10
8.055027
 20
19.956340
 30
0.0
 10
8.067275
 20
19.935127
 30
0.0
 10
8.067275
 20
19.912169
 30
0.0
  0
LWPOLYLINE
  5
119
100
AcDbEntity
  8
cuts
 62
7
100
AcDbPolyline
 90
1
 70
1
 10
5.961762
 20
22.525876
 30
0.0
  0
SPLINE
  5
11a
100
AcDbEntity
  8
cuts
 62
7
100
AcDbSpline
 70
8
 71
3
 72
8
 73
4
 74
0
 40
0
 40
0
 40
0
 40
0
 40
1
 40
1
 40
1
 40
1
 10
9.050092
 20
22.983602
 30
0.0
 10
9.050092
 20
22.960598
 30
0.0
 10
9.037819
 20
22.939341
 30
0.0
 10
9.017897
 20
22.927839
 30
0.0
  0
SPLINE
  5
11b
100
AcDbEntity
  8
cuts
 62
7
100
AcDbSpline
 70
8
 71
3
 72
8
 73
4
 74
0
 40
0
 40
0
 40
0
 40
0
 40
1
 40
1
 40
1
 40
1
 10
9.017897
 20
22.927839
 30
0.0
 10
8.997974
 20
22.916336
 30
0.0
 10
8.973429
 20
22.916336
 30
0.0
 10
8.953506
 20
22.927839
 30
0.0
  0
SPLINE
  5
11c
100
AcDbEntity
  8
cuts
 62
7
100
AcDbSpline
 70
8
 71
3
 72
8
 73
4
 74
0
 40
0
 40
0
 40
0
 40
0
 40
1
 40
1
 40
1
 40
1
 10
8.953506
 20
22.927839
 30
0.0
 10
8.933584
 20
22.939341
 30
0.0
 10
8.921311
 20
22.960598
 30
0.0
 10
8.921311
 20
22.983602
 30
0.0
  0
SPLINE
  5
11d
100
AcDbEntity
  8
cuts
 62
7
100
AcDbSpline
 70
8
 71
3
 72
8
 73
4
 74
0
 40
0
 40
0
 40
0
 40
0
 40
1
 40
1
 40
1
 40
1
 10
8.921311
 20
22.983602
 30
0.0
 10
8.921311
 20
23.006607
 30
0.0
 10
8.933584
 20
23.027864
 30
0.0
 10
8.953506
 20
23.039366
 30
0.0
  0
SPLINE
  5
11e
100
AcDbEntity
  8
cuts
 62
7
100
AcDbSpline
 70
8
 71
3
 72
8
 73
4
 74
0
 40
0
 40
0
 40
0
 40
0
 40
1
 40
1
 40
1
 40
1
 10
8.953506
 20
23.039366
 30
0.0
 10
8.973429
 20
23.050868
 30
0.0
 10
8.997974
 20
23.050868
 30
0.0
 10
9.017897
 20
23.039366
 30
0.0
  0
SPLINE
  5
11f
100
AcDbEntity
  8
cuts
 62
7
100
AcDbSpline
 70
8
 71
3
 72
8
 73
4
 74
0
 40
0
 40
0
 40
0
 40
0
 40
1
 40
1
 40
1
 40
1
 10
9.017897
 20
23.039366
 30
0.0
 10
9.037819
 20
23.027864
 30
0.0
 10
9.050092
 20
23.006607
 30
0.0
 10
9.050092
 20
22.983602
 30
0.0
  0
LWPOLYLINE
  5
120
100
AcDbEntity
  8
cuts
 62
7
100
AcDbPolyline
 90
1
 70
1
 10
8.067275
 20
19.912169
 30
0.0
  0
SPLINE
  5
121
100
AcDbEntity
  8
cuts
 62
7
100
AcDbSpline
 70
8
 71
3
 72
8
 73
4
 74
0
 40
0
 40
0
 40
0
 40
0
 40
1
 40
1
 40
1
 40
1
 10
13.078443
 20
18.777129
 30
0.0
 10
13.078443
 20
18.754172
 30
0.0
 10
13.066195
 20
18.732958
 30
0.0
 10
13.046313
 20
18.721479
 30
0.0
  0
SPLINE
  5
122
100
AcDbEntity
  8
cuts
 62
7
100
AcDbSpline
 70
8
 71
3
 72
8
 73
4
 74
0
 40
0
 40
0
 40
0
 40
0
 40
1
 40
1
 40
1
 40
1
 10
13.046313
 20
18.721479
 30
0.0
 10
13.026431
 20
18.710000
 30
0.0
 10
13.001936
 20
18.710000
 30
0.0
 10
12.982054
 20
18.721479
 30
0.0
  0
SPLINE
  5
123
100
AcDbEntity
  8
cuts
 62
7
100
AcDbSpline
 70
8
 71
3
 72
8
 73
4
 74
0
 40
0
 40
0
 40
0
 40
0
 40
1
 40
1
 40
1
 40
1
 10
12.982054
 20
18.721479
 30
0.0
 10
12.962172
 20
18.732958
 30
0.0
 10
12.949924
 20
18.754172
 30
0.0
 10
12.949924
 20
18.777129
 30
0.0
  0
SPLINE
  5
124
100
AcDbEntity
  8
cuts
 62
7
100
AcDbSpline
 70
8
 71
3
 72
8
 73
4
 74
0
 40
0
 40
0
 40
0
 40
0
 40
1
 40
1
 40
1
 40
1
 10
12.949924
 20
18.777129
 30
0.0
 10
12.949924
 20
18.800087
 30
0.0
 10
12.962172
 20
18.821301
 30
0.0
 10
12.982054
 20
18.832779
 30
0.0
  0
SPLINE
  5
125
100
AcDbEntity
  8
cuts
 62
7
100
AcDbSpline
 70
8
 71
3
 72
8
 73
4
 74
0
 40
0
 40
0
 40
0
 40
0
 40
1
 40
1
 40
1
 40
1
 10
12.982054
 20
18.832779
 30
0.0
 10
13.001936
 20
18.844258
 30
0.0
 10
13.026431
 20
18.844258
 30
0.0
 10
13.046313
 20
18.832779
 30
0.0
  0
SPLINE
  5
126
100
AcDbEntity
  8
cuts
 62
7
100
AcDbSpline
 70
8
 71
3
 72
8
 73
4
 74
0
 40
0
 40
0
 40
0
 40
0
 40
1
 40
1
 40
1
 40
1
 10
13.046313
 20
18.832779
 30
0.0
 10
13.066195
 20
18.821301
 30
0.0
 10
13.078443
 20
18.800087
 30
0.0
 10
13.078443
 20
18.777129
 30
0.0
  0
LWPOLYLINE
  5
127
100
AcDbEntity
  8
cuts
 62
7
100
AcDbPolyline
 90
1
 70
1
 10
9.050092
 20
22.983602
 30
0.0
  0
SPLINE
  5
128
100
AcDbEntity
  8
cuts
 62
7
100
AcDbSpline
 70
8
 71
3
 72
8
 73
4
 74
0
 40
0
 40
0
 40
0
 40
0
 40
1
 40
1
 40
1
 40
1
 10
13.487924
 20
22.942170
 30
0.0
 10
13.487924
 20
22.919165
 30
0.0
 10
13.475651
 20
22.897908
 30
0.0
 10
13.455729
 20
22.886406
 30
0.0
  0
SPLINE
  5
129
100
AcDbEntity
  8
cuts
 62
7
100
AcDbSpline
 70
8
 71
3
 72
8
 73
4
 74
0
 40
0
 40
0
 40
0
 40
0
 40
1
 40
1
 40
1
 40
1
 10
13.455729
 20
22.886406
 30
0.0
 10
13.435806
 20
22.874904
 30
0.0
 10
13.411261
 20
22.874904
 30
0.0
 10
13.391338
 20
22.886406
 30
0.0
  0
SPLINE
  5
12a
100
AcDbEntity
  8
cuts
 62
7
100
AcDbSpline
 70
8
 71
3
 72
8
 73
4
 74
0
 40
0
 40
0
 40
0
 40
0
 40
1
 40
1
 40
1
 40
1
 10
13.391338
 20
22.886406
 30
0.0
 10
13.371416
 20
22.897908
 30
0.0
 10
13.359143
 20
22.919165
 30
0.0
 10
13.359143
 20
22.942170
 30
0.0
  0
SPLINE
  5
12b
100
AcDbEntity
  8
cuts
 62
7
100
AcDbSpline
 70
8
 71
3
 72
8
 73
4
 74
0
 40
0
 40
0
 40
0
 40
0
 40
1
 40
1
 40
1
 40
1
 10
13.359143
 20
22.942170
 30
0.0
 10
13.359143
 20
22.965174
 30
0.0
 10
13.371416
 20
22.986431
 30
0.0
 10
13.391338
 20
22.997934
 30
0.0
  0
SPLINE
  5
12c
100
AcDbEntity
  8
cuts
 62
7
100
AcDbSpline
 70
8
 71
3
 72
8
 73
4
 74
0
 40
0
 40
0
 40
0
 40
0
 40
1
 40
1
 40
1
 40
1
 10
13.391338
 20
22.997934
 30
0.0
 10
13.411261
 20
23.009436
 30
0.0
 10
13.435806
 20
23.009436
 30
0.0
 10
13.455729
 20
22.997934
 30
0.0
  0
SPLINE
  5
12d
100
AcDbEntity
  8
cuts
 62
7
100
AcDbSpline
 70
8
 71
3
 72
8
 73
4
 74
0
 40
0
 40
0
 40
0
 40
0
 40
1
 40
1
 40
1
 40
1
 10
13.455729
 20
22.997934
 30
0.0
 10
13.475651
 20
22.986431
 30
0.0
 10
13.487924
 20
22.965174
 30
0.0
 10
13.487924
 20
22.942170
 30
0.0
  0
LWPOLYLINE
  5
12e
100
AcDbEntity
  8
cuts
 62
7
100
AcDbPolyline
 90
1
 70
1
 10
13.078443
 20
18.777129
 30
0.0
  0
SPLINE
  5
12f
100
AcDbEntity
  8
cuts
 62
7
100
AcDbSpline
 70
8
 71
3
 72
8
 73
4
 74
0
 40
0
 40
0
 40
0
 40
0
 40
1
 40
1
 40
1
 40
1
 10
17.337076
 20
18.874151
 30
0.0
 10
17.337076
 20
18.851193
 30
0.0
 10
17.324828
 20
18.829979
 30
0.0
 10
17.304946
 20
18.818500
 30
0.0
  0
SPLINE
  5
130
100
AcDbEntity
  8
cuts
 62
7
100
AcDbSpline
 70
8
 71
3
 72
8
 73
4
 74
0
 40
0
 40
0
 40
0
 40
0
 40
1
 40
1
 40
1
 40
1
 10
17.304946
 20
18.818500
 30
0.0
 10
17.285064
 20
18.807022
 30
0.0
 10
17.260569
 20
18.807022
 30
0.0
 10
17.240687
 20
18.818500
 30
0.0
  0
SPLINE
  5
131
100
AcDbEntity
  8
cuts
 62
7
100
AcDbSpline
 70
8
 71
3
 72
8
 73
4
 74
0
 40
0
 40
0
 40
0
 40
0
 40
1
 40
1
 40
1
 40
1
 10
17.240687
 20
18.818500
 30
0.0
 10
17.220805
 20
18.829979
 30
0.0
 10
17.208557
 20
18.851193
 30
0.0
 10
17.208557
 20
18.874151
 30
0.0
  0
SPLINE
  5
132
100
AcDbEntity
  8
cuts
 62
7
100
AcDbSpline
 70
8
 71
3
 72
8
 73
4
 74
0
 40
0
 40
0
 40
0
 40
0
 40
1
 40
1
 40
1
 40
1
 10
17.208557
 20
18.874151
 30
0.0
 10
17.208557
 20
18.897108
 30
0.0
 10
17.220805
 20
18.918322
 30
0.0
 10
17.240687
 20
18.929801
 30
0.0
  0
SPLINE
  5
133
100
AcDbEntity
  8
cuts
 62
7
100
AcDbSpline
 70
8
 71
3
 72
8
 73
4
 74
0
 40
0
 40
0
 40
0
 40
0
 40
1
 40
1
 40
1
 40
1
 10
17.240687
 20
18.929801
 30
0.0
 10
17.260569
 20
18.941280
 30
0.0
 10
17.285064
 20
18.941280
 30
0.0
 10
17.304946
 20
18.929801
 30
0.0
  0
SPLINE
  5
134
100
AcDbEntity
  8
cuts
 62
7
100
AcDbSpline
 70
8
 71
3
 72
8
 73
4
 74
0
 40
0
 40
0
 40
0
 40
0
 40
1
 40
1
 40
1
 40
1
 10
17.304946
 20
18.929801
 30
0.0
 10
17.324828
 20
18.918322
 30
0.0
 10
17.337076
 20
18.897108
 30
0.0
 10
17.337076
 20
18.874151
 30
0.0
  0
LWPOLYLINE
  5
135
100
AcDbEntity
  8
cuts
 62
7
100
AcDbPolyline
 90
1
 70
1
 10
13.487924
 20
22.942170
 30
0.0
  0
SPLINE
  5
136
100
AcDbEntity
  8
cuts
 62
7
100
AcDbSpline
 70
8
 71
3
 72
8
 73
4
 74
0
 40
0
 40
0
 40
0
 40
0
 40
1
 40
1
 40
1
 40
1
 10
0.530876
 20
19.524355
 30
0.0
 10
0.530876
 20
19.488793
 30
0.0
 10
0.502048
 20
19.459965
 30
0.0
 10
0.466486
 20
19.459965
 30
0.0
  0
SPLINE
  5
137
100
AcDbEntity
  8
cuts
 62
7
100
AcDbSpline
 70
8
 71
3
 72
8
 73
4
 74
0
 40
0
 40
0
 40
0
 40
0
 40
1
 40
1
 40
1
 40
1
 10
0.466486
 20
19.459965
 30
0.0
 10
0.430924
 20
19.459965
 30
0.0
 10
0.402095
 20
19.488793
 30
0.0
 10
0.402095
 20
19.524355
 30
0.0
  0
SPLINE
  5
138
100
AcDbEntity
  8
cuts
 62
7
100
AcDbSpline
 70
8
 71
3
 72
8
 73
4
 74
0
 40
0
 40
0
 40
0
 40
0
 40
1
 40
1
 40
1
 40
1
 10
0.402095
 20
19.524355
 30
0.0
 10
0.402095
 20
19.547360
 30
0.0
 10
0.414368
 20
19.568617
 30
0.0
 10
0.434291
 20
19.580119
 30
0.0
  0
SPLINE
  5
139
100
AcDbEntity
  8
cuts
 62
7
100
AcDbSpline
 70
8
 71
3
 72
8
 73
4
 74
0
 40
0
 40
0
 40
0
 40
0
 40
1
 40
1
 40
1
 40
1
 10
0.434291
 20
19.580119
 30
0.0
 10
0.454213
 20
19.591621
 30
0.0
 10
0.478759
 20
19.591621
 30
0.0
 10
0.498681
 20
19.580119
 30
0.0
  0
SPLINE
  5
13a
100
AcDbEntity
  8
cuts
 62
7
100
AcDbSpline
 70
8
 71
3
 72
8
 73
4
 74
0
 40
0
 40
0
 40
0
 40
0
 40
1
 40
1
 40
1
 40
1
 10
0.498681
 20
19.580119
 30
0.0
 10
0.518604
 20
19.568617
 30
0.0
 10
0.530876
 20
19.547360
 30
0.0
 10
0.530876
 20
19.524355
 30
0.0
  0
LWPOLYLINE
  5
13b
100
AcDbEntity
  8
cuts
 62
7
100
AcDbPolyline
 90
1
 70
1
 10
17.337076
 20
18.874151
 30
0.0
  0
SPLINE
  5
13c
100
AcDbEntity
  8
cuts
 62
7
100
AcDbSpline
 70
8
 71
3
 72
8
 73
4
 74
0
 40
0
 40
0
 40
0
 40
0
 40
1
 40
1
 40
1
 40
1
 10
2.686050
 20
15.925867
 30
0.0
 10
2.686050
 20
15.902910
 30
0.0
 10
2.673803
 20
15.881696
 30
0.0
 10
2.653921
 20
15.870217
 30
0.0
  0
SPLINE
  5
13d
100
AcDbEntity
  8
cuts
 62
7
100
AcDbSpline
 70
8
 71
3
 72
8
 73
4
 74
0
 40
0
 40
0
 40
0
 40
0
 40
1
 40
1
 40
1
 40
1
 10
2.653921
 20
15.870217
 30
0.0
 10
2.634039
 20
15.858738
 30
0.0
 10
2.609543
 20
15.858738
 30
0.0
 10
2.589662
 20
15.870217
 30
0.0
  0
SPLINE
  5
13e
100
AcDbEntity
  8
cuts
 62
7
100
AcDbSpline
 70
8
 71
3
 72
8
 73
4
 74
0
 40
0
 40
0
 40
0
 40
0
 40
1
 40
1
 40
1
 40
1
 10
2.589662
 20
15.870217
 30
0.0
 10
2.569780
 20
15.881696
 30
0.0
 10
2.557532
 20
15.902910
 30
0.0
 10
2.557532
 20
15.925867
 30
0.0
  0
SPLINE
  5
13f
100
AcDbEntity
  8
cuts
 62
7
100
AcDbSpline
 70
8
 71
3
 72
8
 73
4
 74
0
 40
0
 40
0
 40
0
 40
0
 40
1
 40
1
 40
1
 40
1
 10
2.557532
 20
15.925867
 30
0.0
 10
2.557532
 20
15.948825
 30
0.0
 10
2.569780
 20
15.970039
 30
0.0
 10
2.589662
 20
15.981517
 30
0.0
  0
SPLINE
  5
140
100
AcDbEntity
  8
cuts
 62
7
100
AcDbSpline
 70
8
 71
3
 72
8
 73
4
 74
0
 40
0
 40
0
 40
0
 40
0
 40
1
 40
1
 40
1
 40
1
 10
2.589662
 20
15.981517
 30
0.0
 10
2.609543
 20
15.992996
 30
0.0
 10
2.634039
 20
15.992996
 30
0.0
 10
2.653921
 20
15.981517
 30
0.0
  0
SPLINE
  5
141
100
AcDbEntity
  8
cuts
 62
7
100
AcDbSpline
 70
8
 71
3
 72
8
 73
4
 74
0
 40
0
 40
0
 40
0
 40
0
 40
1
 40
1
 40
1
 40
1
 10
2.653921
 20
15.981517
 30
0.0
 10
2.673803
 20
15.970039
 30
0.0
 10
2.686050
 20
15.948825
 30
0.0
 10
2.686050
 20
15.925867
 30
0.0
  0
LWPOLYLINE
  5
142
100
AcDbEntity
  8
cuts
 62
7
100
AcDbPolyline
 90
1
 70
1
 10
0.530876
 20
19.524355
 30
0.0
  0
SPLINE
  5
143
100
AcDbEntity
  8
cuts
 62
7
100
AcDbSpline
 70
8
 71
3
 72
8
 73
4
 74
0
 40
0
 40
0
 40
0
 40
0
 40
1
 40
1
 40
1
 40
1
 10
4.061807
 20
19.343501
 30
0.0
 10
4.061807
 20
19.320497
 30
0.0
 10
4.049534
 20
19.299240
 30
0.0
 10
4.029611
 20
19.287738
 30
0.0
  0
SPLINE
  5
144
100
AcDbEntity
  8
cuts
 62
7
100
AcDbSpline
 70
8
 71
3
 72
8
 73
4
 74
0
 40
0
 40
0
 40
0
 40
0
 40
1
 40
1
 40
1
 40
1
 10
4.029611
 20
19.287738
 30
0.0
 10
4.009689
 20
19.276235
 30
0.0
 10
3.985143
 20
19.276235
 30
0.0
 10
3.965221
 20
19.287738
 30
0.0
  0
SPLINE
  5
145
100
AcDbEntity
  8
cuts
 62
7
100
AcDbSpline
 70
8
 71
3
 72
8
 73
4
 74
0
 40
0
 40
0
 40
0
 40
0
 40
1
 40
1
 40
1
 40
1
 10
3.965221
 20
19.287738
 30
0.0
 10
3.945298
 20
19.299240
 30
0.0
 10
3.933026
 20
19.320497
 30
0.0
 10
3.933026
 20
19.343501
 30
0.0
  0
SPLINE
  5
146
100
AcDbEntity
  8
cuts
 62
7
100
AcDbSpline
 70
8
 71
3
 72
8
 73
4
 74
0
 40
0
 40
0
 40
0
 40
0
 40
1
 40
1
 40
1
 40
1
 10
3.933026
 20
19.343501
 30
0.0
 10
3.933026
 20
19.366506
 30
0.0
 10
3.945298
 20
19.387763
 30
0.0
 10
3.965221
 20
19.399265
 30
0.0
  0
SPLINE
  5
147
100
AcDbEntity
  8
cuts
 62
7
100
AcDbSpline
 70
8
 71
3
 72
8
 73
4
 74
0
 40
0
 40
0
 40
0
 40
0
 40
1
 40
1
 40
1
 40
1
 10
3.965221
 20
19.399265
 30
0.0
 10
3.985143
 20
19.410767
 30
0.0
 10
4.009689
 20
19.410767
 30
0.0
 10
4.029611
 20
19.399265
 30
0.0
  0
SPLINE
  5
148
100
AcDbEntity
  8
cuts
 62
7
100
AcDbSpline
 70
8
 71
3
 72
8
 73
4
 74
0
 40
0
 40
0
 40
0
 40
0
 40
1
 40
1
 40
1
 40
1
 10
4.029611
 20
19.399265
 30
0.0
 10
4.049534
 20
19.387763
 30
0.0
 10
4.061807
 20
19.366506
 30
0.0
 10
4.061807
 20
19.343501
 30
0.0
  0
LWPOLYLINE
  5
149
100
AcDbEntity
  8
cuts
 62
7
100
AcDbPolyline
 90
1
 70
1
 10
2.686050
 20
15.925867
 30
0.0
  0
SPLINE
  5
14a
100
AcDbEntity
  8
cuts
 62
7
100
AcDbSpline
 70
8
 71
3
 72
8
 73
4
 74
0
 40
0
 40
0
 40
0
 40
0
 40
1
 40
1
 40
1
 40
1
 10
6.998329
 20
15.888419
 30
0.0
 10
6.998329
 20
15.865461
 30
0.0
 10
6.986081
 20
15.844247
 30
0.0
 10
6.966199
 20
15.832769
 30
0.0
  0
SPLINE
  5
14b
100
AcDbEntity
  8
cuts
 62
7
100
AcDbSpline
 70
8
 71
3
 72
8
 73
4
 74
0
 40
0
 40
0
 40
0
 40
0
 40
1
 40
1
 40
1
 40
1
 10
6.966199
 20
15.832769
 30
0.0
 10
6.946318
 20
15.821290
 30
0.0
 10
6.921822
 20
15.821290
 30
0.0
 10
6.901940
 20
15.832769
 30
0.0
  0
SPLINE
  5
14c
100
AcDbEntity
  8
cuts
 62
7
100
AcDbSpline
 70
8
 71
3
 72
8
 73
4
 74
0
 40
0
 40
0
 40
0
 40
0
 40
1
 40
1
 40
1
 40
1
 10
6.901940
 20
15.832769
 30
0.0
 10
6.882058
 20
15.844247
 30
0.0
 10
6.869811
 20
15.865461
 30
0.0
 10
6.869811
 20
15.888419
 30
0.0
  0
SPLINE
  5
14d
100
AcDbEntity
  8
cuts
 62
7
100
AcDbSpline
 70
8
 71
3
 72
8
 73
4
 74
0
 40
0
 40
0
 40
0
 40
0
 40
1
 40
1
 40
1
 40
1
 10
6.869811
 20
15.888419
 30
0.0
 10
6.869811
 20
15.923908
 30
0.0
 10
6.898580
 20
15.952678
 30
0.0
 10
6.934070
 20
15.952678
 30
0.0
  0
SPLINE
  5
14e
100
AcDbEntity
  8
cuts
 62
7
100
AcDbSpline
 70
8
 71
3
 72
8
 73
4
 74
0
 40
0
 40
0
 40
0
 40
0
 40
1
 40
1
 40
1
 40
1
 10
6.934070
 20
15.952678
 30
0.0
 10
6.969559
 20
15.952678
 30
0.0
 10
6.998329
 20
15.923908
 30
0.0
 10
6.998329
 20
15.888419
 30
0.0
  0
LWPOLYLINE
  5
14f
100
AcDbEntity
  8
cuts
 62
7
100
AcDbPolyline
 90
1
 70
1
 10
4.061807
 20
19.343501
 30
0.0
  0
SPLINE
  5
150
100
AcDbEntity
  8
cuts
 62
7
100
AcDbSpline
 70
8
 71
3
 72
8
 73
4
 74
0
 40
0
 40
0
 40
0
 40
0
 40
1
 40
1
 40
1
 40
1
 10
9.896490
 20
17.905218
 30
0.0
 10
9.896490
 20
17.882213
 30
0.0
 10
9.884217
 20
17.860956
 30
0.0
 10
9.864295
 20
17.849454
 30
0.0
  0
SPLINE
  5
151
100
AcDbEntity
  8
cuts
 62
7
100
AcDbSpline
 70
8
 71
3
 72
8
 73
4
 74
0
 40
0
 40
0
 40
0
 40
0
 40
1
 40
1
 40
1
 40
1
 10
9.864295
 20
17.849454
 30
0.0
 10
9.844372
 20
17.837952
 30
0.0
 10
9.819827
 20
17.837952
 30
0.0
 10
9.799904
 20
17.849454
 30
0.0
  0
SPLINE
  5
152
100
AcDbEntity
  8
cuts
 62
7
100
AcDbSpline
 70
8
 71
3
 72
8
 73
4
 74
0
 40
0
 40
0
 40
0
 40
0
 40
1
 40
1
 40
1
 40
1
 10
9.799904
 20
17.849454
 30
0.0
 10
9.779982
 20
17.860956
 30
0.0
 10
9.767709
 20
17.882213
 30
0.0
 10
9.767709
 20
17.905218
 30
0.0
  0
SPLINE
  5
153
100
AcDbEntity
  8
cuts
 62
7
100
AcDbSpline
 70
8
 71
3
 72
8
 73
4
 74
0
 40
0
 40
0
 40
0
 40
0
 40
1
 40
1
 40
1
 40
1
 10
9.767709
 20
17.905218
 30
0.0
 10
9.767709
 20
17.928222
 30
0.0
 10
9.779982
 20
17.949479
 30
0.0
 10
9.799904
 20
17.960982
 30
0.0
  0
SPLINE
  5
154
100
AcDbEntity
  8
cuts
 62
7
100
AcDbSpline
 70
8
 71
3
 72
8
 73
4
 74
0
 40
0
 40
0
 40
0
 40
0
 40
1
 40
1
 40
1
 40
1
 10
9.799904
 20
17.960982
 30
0.0
 10
9.819827
 20
17.972484
 30
0.0
 10
9.844372
 20
17.972484
 30
0.0
 10
9.864295
 20
17.960982
 30
0.0
  0
SPLINE
  5
155
100
AcDbEntity
  8
cuts
 62
7
100
AcDbSpline
 70
8
 71
3
 72
8
 73
4
 74
0
 40
0
 40
0
 40
0
 40
0
 40
1
 40
1
 40
1
 40
1
 10
9.864295
 20
17.960982
 30
0.0
 10
9.884217
 20
17.949479
 30
0.0
 10
9.896490
 20
17.928222
 30
0.0
 10
9.896490
 20
17.905218
 30
0.0
  0
LWPOLYLINE
  5
156
100
AcDbEntity
  8
cuts
 62
7
100
AcDbPolyline
 90
1
 70
1
 10
6.998329
 20
15.888419
 30
0.0
  0
SPLINE
  5
157
100
AcDbEntity
  8
cuts
 62
7
100
AcDbSpline
 70
8
 71
3
 72
8
 73
4
 74
0
 40
0
 40
0
 40
0
 40
0
 40
1
 40
1
 40
1
 40
1
 10
11.787010
 20
15.178383
 30
0.0
 10
11.787010
 20
15.155425
 30
0.0
 10
11.774762
 20
15.134212
 30
0.0
 10
11.754880
 20
15.122733
 30
0.0
  0
SPLINE
  5
158
100
AcDbEntity
  8
cuts
 62
7
100
AcDbSpline
 70
8
 71
3
 72
8
 73
4
 74
0
 40
0
 40
0
 40
0
 40
0
 40
1
 40
1
 40
1
 40
1
 10
11.754880
 20
15.122733
 30
0.0
 10
11.734998
 20
15.111254
 30
0.0
 10
11.710503
 20
15.111254
 30
0.0
 10
11.690621
 20
15.122733
 30
0.0
  0
SPLINE
  5
159
100
AcDbEntity
  8
cuts
 62
7
100
AcDbSpline
 70
8
 71
3
 72
8
 73
4
 74
0
 40
0
 40
0
 40
0
 40
0
 40
1
 40
1
 40
1
 40
1
 10
11.690621
 20
15.122733
 30
0.0
 10
11.670739
 20
15.134212
 30
0.0
 10
11.658491
 20
15.155425
 30
0.0
 10
11.658491
 20
15.178383
 30
0.0
  0
SPLINE
  5
15a
100
AcDbEntity
  8
cuts
 62
7
100
AcDbSpline
 70
8
 71
3
 72
8
 73
4
 74
0
 40
0
 40
0
 40
0
 40
0
 40
1
 40
1
 40
1
 40
1
 10
11.658491
 20
15.178383
 30
0.0
 10
11.658491
 20
15.201341
 30
0.0
 10
11.670739
 20
15.222554
 30
0.0
 10
11.690621
 20
15.234033
 30
0.0
  0
SPLINE
  5
15b
100
AcDbEntity
  8
cuts
 62
7
100
AcDbSpline
 70
8
 71
3
 72
8
 73
4
 74
0
 40
0
 40
0
 40
0
 40
0
 40
1
 40
1
 40
1
 40
1
 10
11.690621
 20
15.234033
 30
0.0
 10
11.710503
 20
15.245512
 30
0.0
 10
11.734998
 20
15.245512
 30
0.0
 10
11.754880
 20
15.234033
 30
0.0
  0
SPLINE
  5
15c
100
AcDbEntity
  8
cuts
 62
7
100
AcDbSpline
 70
8
 71
3
 72
8
 73
4
 74
0
 40
0
 40
0
 40
0
 40
0
 40
1
 40
1
 40
1
 40
1
 10
11.754880
 20
15.234033
 30
0.0
 10
11.774762
 20
15.222554
 30
0.0
 10
11.787010
 20
15.201341
 30
0.0
 10
11.787010
 20
15.178383
 30
0.0
  0
LWPOLYLINE
  5
15d
100
AcDbEntity
  8
cuts
 62
7
100
AcDbPolyline
 90
1
 70
1
 10
9.896490
 20
17.905218
 30
0.0
  0
SPLINE
  5
15e
100
AcDbEntity
  8
cuts
 62
7
100
AcDbSpline
 70
8
 71
3
 72
8
 73
4
 74
0
 40
0
 40
0
 40
0
 40
0
 40
1
 40
1
 40
1
 40
1
 10
14.124237
 20
17.201985
 30
0.0
 10
14.124237
 20
17.178980
 30
0.0
 10
14.111965
 20
17.157723
 30
0.0
 10
14.092042
 20
17.146221
 30
0.0
  0
SPLINE
  5
15f
100
AcDbEntity
  8
cuts
 62
7
100
AcDbSpline
 70
8
 71
3
 72
8
 73
4
 74
0
 40
0
 40
0
 40
0
 40
0
 40
1
 40
1
 40
1
 40
1
 10
14.092042
 20
17.146221
 30
0.0
 10
14.072120
 20
17.134719
 30
0.0
 10
14.047574
 20
17.134719
 30
0.0
 10
14.027652
 20
17.146221
 30
0.0
  0
SPLINE
  5
160
100
AcDbEntity
  8
cuts
 62
7
100
AcDbSpline
 70
8
 71
3
 72
8
 73
4
 74
0
 40
0
 40
0
 40
0
 40
0
 40
1
 40
1
 40
1
 40
1
 10
14.027652
 20
17.146221
 30
0.0
 10
14.007729
 20
17.157723
 30
0.0
 10
13.995456
 20
17.178980
 30
0.0
 10
13.995456
 20
17.201985
 30
0.0
  0
SPLINE
  5
161
100
AcDbEntity
  8
cuts
 62
7
100
AcDbSpline
 70
8
 71
3
 72
8
 73
4
 74
0
 40
0
 40
0
 40
0
 40
0
 40
1
 40
1
 40
1
 40
1
 10
13.995456
 20
17.201985
 30
0.0
 10
13.995456
 20
17.224989
 30
0.0
 10
14.007729
 20
17.246246
 30
0.0
 10
14.027652
 20
17.257749
 30
0.0
  0
SPLINE
  5
162
100
AcDbEntity
  8
cuts
 62
7
100
AcDbSpline
 70
8
 71
3
 72
8
 73
4
 74
0
 40
0
 40
0
 40
0
 40
0
 40
1
 40
1
 40
1
 40
1
 10
14.027652
 20
17.257749
 30
0.0
 10
14.047574
 20
17.269251
 30
0.0
 10
14.072120
 20
17.269251
 30
0.0
 10
14.092042
 20
17.257749
 30
0.0
  0
SPLINE
  5
163
100
AcDbEntity
  8
cuts
 62
7
100
AcDbSpline
 70
8
 71
3
 72
8
 73
4
 74
0
 40
0
 40
0
 40
0
 40
0
 40
1
 40
1
 40
1
 40
1
 10
14.092042
 20
17.257749
 30
0.0
 10
14.111965
 20
17.246246
 30
0.0
 10
14.124237
 20
17.224989
 30
0.0
 10
14.124237
 20
17.201985
 30
0.0
  0
LWPOLYLINE
  5
164
100
AcDbEntity
  8
cuts
 62
7
100
AcDbPolyline
 90
1
 70
1
 10
11.787010
 20
15.178383
 30
0.0
  0
SPLINE
  5
165
100
AcDbEntity
  8
cuts
 62
7
100
AcDbSpline
 70
8
 71
3
 72
8
 73
4
 74
0
 40
0
 40
0
 40
0
 40
0
 40
1
 40
1
 40
1
 40
1
 10
17.307246
 20
12.410094
 30
0.0
 10
17.307246
 20
12.387136
 30
0.0
 10
17.294999
 20
12.365922
 30
0.0
 10
17.275117
 20
12.354444
 30
0.0
  0
SPLINE
  5
166
100
AcDbEntity
  8
cuts
 62
7
100
AcDbSpline
 70
8
 71
3
 72
8
 73
4
 74
0
 40
0
 40
0
 40
0
 40
0
 40
1
 40
1
 40
1
 40
1
 10
17.275117
 20
12.354444
 30
0.0
 10
17.255235
 20
12.342965
 30
0.0
 10
17.230739
 20
12.342965
 30
0.0
 10
17.210858
 20
12.354444
 30
0.0
  0
SPLINE
  5
167
100
AcDbEntity
  8
cuts
 62
7
100
AcDbSpline
 70
8
 71
3
 72
8
 73
4
 74
0
 40
0
 40
0
 40
0
 40
0
 40
1
 40
1
 40
1
 40
1
 10
17.210858
 20
12.354444
 30
0.0
 10
17.190976
 20
12.365922
 30
0.0
 10
17.178728
 20
12.387136
 30
0.0
 10
17.178728
 20
12.410094
 30
0.0
  0
SPLINE
  5
168
100
AcDbEntity
  8
cuts
 62
7
100
AcDbSpline
 70
8
 71
3
 72
8
 73
4
 74
0
 40
0
 40
0
 40
0
 40
0
 40
1
 40
1
 40
1
 40
1
 10
17.178728
 20
12.410094
 30
0.0
 10
17.178728
 20
12.445583
 30
0.0
 10
17.207498
 20
12.474353
 30
0.0
 10
17.242987
 20
12.474353
 30
0.0
  0
SPLINE
  5
169
100
AcDbEntity
  8
cuts
 62
7
100
AcDbSpline
 70
8
 71
3
 72
8
 73
4
 74
0
 40
0
 40
0
 40
0
 40
0
 40
1
 40
1
 40
1
 40
1
 10
17.242987
 20
12.474353
 30
0.0
 10
17.278477
 20
12.474353
 30
0.0
 10
17.307246
 20
12.445583
 30
0.0
 10
17.307246
 20
12.410094
 30
0.0
  0
LWPOLYLINE
  5
16a
100
AcDbEntity
  8
cuts
 62
7
100
AcDbPolyline
 90
1
 70
1
 10
14.124237
 20
17.201985
 30
0.0
  0
SPLINE
  5
16b
100
AcDbEntity
  8
cuts
 62
7
100
AcDbSpline
 70
8
 71
3
 72
8
 73
4
 74
0
 40
0
 40
0
 40
0
 40
0
 40
1
 40
1
 40
1
 40
1
 10
1.035821
 20
15.097213
 30
0.0
 10
1.035821
 20
15.074208
 30
0.0
 10
1.023548
 20
15.052951
 30
0.0
 10
1.003626
 20
15.041449
 30
0.0
  0
SPLINE
  5
16c
100
AcDbEntity
  8
cuts
 62
7
100
AcDbSpline
 70
8
 71
3
 72
8
 73
4
 74
0
 40
0
 40
0
 40
0
 40
0
 40
1
 40
1
 40
1
 40
1
 10
1.003626
 20
15.041449
 30
0.0
 10
0.983703
 20
15.029947
 30
0.0
 10
0.959158
 20
15.029947
 30
0.0
 10
0.939235
 20
15.041449
 30
0.0
  0
SPLINE
  5
16d
100
AcDbEntity
  8
cuts
 62
7
100
AcDbSpline
 70
8
 71
3
 72
8
 73
4
 74
0
 40
0
 40
0
 40
0
 40
0
 40
1
 40
1
 40
1
 40
1
 10
0.939235
 20
15.041449
 30
0.0
 10
0.919313
 20
15.052951
 30
0.0
 10
0.907040
 20
15.074208
 30
0.0
 10
0.907040
 20
15.097213
 30
0.0
  0
SPLINE
  5
16e
100
AcDbEntity
  8
cuts
 62
7
100
AcDbSpline
 70
8
 71
3
 72
8
 73
4
 74
0
 40
0
 40
0
 40
0
 40
0
 40
1
 40
1
 40
1
 40
1
 10
0.907040
 20
15.097213
 30
0.0
 10
0.907040
 20
15.120217
 30
0.0
 10
0.919313
 20
15.141474
 30
0.0
 10
0.939235
 20
15.152977
 30
0.0
  0
SPLINE
  5
16f
100
AcDbEntity
  8
cuts
 62
7
100
AcDbSpline
 70
8
 71
3
 72
8
 73
4
 74
0
 40
0
 40
0
 40
0
 40
0
 40
1
 40
1
 40
1
 40
1
 10
0.939235
 20
15.152977
 30
0.0
 10
0.959158
 20
15.164479
 30
0.0
 10
0.983703
 20
15.164479
 30
0.0
 10
1.003626
 20
15.152977
 30
0.0
  0
SPLINE
  5
170
100
AcDbEntity
  8
cuts
 62
7
100
AcDbSpline
 70
8
 71
3
 72
8
 73
4
 74
0
 40
0
 40
0
 40
0
 40
0
 40
1
 40
1
 40
1
 40
1
 10
1.003626
 20
15.152977
 30
0.0
 10
1.023548
 20
15.141474
 30
0.0
 10
1.035821
 20
15.120217
 30
0.0
 10
1.035821
 20
15.097213
 30
0.0
  0
LWPOLYLINE
  5
171
100
AcDbEntity
  8
cuts
 62
7
100
AcDbPolyline
 90
1
 70
1
 10
17.307246
 20
12.410094
 30
0.0
  0
SPLINE
  5
172
100
AcDbEntity
  8
cuts
 62
7
100
AcDbSpline
 70
8
 71
3
 72
8
 73
4
 74
0
 40
0
 40
0
 40
0
 40
0
 40
1
 40
1
 40
1
 40
1
 10
3.553525
 20
12.622149
 30
0.0
 10
3.553525
 20
12.599191
 30
0.0
 10
3.541277
 20
12.577977
 30
0.0
 10
3.521396
 20
12.566499
 30
0.0
  0
SPLINE
  5
173
100
AcDbEntity
  8
cuts
 62
7
100
AcDbSpline
 70
8
 71
3
 72
8
 73
4
 74
0
 40
0
 40
0
 40
0
 40
0
 40
1
 40
1
 40
1
 40
1
 10
3.521396
 20
12.566499
 30
0.0
 10
3.501514
 20
12.555020
 30
0.0
 10
3.477018
 20
12.555020
 30
0.0
 10
3.457136
 20
12.566499
 30
0.0
  0
SPLINE
  5
174
100
AcDbEntity
  8
cuts
 62
7
100
AcDbSpline
 70
8
 71
3
 72
8
 73
4
 74
0
 40
0
 40
0
 40
0
 40
0
 40
1
 40
1
 40
1
 40
1
 10
3.457136
 20
12.566499
 30
0.0
 10
3.437254
 20
12.577977
 30
0.0
 10
3.425007
 20
12.599191
 30
0.0
 10
3.425007
 20
12.622149
 30
0.0
  0
SPLINE
  5
175
100
AcDbEntity
  8
cuts
 62
7
100
AcDbSpline
 70
8
 71
3
 72
8
 73
4
 74
0
 40
0
 40
0
 40
0
 40
0
 40
1
 40
1
 40
1
 40
1
 10
3.425007
 20
12.622149
 30
0.0
 10
3.425007
 20
12.657638
 30
0.0
 10
3.453777
 20
12.686408
 30
0.0
 10
3.489266
 20
12.686408
 30
0.0
  0
SPLINE
  5
176
100
AcDbEntity
  8
cuts
 62
7
100
AcDbSpline
 70
8
 71
3
 72
8
 73
4
 74
0
 40
0
 40
0
 40
0
 40
0
 40
1
 40
1
 40
1
 40
1
 10
3.489266
 20
12.686408
 30
0.0
 10
3.524755
 20
12.686408
 30
0.0
 10
3.553525
 20
12.657638
 30
0.0
 10
3.553525
 20
12.622149
 30
0.0
  0
LWPOLYLINE
  5
177
100
AcDbEntity
  8
cuts
 62
7
100
AcDbPolyline
 90
1
 70
1
 10
1.035821
 20
15.097213
 30
0.0
  0
SPLINE
  5
178
100
AcDbEntity
  8
cuts
 62
7
100
AcDbSpline
 70
8
 71
3
 72
8
 73
4
 74
0
 40
0
 40
0
 40
0
 40
0
 40
1
 40
1
 40
1
 40
1
 10
5.667134
 20
14.712978
 30
0.0
 10
5.667134
 20
14.689973
 30
0.0
 10
5.654861
 20
14.668716
 30
0.0
 10
5.634938
 20
14.657214
 30
0.0
  0
SPLINE
  5
179
100
AcDbEntity
  8
cuts
 62
7
100
AcDbSpline
 70
8
 71
3
 72
8
 73
4
 74
0
 40
0
 40
0
 40
0
 40
0
 40
1
 40
1
 40
1
 40
1
 10
5.634938
 20
14.657214
 30
0.0
 10
5.615016
 20
14.645712
 30
0.0
 10
5.590470
 20
14.645712
 30
0.0
 10
5.570548
 20
14.657214
 30
0.0
  0
SPLINE
  5
17a
100
AcDbEntity
  8
cuts
 62
7
100
AcDbSpline
 70
8
 71
3
 72
8
 73
4
 74
0
 40
0
 40
0
 40
0
 40
0
 40
1
 40
1
 40
1
 40
1
 10
5.570548
 20
14.657214
 30
0.0
 10
5.550625
 20
14.668716
 30
0.0
 10
5.538353
 20
14.689973
 30
0.0
 10
5.538353
 20
14.712978
 30
0.0
  0
SPLINE
  5
17b
100
AcDbEntity
  8
cuts
 62
7
100
AcDbSpline
 70
8
 71
3
 72
8
 73
4
 74
0
 40
0
 40
0
 40
0
 40
0
 40
1
 40
1
 40
1
 40
1
 10
5.538353
 20
14.712978
 30
0.0
 10
5.538353
 20
14.735982
 30
0.0
 10
5.550625
 20
14.757239
 30
0.0
 10
5.570548
 20
14.768742
 30
0.0
  0
SPLINE
  5
17c
100
AcDbEntity
  8
cuts
 62
7
100
AcDbSpline
 70
8
 71
3
 72
8
 73
4
 74
0
 40
0
 40
0
 40
0
 40
0
 40
1
 40
1
 40
1
 40
1
 10
5.570548
 20
14.768742
 30
0.0
 10
5.590470
 20
14.780244
 30
0.0
 10
5.615016
 20
14.780244
 30
0.0
 10
5.634938
 20
14.768742
 30
0.0
  0
SPLINE
  5
17d
100
AcDbEntity
  8
cuts
 62
7
100
AcDbSpline
 70
8
 71
3
 72
8
 73
4
 74
0
 40
0
 40
0
 40
0
 40
0
 40
1
 40
1
 40
1
 40
1
 10
5.634938
 20
14.768742
 30
0.0
 10
5.654861
 20
14.757239
 30
0.0
 10
5.667134
 20
14.735982
 30
0.0
 10
5.667134
 20
14.712978
 30
0.0
  0
LWPOLYLINE
  5
17e
100
AcDbEntity
  8
cuts
 62
7
100
AcDbPolyline
 90
1
 70
1
 10
3.553525
 20
12.622149
 30
0.0
  0
SPLINE
  5
17f
100
AcDbEntity
  8
cuts
 62
7
100
AcDbSpline
 70
8
 71
3
 72
8
 73
4
 74
0
 40
0
 40
0
 40
0
 40
0
 40
1
 40
1
 40
1
 40
1
 10
8.633377
 20
12.656367
 30
0.0
 10
8.633377
 20
12.633409
 30
0.0
 10
8.621129
 20
12.612196
 30
0.0
 10
8.601247
 20
12.600717
 30
0.0
  0
SPLINE
  5
180
100
AcDbEntity
  8
cuts
 62
7
100
AcDbSpline
 70
8
 71
3
 72
8
 73
4
 74
0
 40
0
 40
0
 40
0
 40
0
 40
1
 40
1
 40
1
 40
1
 10
8.601247
 20
12.600717
 30
0.0
 10
8.581365
 20
12.589238
 30
0.0
 10
8.556870
 20
12.589238
 30
0.0
 10
8.536988
 20
12.600717
 30
0.0
  0
SPLINE
  5
181
100
AcDbEntity
  8
cuts
 62
7
100
AcDbSpline
 70
8
 71
3
 72
8
 73
4
 74
0
 40
0
 40
0
 40
0
 40
0
 40
1
 40
1
 40
1
 40
1
 10
8.536988
 20
12.600717
 30
0.0
 10
8.517106
 20
12.612196
 30
0.0
 10
8.504858
 20
12.633409
 30
0.0
 10
8.504858
 20
12.656367
 30
0.0
  0
SPLINE
  5
182
100
AcDbEntity
  8
cuts
 62
7
100
AcDbSpline
 70
8
 71
3
 72
8
 73
4
 74
0
 40
0
 40
0
 40
0
 40
0
 40
1
 40
1
 40
1
 40
1
 10
8.504858
 20
12.656367
 30
0.0
 10
8.504858
 20
12.679325
 30
0.0
 10
8.517106
 20
12.700538
 30
0.0
 10
8.536988
 20
12.712017
 30
0.0
  0
SPLINE
  5
183
100
AcDbEntity
  8
cuts
 62
7
100
AcDbSpline
 70
8
 71
3
 72
8
 73
4
 74
0
 40
0
 40
0
 40
0
 40
0
 40
1
 40
1
 40
1
 40
1
 10
8.536988
 20
12.712017
 30
0.0
 10
8.556870
 20
12.723496
 30
0.0
 10
8.581365
 20
12.723496
 30
0.0
 10
8.601247
 20
12.712017
 30
0.0
  0
SPLINE
  5
184
100
AcDbEntity
  8
cuts
 62
7
100
AcDbSpline
 70
8
 71
3
 72
8
 73
4
 74
0
 40
0
 40
0
 40
0
 40
0
 40
1
 40
1
 40
1
 40
1
 10
8.601247
 20
12.712017
 30
0.0
 10
8.621129
 20
12.700538
 30
0.0
 10
8.633377
 20
12.679325
 30
0.0
 10
8.633377
 20
12.656367
 30
0.0
  0
LWPOLYLINE
  5
185
100
AcDbEntity
  8
cuts
 62
7
100
AcDbPolyline
 90
1
 70
1
 10
5.667134
 20
14.712978
 30
0.0
  0
SPLINE
  5
186
100
AcDbEntity
  8
cuts
 62
7
100
AcDbSpline
 70
8
 71
3
 72
8
 73
4
 74
0
 40
0
 40
0
 40
0
 40
0
 40
1
 40
1
 40
1
 40
1
 10
10.205325
 20
14.373082
 30
0.0
 10
10.205325
 20
14.350077
 30
0.0
 10
10.193052
 20
14.328820
 30
0.0
 10
10.173130
 20
14.317318
 30
0.0
  0
SPLINE
  5
187
100
AcDbEntity
  8
cuts
 62
7
100
AcDbSpline
 70
8
 71
3
 72
8
 73
4
 74
0
 40
0
 40
0
 40
0
 40
0
 40
1
 40
1
 40
1
 40
1
 10
10.173130
 20
14.317318
 30
0.0
 10
10.153207
 20
14.305816
 30
0.0
 10
10.128662
 20
14.305816
 30
0.0
 10
10.108739
 20
14.317318
 30
0.0
  0
SPLINE
  5
188
100
AcDbEntity
  8
cuts
 62
7
100
AcDbSpline
 70
8
 71
3
 72
8
 73
4
 74
0
 40
0
 40
0
 40
0
 40
0
 40
1
 40
1
 40
1
 40
1
 10
10.108739
 20
14.317318
 30
0.0
 10
10.088817
 20
14.328820
 30
0.0
 10
10.076544
 20
14.350077
 30
0.0
 10
10.076544
 20
14.373082
 30
0.0
  0
SPLINE
  5
189
100
AcDbEntity
  8
cuts
 62
7
100
AcDbSpline
 70
8
 71
3
 72
8
 73
4
 74
0
 40
0
 40
0
 40
0
 40
0
 40
1
 40
1
 40
1
 40
1
 10
10.076544
 20
14.373082
 30
0.0
 10
10.076544
 20
14.396086
 30
0.0
 10
10.088817
 20
14.417343
 30
0.0
 10
10.108739
 20
14.428846
 30
0.0
  0
SPLINE
  5
18a
100
AcDbEntity
  8
cuts
 62
7
100
AcDbSpline
 70
8
 71
3
 72
8
 73
4
 74
0
 40
0
 40
0
 40
0
 40
0
 40
1
 40
1
 40
1
 40
1
 10
10.108739
 20
14.428846
 30
0.0
 10
10.128662
 20
14.440348
 30
0.0
 10
10.153207
 20
14.440348
 30
0.0
 10
10.173130
 20
14.428846
 30
0.0
  0
SPLINE
  5
18b
100
AcDbEntity
  8
cuts
 62
7
100
AcDbSpline
 70
8
 71
3
 72
8
 73
4
 74
0
 40
0
 40
0
 40
0
 40
0
 40
1
 40
1
 40
1
 40
1
 10
10.173130
 20
14.428846
 30
0.0
 10
10.193052
 20
14.417343
 30
0.0
 10
10.205325
 20
14.396086
 30
0.0
 10
10.205325
 20
14.373082
 30
0.0
  0
LWPOLYLINE
  5
18c
100
AcDbEntity
  8
cuts
 62
7
100
AcDbPolyline
 90
1
 70
1
 10
8.633377
 20
12.656367
 30
0.0
  0
SPLINE
  5
18d
100
AcDbEntity
  8
cuts
 62
7
100
AcDbSpline
 70
8
 71
3
 72
8
 73
4
 74
0
 40
0
 40
0
 40
0
 40
0
 40
1
 40
1
 40
1
 40
1
 10
12.579229
 20
12.567113
 30
0.0
 10
12.579229
 20
12.544155
 30
0.0
 10
12.566982
 20
12.522942
 30
0.0
 10
12.547100
 20
12.511463
 30
0.0
  0
SPLINE
  5
18e
100
AcDbEntity
  8
cuts
 62
7
100
AcDbSpline
 70
8
 71
3
 72
8
 73
4
 74
0
 40
0
 40
0
 40
0
 40
0
 40
1
 40
1
 40
1
 40
1
 10
12.547100
 20
12.511463
 30
0.0
 10
12.527218
 20
12.499984
 30
0.0
 10
12.502722
 20
12.499984
 30
0.0
 10
12.482840
 20
12.511463
 30
0.0
  0
SPLINE
  5
18f
100
AcDbEntity
  8
cuts
 62
7
100
AcDbSpline
 70
8
 71
3
 72
8
 73
4
 74
0
 40
0
 40
0
 40
0
 40
0
 40
1
 40
1
 40
1
 40
1
 10
12.482840
 20
12.511463
 30
0.0
 10
12.462959
 20
12.522942
 30
0.0
 10
12.450711
 20
12.544155
 30
0.0
 10
12.450711
 20
12.567113
 30
0.0
  0
SPLINE
  5
190
100
AcDbEntity
  8
cuts
 62
7
100
AcDbSpline
 70
8
 71
3
 72
8
 73
4
 74
0
 40
0
 40
0
 40
0
 40
0
 40
1
 40
1
 40
1
 40
1
 10
12.450711
 20
12.567113
 30
0.0
 10
12.450711
 20
12.590071
 30
0.0
 10
12.462959
 20
12.611284
 30
0.0
 10
12.482840
 20
12.622763
 30
0.0
  0
SPLINE
  5
191
100
AcDbEntity
  8
cuts
 62
7
100
AcDbSpline
 70
8
 71
3
 72
8
 73
4
 74
0
 40
0
 40
0
 40
0
 40
0
 40
1
 40
1
 40
1
 40
1
 10
12.482840
 20
12.622763
 30
0.0
 10
12.502722
 20
12.634242
 30
0.0
 10
12.527218
 20
12.634242
 30
0.0
 10
12.547100
 20
12.622763
 30
0.0
  0
SPLINE
  5
192
100
AcDbEntity
  8
cuts
 62
7
100
AcDbSpline
 70
8
 71
3
 72
8
 73
4
 74
0
 40
0
 40
0
 40
0
 40
0
 40
1
 40
1
 40
1
 40
1
 10
12.547100
 20
12.622763
 30
0.0
 10
12.566982
 20
12.611284
 30
0.0
 10
12.579229
 20
12.590071
 30
0.0
 10
12.579229
 20
12.567113
 30
0.0
  0
LWPOLYLINE
  5
193
100
AcDbEntity
  8
cuts
 62
7
100
AcDbPolyline
 90
1
 70
1
 10
10.205325
 20
14.373082
 30
0.0
  0
SPLINE
  5
194
100
AcDbEntity
  8
cuts
 62
7
100
AcDbSpline
 70
8
 71
3
 72
8
 73
4
 74
0
 40
0
 40
0
 40
0
 40
0
 40
1
 40
1
 40
1
 40
1
 10
0.489929
 20
11.971786
 30
0.0
 10
0.489929
 20
11.948781
 30
0.0
 10
0.477657
 20
11.927524
 30
0.0
 10
0.457734
 20
11.916022
 30
0.0
  0
SPLINE
  5
195
100
AcDbEntity
  8
cuts
 62
7
100
AcDbSpline
 70
8
 71
3
 72
8
 73
4
 74
0
 40
0
 40
0
 40
0
 40
0
 40
1
 40
1
 40
1
 40
1
 10
0.457734
 20
11.916022
 30
0.0
 10
0.437812
 20
11.904520
 30
0.0
 10
0.413266
 20
11.904520
 30
0.0
 10
0.393344
 20
11.916022
 30
0.0
  0
SPLINE
  5
196
100
AcDbEntity
  8
cuts
 62
7
100
AcDbSpline
 70
8
 71
3
 72
8
 73
4
 74
0
 40
0
 40
0
 40
0
 40
0
 40
1
 40
1
 40
1
 40
1
 10
0.393344
 20
11.916022
 30
0.0
 10
0.373421
 20
11.927524
 30
0.0
 10
0.361148
 20
11.948781
 30
0.0
 10
0.361148
 20
11.971786
 30
0.0
  0
SPLINE
  5
197
100
AcDbEntity
  8
cuts
 62
7
100
AcDbSpline
 70
8
 71
3
 72
8
 73
4
 74
0
 40
0
 40
0
 40
0
 40
0
 40
1
 40
1
 40
1
 40
1
 10
0.361148
 20
11.971786
 30
0.0
 10
0.361148
 20
11.994790
 30
0.0
 10
0.373421
 20
12.016047
 30
0.0
 10
0.393344
 20
12.027550
 30
0.0
  0
SPLINE
  5
198
100
AcDbEntity
  8
cuts
 62
7
100
AcDbSpline
 70
8
 71
3
 72
8
 73
4
 74
0
 40
0
 40
0
 40
0
 40
0
 40
1
 40
1
 40
1
 40
1
 10
0.393344
 20
12.027550
 30
0.0
 10
0.413266
 20
12.039052
 30
0.0
 10
0.437812
 20
12.039052
 30
0.0
 10
0.457734
 20
12.027550
 30
0.0
  0
SPLINE
  5
199
100
AcDbEntity
  8
cuts
 62
7
100
AcDbSpline
 70
8
 71
3
 72
8
 73
4
 74
0
 40
0
 40
0
 40
0
 40
0
 40
1
 40
1
 40
1
 40
1
 10
0.457734
 20
12.027550
 30
0.0
 10
0.477657
 20
12.016047
 30
0.0
 10
0.489929
 20
11.994790
 30
0.0
 10
0.489929
 20
11.971786
 30
0.0
  0
LWPOLYLINE
  5
19a
100
AcDbEntity
  8
cuts
 62
7
100
AcDbPolyline
 90
1
 70
1
 10
12.579229
 20
12.567113
 30
0.0
  0
SPLINE
  5
19b
100
AcDbEntity
  8
cuts
 62
7
100
AcDbSpline
 70
8
 71
3
 72
8
 73
4
 74
0
 40
0
 40
0
 40
0
 40
0
 40
1
 40
1
 40
1
 40
1
 10
3.283091
 20
10.175506
 30
0.0
 10
3.283091
 20
10.152548
 30
0.0
 10
3.270843
 20
10.131334
 30
0.0
 10
3.250961
 20
10.119855
 30
0.0
  0
SPLINE
  5
19c
100
AcDbEntity
  8
cuts
 62
7
100
AcDbSpline
 70
8
 71
3
 72
8
 73
4
 74
0
 40
0
 40
0
 40
0
 40
0
 40
1
 40
1
 40
1
 40
1
 10
3.250961
 20
10.119855
 30
0.0
 10
3.231079
 20
10.108377
 30
0.0
 10
3.206584
 20
10.108377
 30
0.0
 10
3.186702
 20
10.119855
 30
0.0
  0
SPLINE
  5
19d
100
AcDbEntity
  8
cuts
 62
7
100
AcDbSpline
 70
8
 71
3
 72
8
 73
4
 74
0
 40
0
 40
0
 40
0
 40
0
 40
1
 40
1
 40
1
 40
1
 10
3.186702
 20
10.119855
 30
0.0
 10
3.166820
 20
10.131334
 30
0.0
 10
3.154572
 20
10.152548
 30
0.0
 10
3.154572
 20
10.175506
 30
0.0
  0
SPLINE
  5
19e
100
AcDbEntity
  8
cuts
 62
7
100
AcDbSpline
 70
8
 71
3
 72
8
 73
4
 74
0
 40
0
 40
0
 40
0
 40
0
 40
1
 40
1
 40
1
 40
1
 10
3.154572
 20
10.175506
 30
0.0
 10
3.154572
 20
10.198463
 30
0.0
 10
3.166820
 20
10.219677
 30
0.0
 10
3.186702
 20
10.231156
 30
0.0
  0
SPLINE
  5
19f
100
AcDbEntity
  8
cuts
 62
7
100
AcDbSpline
 70
8
 71
3
 72
8
 73
4
 74
0
 40
0
 40
0
 40
0
 40
0
 40
1
 40
1
 40
1
 40
1
 10
3.186702
 20
10.231156
 30
0.0
 10
3.206584
 20
10.242635
 30
0.0
 10
3.231079
 20
10.242635
 30
0.0
 10
3.250961
 20
10.231156
 30
0.0
  0
SPLINE
  5
1a0
100
AcDbEntity
  8
cuts
 62
7
100
AcDbSpline
 70
8
 71
3
 72
8
 73
4
 74
0
 40
0
 40
0
 40
0
 40
0
 40
1
 40
1
 40
1
 40
1
 10
3.250961
 20
10.231156
 30
0.0
 10
3.270843
 20
10.219677
 30
0.0
 10
3.283091
 20
10.198463
 30
0.0
 10
3.283091
 20
10.175506
 30
0.0
  0
LWPOLYLINE
  5
1a1
100
AcDbEntity
  8
cuts
 62
7
100
AcDbPolyline
 90
1
 70
1
 10
0.489929
 20
11.971786
 30
0.0
  0
SPLINE
  5
1a2
100
AcDbEntity
  8
cuts
 62
7
100
AcDbSpline
 70
8
 71
3
 72
8
 73
4
 74
0
 40
0
 40
0
 40
0
 40
0
 40
1
 40
1
 40
1
 40
1
 10
4.125599
 20
11.829834
 30
0.0
 10
4.125599
 20
11.794272
 30
0.0
 10
4.096770
 20
11.765444
 30
0.0
 10
4.061208
 20
11.765444
 30
0.0
  0
SPLINE
  5
1a3
100
AcDbEntity
  8
cuts
 62
7
100
AcDbSpline
 70
8
 71
3
 72
8
 73
4
 74
0
 40
0
 40
0
 40
0
 40
0
 40
1
 40
1
 40
1
 40
1
 10
4.061208
 20
11.765444
 30
0.0
 10
4.025646
 20
11.765444
 30
0.0
 10
3.996818
 20
11.794272
 30
0.0
 10
3.996818
 20
11.829834
 30
0.0
  0
SPLINE
  5
1a4
100
AcDbEntity
  8
cuts
 62
7
100
AcDbSpline
 70
8
 71
3
 72
8
 73
4
 74
0
 40
0
 40
0
 40
0
 40
0
 40
1
 40
1
 40
1
 40
1
 10
3.996818
 20
11.829834
 30
0.0
 10
3.996818
 20
11.852839
 30
0.0
 10
4.009090
 20
11.874096
 30
0.0
 10
4.029013
 20
11.885598
 30
0.0
  0
SPLINE
  5
1a5
100
AcDbEntity
  8
cuts
 62
7
100
AcDbSpline
 70
8
 71
3
 72
8
 73
4
 74
0
 40
0
 40
0
 40
0
 40
0
 40
1
 40
1
 40
1
 40
1
 10
4.029013
 20
11.885598
 30
0.0
 10
4.048935
 20
11.897100
 30
0.0
 10
4.073481
 20
11.897100
 30
0.0
 10
4.093403
 20
11.885598
 30
0.0
  0
SPLINE
  5
1a6
100
AcDbEntity
  8
cuts
 62
7
100
AcDbSpline
 70
8
 71
3
 72
8
 73
4
 74
0
 40
0
 40
0
 40
0
 40
0
 40
1
 40
1
 40
1
 40
1
 10
4.093403
 20
11.885598
 30
0.0
 10
4.113326
 20
11.874096
 30
0.0
 10
4.125599
 20
11.852839
 30
0.0
 10
4.125599
 20
11.829834
 30
0.0
  0
LWPOLYLINE
  5
1a7
100
AcDbEntity
  8
cuts
 62
7
100
AcDbPolyline
 90
1
 70
1
 10
3.283091
 20
10.175506
 30
0.0
  0
SPLINE
  5
1a8
100
AcDbEntity
  8
cuts
 62
7
100
AcDbSpline
 70
8
 71
3
 72
8
 73
4
 74
0
 40
0
 40
0
 40
0
 40
0
 40
1
 40
1
 40
1
 40
1
 10
7.230606
 20
10.067194
 30
0.0
 10
7.230606
 20
10.044236
 30
0.0
 10
7.218359
 20
10.023023
 30
0.0
 10
7.198477
 20
10.011544
 30
0.0
  0
SPLINE
  5
1a9
100
AcDbEntity
  8
cuts
 62
7
100
AcDbSpline
 70
8
 71
3
 72
8
 73
4
 74
0
 40
0
 40
0
 40
0
 40
0
 40
1
 40
1
 40
1
 40
1
 10
7.198477
 20
10.011544
 30
0.0
 10
7.178595
 20
10.000065
 30
0.0
 10
7.154099
 20
10.000065
 30
0.0
 10
7.134217
 20
10.011544
 30
0.0
  0
SPLINE
  5
1aa
100
AcDbEntity
  8
cuts
 62
7
100
AcDbSpline
 70
8
 71
3
 72
8
 73
4
 74
0
 40
0
 40
0
 40
0
 40
0
 40
1
 40
1
 40
1
 40
1
 10
7.134217
 20
10.011544
 30
0.0
 10
7.114336
 20
10.023023
 30
0.0
 10
7.102088
 20
10.044236
 30
0.0
 10
7.102088
 20
10.067194
 30
0.0
  0
SPLINE
  5
1ab
100
AcDbEntity
  8
cuts
 62
7
100
AcDbSpline
 70
8
 71
3
 72
8
 73
4
 74
0
 40
0
 40
0
 40
0
 40
0
 40
1
 40
1
 40
1
 40
1
 10
7.102088
 20
10.067194
 30
0.0
 10
7.102088
 20
10.102683
 30
0.0
 10
7.130858
 20
10.131453
 30
0.0
 10
7.166347
 20
10.131453
 30
0.0
  0
SPLINE
  5
1ac
100
AcDbEntity
  8
cuts
 62
7
100
AcDbSpline
 70
8
 71
3
 72
8
 73
4
 74
0
 40
0
 40
0
 40
0
 40
0
 40
1
 40
1
 40
1
 40
1
 10
7.166347
 20
10.131453
 30
0.0
 10
7.201836
 20
10.131453
 30
0.0
 10
7.230606
 20
10.102683
 30
0.0
 10
7.230606
 20
10.067194
 30
0.0
  0
LWPOLYLINE
  5
1ad
100
AcDbEntity
  8
cuts
 62
7
100
AcDbPolyline
 90
1
 70
1
 10
4.125599
 20
11.829834
 30
0.0
  0
SPLINE
  5
1ae
100
AcDbEntity
  8
cuts
 62
7
100
AcDbSpline
 70
8
 71
3
 72
8
 73
4
 74
0
 40
0
 40
0
 40
0
 40
0
 40
1
 40
1
 40
1
 40
1
 10
8.141128
 20
11.655939
 30
0.0
 10
8.141128
 20
11.632935
 30
0.0
 10
8.128856
 20
11.611678
 30
0.0
 10
8.108933
 20
11.600176
 30
0.0
  0
SPLINE
  5
1af
100
AcDbEntity
  8
cuts
 62
7
100
AcDbSpline
 70
8
 71
3
 72
8
 73
4
 74
0
 40
0
 40
0
 40
0
 40
0
 40
1
 40
1
 40
1
 40
1
 10
8.108933
 20
11.600176
 30
0.0
 10
8.089011
 20
11.588673
 30
0.0
 10
8.064465
 20
11.588673
 30
0.0
 10
8.044543
 20
11.600176
 30
0.0
  0
SPLINE
  5
1b0
100
AcDbEntity
  8
cuts
 62
7
100
AcDbSpline
 70
8
 71
3
 72
8
 73
4
 74
0
 40
0
 40
0
 40
0
 40
0
 40
1
 40
1
 40
1
 40
1
 10
8.044543
 20
11.600176
 30
0.0
 10
8.024620
 20
11.611678
 30
0.0
 10
8.012347
 20
11.632935
 30
0.0
 10
8.012347
 20
11.655939
 30
0.0
  0
SPLINE
  5
1b1
100
AcDbEntity
  8
cuts
 62
7
100
AcDbSpline
 70
8
 71
3
 72
8
 73
4
 74
0
 40
0
 40
0
 40
0
 40
0
 40
1
 40
1
 40
1
 40
1
 10
8.012347
 20
11.655939
 30
0.0
 10
8.012347
 20
11.678944
 30
0.0
 10
8.024620
 20
11.700201
 30
0.0
 10
8.044543
 20
11.711703
 30
0.0
  0
SPLINE
  5
1b2
100
AcDbEntity
  8
cuts
 62
7
100
AcDbSpline
 70
8
 71
3
 72
8
 73
4
 74
0
 40
0
 40
0
 40
0
 40
0
 40
1
 40
1
 40
1
 40
1
 10
8.044543
 20
11.711703
 30
0.0
 10
8.064465
 20
11.723205
 30
0.0
 10
8.089011
 20
11.723205
 30
0.0
 10
8.108933
 20
11.711703
 30
0.0
  0
SPLINE
  5
1b3
100
AcDbEntity
  8
cuts
 62
7
100
AcDbSpline
 70
8
 71
3
 72
8
 73
4
 74
0
 40
0
 40
0
 40
0
 40
0
 40
1
 40
1
 40
1
 40
1
 10
8.108933
 20
11.711703
 30
0.0
 10
8.128856
 20
11.700201
 30
0.0
 10
8.141128
 20
11.678944
 30
0.0
 10
8.141128
 20
11.655939
 30
0.0
  0
LWPOLYLINE
  5
1b4
100
AcDbEntity
  8
cuts
 62
7
100
AcDbPolyline
 90
1
 70
1
 10
7.230606
 20
10.067194
 30
0.0
  0
SPLINE
  5
1b5
100
AcDbEntity
  8
cuts
 62
7
100
AcDbSpline
 70
8
 71
3
 72
8
 73
4
 74
0
 40
0
 40
0
 40
0
 40
0
 40
1
 40
1
 40
1
 40
1
 10
11.836708
 20
5.948706
 30
0.0
 10
11.836708
 20
5.925748
 30
0.0
 10
11.824460
 20
5.904534
 30
0.0
 10
11.804578
 20
5.893056
 30
0.0
  0
SPLINE
  5
1b6
100
AcDbEntity
  8
cuts
 62
7
100
AcDbSpline
 70
8
 71
3
 72
8
 73
4
 74
0
 40
0
 40
0
 40
0
 40
0
 40
1
 40
1
 40
1
 40
1
 10
11.804578
 20
5.893056
 30
0.0
 10
11.784696
 20
5.881577
 30
0.0
 10
11.760201
 20
5.881577
 30
0.0
 10
11.740319
 20
5.893056
 30
0.0
  0
SPLINE
  5
1b7
100
AcDbEntity
  8
cuts
 62
7
100
AcDbSpline
 70
8
 71
3
 72
8
 73
4
 74
0
 40
0
 40
0
 40
0
 40
0
 40
1
 40
1
 40
1
 40
1
 10
11.740319
 20
5.893056
 30
0.0
 10
11.720437
 20
5.904534
 30
0.0
 10
11.708189
 20
5.925748
 30
0.0
 10
11.708189
 20
5.948706
 30
0.0
  0
SPLINE
  5
1b8
100
AcDbEntity
  8
cuts
 62
7
100
AcDbSpline
 70
8
 71
3
 72
8
 73
4
 74
0
 40
0
 40
0
 40
0
 40
0
 40
1
 40
1
 40
1
 40
1
 10
11.708189
 20
5.948706
 30
0.0
 10
11.708189
 20
5.984195
 30
0.0
 10
11.736959
 20
6.012965
 30
0.0
 10
11.772448
 20
6.012965
 30
0.0
  0
SPLINE
  5
1b9
100
AcDbEntity
  8
cuts
 62
7
100
AcDbSpline
 70
8
 71
3
 72
8
 73
4
 74
0
 40
0
 40
0
 40
0
 40
0
 40
1
 40
1
 40
1
 40
1
 10
11.772448
 20
6.012965
 30
0.0
 10
11.807938
 20
6.012965
 30
0.0
 10
11.836708
 20
5.984195
 30
0.0
 10
11.836708
 20
5.948706
 30
0.0
  0
LWPOLYLINE
  5
1ba
100
AcDbEntity
  8
cuts
 62
7
100
AcDbPolyline
 90
1
 70
1
 10
8.141128
 20
11.655939
 30
0.0
  0
SPLINE
  5
1bb
100
AcDbEntity
  8
cuts
 62
7
100
AcDbSpline
 70
8
 71
3
 72
8
 73
4
 74
0
 40
0
 40
0
 40
0
 40
0
 40
1
 40
1
 40
1
 40
1
 10
12.401484
 20
11.403676
 30
0.0
 10
12.401484
 20
11.380672
 30
0.0
 10
12.389211
 20
11.359415
 30
0.0
 10
12.369289
 20
11.347912
 30
0.0
  0
SPLINE
  5
1bc
100
AcDbEntity
  8
cuts
 62
7
100
AcDbSpline
 70
8
 71
3
 72
8
 73
4
 74
0
 40
0
 40
0
 40
0
 40
0
 40
1
 40
1
 40
1
 40
1
 10
12.369289
 20
11.347912
 30
0.0
 10
12.349366
 20
11.336410
 30
0.0
 10
12.324821
 20
11.336410
 30
0.0
 10
12.304898
 20
11.347912
 30
0.0
  0
SPLINE
  5
1bd
100
AcDbEntity
  8
cuts
 62
7
100
AcDbSpline
 70
8
 71
3
 72
8
 73
4
 74
0
 40
0
 40
0
 40
0
 40
0
 40
1
 40
1
 40
1
 40
1
 10
12.304898
 20
11.347912
 30
0.0
 10
12.284976
 20
11.359415
 30
0.0
 10
12.272703
 20
11.380672
 30
0.0
 10
12.272703
 20
11.403676
 30
0.0
  0
SPLINE
  5
1be
100
AcDbEntity
  8
cuts
 62
7
100
AcDbSpline
 70
8
 71
3
 72
8
 73
4
 74
0
 40
0
 40
0
 40
0
 40
0
 40
1
 40
1
 40
1
 40
1
 10
12.272703
 20
11.403676
 30
0.0
 10
12.272703
 20
11.426681
 30
0.0
 10
12.284976
 20
11.447938
 30
0.0
 10
12.304898
 20
11.459440
 30
0.0
  0
SPLINE
  5
1bf
100
AcDbEntity
  8
cuts
 62
7
100
AcDbSpline
 70
8
 71
3
 72
8
 73
4
 74
0
 40
0
 40
0
 40
0
 40
0
 40
1
 40
1
 40
1
 40
1
 10
12.304898
 20
11.459440
 30
0.0
 10
12.324821
 20
11.470942
 30
0.0
 10
12.349366
 20
11.470942
 30
0.0
 10
12.369289
 20
11.459440
 30
0.0
  0
SPLINE
  5
1c0
100
AcDbEntity
  8
cuts
 62
7
100
AcDbSpline
 70
8
 71
3
 72
8
 73
4
 74
0
 40
0
 40
0
 40
0
 40
0
 40
1
 40
1
 40
1
 40
1
 10
12.369289
 20
11.459440
 30
0.0
 10
12.389211
 20
11.447938
 30
0.0
 10
12.401484
 20
11.426681
 30
0.0
 10
12.401484
 20
11.403676
 30
0.0
  0
LWPOLYLINE
  5
1c1
100
AcDbEntity
  8
cuts
 62
7
100
AcDbPolyline
 90
1
 70
1
 10
11.836708
 20
5.948706
 30
0.0
  0
SPLINE
  5
1c2
100
AcDbEntity
  8
cuts
 62
7
100
AcDbSpline
 70
8
 71
3
 72
8
 73
4
 74
0
 40
0
 40
0
 40
0
 40
0
 40
1
 40
1
 40
1
 40
1
 10
14.459511
 20
8.883421
 30
0.0
 10
14.459511
 20
8.860464
 30
0.0
 10
14.447263
 20
8.839250
 30
0.0
 10
14.427381
 20
8.827771
 30
0.0
  0
SPLINE
  5
1c3
100
AcDbEntity
  8
cuts
 62
7
100
AcDbSpline
 70
8
 71
3
 72
8
 73
4
 74
0
 40
0
 40
0
 40
0
 40
0
 40
1
 40
1
 40
1
 40
1
 10
14.427381
 20
8.827771
 30
0.0
 10
14.407499
 20
8.816292
 30
0.0
 10
14.383004
 20
8.816292
 30
0.0
 10
14.363122
 20
8.827771
 30
0.0
  0
SPLINE
  5
1c4
100
AcDbEntity
  8
cuts
 62
7
100
AcDbSpline
 70
8
 71
3
 72
8
 73
4
 74
0
 40
0
 40
0
 40
0
 40
0
 40
1
 40
1
 40
1
 40
1
 10
14.363122
 20
8.827771
 30
0.0
 10
14.343240
 20
8.839250
 30
0.0
 10
14.330992
 20
8.860464
 30
0.0
 10
14.330992
 20
8.883421
 30
0.0
  0
SPLINE
  5
1c5
100
AcDbEntity
  8
cuts
 62
7
100
AcDbSpline
 70
8
 71
3
 72
8
 73
4
 74
0
 40
0
 40
0
 40
0
 40
0
 40
1
 40
1
 40
1
 40
1
 10
14.330992
 20
8.883421
 30
0.0
 10
14.330992
 20
8.906379
 30
0.0
 10
14.343240
 20
8.927593
 30
0.0
 10
14.363122
 20
8.939072
 30
0.0
  0
SPLINE
  5
1c6
100
AcDbEntity
  8
cuts
 62
7
100
AcDbSpline
 70
8
 71
3
 72
8
 73
4
 74
0
 40
0
 40
0
 40
0
 40
0
 40
1
 40
1
 40
1
 40
1
 10
14.363122
 20
8.939072
 30
0.0
 10
14.383004
 20
8.950550
 30
0.0
 10
14.407499
 20
8.950550
 30
0.0
 10
14.427381
 20
8.939072
 30
0.0
  0
SPLINE
  5
1c7
100
AcDbEntity
  8
cuts
 62
7
100
AcDbSpline
 70
8
 71
3
 72
8
 73
4
 74
0
 40
0
 40
0
 40
0
 40
0
 40
1
 40
1
 40
1
 40
1
 10
14.427381
 20
8.939072
 30
0.0
 10
14.447263
 20
8.927593
 30
0.0
 10
14.459511
 20
8.906379
 30
0.0
 10
14.459511
 20
8.883421
 30
0.0
  0
LWPOLYLINE
  5
1c8
100
AcDbEntity
  8
cuts
 62
7
100
AcDbPolyline
 90
1
 70
1
 10
12.401484
 20
11.403676
 30
0.0
  0
SPLINE
  5
1c9
100
AcDbEntity
  8
cuts
 62
7
100
AcDbSpline
 70
8
 71
3
 72
8
 73
4
 74
0
 40
0
 40
0
 40
0
 40
0
 40
1
 40
1
 40
1
 40
1
 10
14.932126
 20
11.451027
 30
0.0
 10
14.932126
 20
11.428023
 30
0.0
 10
14.919853
 20
11.406766
 30
0.0
 10
14.899931
 20
11.395263
 30
0.0
  0
SPLINE
  5
1ca
100
AcDbEntity
  8
cuts
 62
7
100
AcDbSpline
 70
8
 71
3
 72
8
 73
4
 74
0
 40
0
 40
0
 40
0
 40
0
 40
1
 40
1
 40
1
 40
1
 10
14.899931
 20
11.395263
 30
0.0
 10
14.880008
 20
11.383761
 30
0.0
 10
14.855463
 20
11.383761
 30
0.0
 10
14.835540
 20
11.395263
 30
0.0
  0
SPLINE
  5
1cb
100
AcDbEntity
  8
cuts
 62
7
100
AcDbSpline
 70
8
 71
3
 72
8
 73
4
 74
0
 40
0
 40
0
 40
0
 40
0
 40
1
 40
1
 40
1
 40
1
 10
14.835540
 20
11.395263
 30
0.0
 10
14.815618
 20
11.406766
 30
0.0
 10
14.803345
 20
11.428023
 30
0.0
 10
14.803345
 20
11.451027
 30
0.0
  0
SPLINE
  5
1cc
100
AcDbEntity
  8
cuts
 62
7
100
AcDbSpline
 70
8
 71
3
 72
8
 73
4
 74
0
 40
0
 40
0
 40
0
 40
0
 40
1
 40
1
 40
1
 40
1
 10
14.803345
 20
11.451027
 30
0.0
 10
14.803345
 20
11.474032
 30
0.0
 10
14.815618
 20
11.495289
 30
0.0
 10
14.835540
 20
11.506791
 30
0.0
  0
SPLINE
  5
1cd
100
AcDbEntity
  8
cuts
 62
7
100
AcDbSpline
 70
8
 71
3
 72
8
 73
4
 74
0
 40
0
 40
0
 40
0
 40
0
 40
1
 40
1
 40
1
 40
1
 10
14.835540
 20
11.506791
 30
0.0
 10
14.855463
 20
11.518293
 30
0.0
 10
14.880008
 20
11.518293
 30
0.0
 10
14.899931
 20
11.506791
 30
0.0
  0
SPLINE
  5
1ce
100
AcDbEntity
  8
cuts
 62
7
100
AcDbSpline
 70
8
 71
3
 72
8
 73
4
 74
0
 40
0
 40
0
 40
0
 40
0
 40
1
 40
1
 40
1
 40
1
 10
14.899931
 20
11.506791
 30
0.0
 10
14.919853
 20
11.495289
 30
0.0
 10
14.932126
 20
11.474032
 30
0.0
 10
14.932126
 20
11.451027
 30
0.0
  0
LWPOLYLINE
  5
1cf
100
AcDbEntity
  8
cuts
 62
7
100
AcDbPolyline
 90
1
 70
1
 10
14.459511
 20
8.883421
 30
0.0
  0
SPLINE
  5
1d0
100
AcDbEntity
  8
cuts
 62
7
100
AcDbSpline
 70
8
 71
3
 72
8
 73
4
 74
0
 40
0
 40
0
 40
0
 40
0
 40
1
 40
1
 40
1
 40
1
 10
17.284782
 20
8.833440
 30
0.0
 10
17.284782
 20
8.810483
 30
0.0
 10
17.272534
 20
8.789269
 30
0.0
 10
17.252652
 20
8.777790
 30
0.0
  0
SPLINE
  5
1d1
100
AcDbEntity
  8
cuts
 62
7
100
AcDbSpline
 70
8
 71
3
 72
8
 73
4
 74
0
 40
0
 40
0
 40
0
 40
0
 40
1
 40
1
 40
1
 40
1
 10
17.252652
 20
8.777790
 30
0.0
 10
17.232770
 20
8.766311
 30
0.0
 10
17.208275
 20
8.766311
 30
0.0
 10
17.188393
 20
8.777790
 30
0.0
  0
SPLINE
  5
1d2
100
AcDbEntity
  8
cuts
 62
7
100
AcDbSpline
 70
8
 71
3
 72
8
 73
4
 74
0
 40
0
 40
0
 40
0
 40
0
 40
1
 40
1
 40
1
 40
1
 10
17.188393
 20
8.777790
 30
0.0
 10
17.168511
 20
8.789269
 30
0.0
 10
17.156263
 20
8.810483
 30
0.0
 10
17.156263
 20
8.833440
 30
0.0
  0
SPLINE
  5
1d3
100
AcDbEntity
  8
cuts
 62
7
100
AcDbSpline
 70
8
 71
3
 72
8
 73
4
 74
0
 40
0
 40
0
 40
0
 40
0
 40
1
 40
1
 40
1
 40
1
 10
17.156263
 20
8.833440
 30
0.0
 10
17.156263
 20
8.856398
 30
0.0
 10
17.168511
 20
8.877612
 30
0.0
 10
17.188393
 20
8.889090
 30
0.0
  0
SPLINE
  5
1d4
100
AcDbEntity
  8
cuts
 62
7
100
AcDbSpline
 70
8
 71
3
 72
8
 73
4
 74
0
 40
0
 40
0
 40
0
 40
0
 40
1
 40
1
 40
1
 40
1
 10
17.188393
 20
8.889090
 30
0.0
 10
17.208275
 20
8.900569
 30
0.0
 10
17.232770
 20
8.900569
 30
0.0
 10
17.252652
 20
8.889090
 30
0.0
  0
SPLINE
  5
1d5
100
AcDbEntity
  8
cuts
 62
7
100
AcDbSpline
 70
8
 71
3
 72
8
 73
4
 74
0
 40
0
 40
0
 40
0
 40
0
 40
1
 40
1
 40
1
 40
1
 10
17.252652
 20
8.889090
 30
0.0
 10
17.272534
 20
8.877612
 30
0.0
 10
17.284782
 20
8.856398
 30
0.0
 10
17.284782
 20
8.833440
 30
0.0
  0
LWPOLYLINE
  5
1d6
100
AcDbEntity
  8
cuts
 62
7
100
AcDbPolyline
 90
1
 70
1
 10
14.932126
 20
11.451027
 30
0.0
  0
SPLINE
  5
1d7
100
AcDbEntity
  8
cuts
 62
7
100
AcDbSpline
 70
8
 71
3
 72
8
 73
4
 74
0
 40
0
 40
0
 40
0
 40
0
 40
1
 40
1
 40
1
 40
1
 10
0.529521
 20
9.360552
 30
0.0
 10
0.529521
 20
9.337548
 30
0.0
 10
0.517248
 20
9.316291
 30
0.0
 10
0.497326
 20
9.304789
 30
0.0
  0
SPLINE
  5
1d8
100
AcDbEntity
  8
cuts
 62
7
100
AcDbSpline
 70
8
 71
3
 72
8
 73
4
 74
0
 40
0
 40
0
 40
0
 40
0
 40
1
 40
1
 40
1
 40
1
 10
0.497326
 20
9.304789
 30
0.0
 10
0.477403
 20
9.293286
 30
0.0
 10
0.452858
 20
9.293286
 30
0.0
 10
0.432935
 20
9.304789
 30
0.0
  0
SPLINE
  5
1d9
100
AcDbEntity
  8
cuts
 62
7
100
AcDbSpline
 70
8
 71
3
 72
8
 73
4
 74
0
 40
0
 40
0
 40
0
 40
0
 40
1
 40
1
 40
1
 40
1
 10
0.432935
 20
9.304789
 30
0.0
 10
0.413013
 20
9.316291
 30
0.0
 10
0.400740
 20
9.337548
 30
0.0
 10
0.400740
 20
9.360552
 30
0.0
  0
SPLINE
  5
1da
100
AcDbEntity
  8
cuts
 62
7
100
AcDbSpline
 70
8
 71
3
 72
8
 73
4
 74
0
 40
0
 40
0
 40
0
 40
0
 40
1
 40
1
 40
1
 40
1
 10
0.400740
 20
9.360552
 30
0.0
 10
0.400740
 20
9.383557
 30
0.0
 10
0.413013
 20
9.404814
 30
0.0
 10
0.432935
 20
9.416316
 30
0.0
  0
SPLINE
  5
1db
100
AcDbEntity
  8
cuts
 62
7
100
AcDbSpline
 70
8
 71
3
 72
8
 73
4
 74
0
 40
0
 40
0
 40
0
 40
0
 40
1
 40
1
 40
1
 40
1
 10
0.432935
 20
9.416316
 30
0.0
 10
0.452858
 20
9.427819
 30
0.0
 10
0.477403
 20
9.427819
 30
0.0
 10
0.497326
 20
9.416316
 30
0.0
  0
SPLINE
  5
1dc
100
AcDbEntity
  8
cuts
 62
7
100
AcDbSpline
 70
8
 71
3
 72
8
 73
4
 74
0
 40
0
 40
0
 40
0
 40
0
 40
1
 40
1
 40
1
 40
1
 10
0.497326
 20
9.416316
 30
0.0
 10
0.517248
 20
9.404814
 30
0.0
 10
0.529521
 20
9.383557
 30
0.0
 10
0.529521
 20
9.360552
 30
0.0
  0
LWPOLYLINE
  5
1dd
100
AcDbEntity
  8
cuts
 62
7
100
AcDbPolyline
 90
1
 70
1
 10
17.284782
 20
8.833440
 30
0.0
  0
SPLINE
  5
1de
100
AcDbEntity
  8
cuts
 62
7
100
AcDbSpline
 70
8
 71
3
 72
8
 73
4
 74
0
 40
0
 40
0
 40
0
 40
0
 40
1
 40
1
 40
1
 40
1
 10
2.311313
 20
7.064166
 30
0.0
 10
2.311313
 20
7.028677
 30
0.0
 10
2.282543
 20
6.999907
 30
0.0
 10
2.247054
 20
6.999907
 30
0.0
  0
SPLINE
  5
1df
100
AcDbEntity
  8
cuts
 62
7
100
AcDbSpline
 70
8
 71
3
 72
8
 73
4
 74
0
 40
0
 40
0
 40
0
 40
0
 40
1
 40
1
 40
1
 40
1
 10
2.247054
 20
6.999907
 30
0.0
 10
2.211565
 20
6.999907
 30
0.0
 10
2.182795
 20
7.028677
 30
0.0
 10
2.182795
 20
7.064166
 30
0.0
  0
SPLINE
  5
1e0
100
AcDbEntity
  8
cuts
 62
7
100
AcDbSpline
 70
8
 71
3
 72
8
 73
4
 74
0
 40
0
 40
0
 40
0
 40
0
 40
1
 40
1
 40
1
 40
1
 10
2.182795
 20
7.064166
 30
0.0
 10
2.182795
 20
7.099656
 30
0.0
 10
2.211565
 20
7.128426
 30
0.0
 10
2.247054
 20
7.128426
 30
0.0
  0
SPLINE
  5
1e1
100
AcDbEntity
  8
cuts
 62
7
100
AcDbSpline
 70
8
 71
3
 72
8
 73
4
 74
0
 40
0
 40
0
 40
0
 40
0
 40
1
 40
1
 40
1
 40
1
 10
2.247054
 20
7.128426
 30
0.0
 10
2.282543
 20
7.128426
 30
0.0
 10
2.311313
 20
7.099656
 30
0.0
 10
2.311313
 20
7.064166
 30
0.0
  0
LWPOLYLINE
  5
1e2
100
AcDbEntity
  8
cuts
 62
7
100
AcDbPolyline
 90
1
 70
1
 10
0.529521
 20
9.360552
 30
0.0
  0
SPLINE
  5
1e3
100
AcDbEntity
  8
cuts
 62
7
100
AcDbSpline
 70
8
 71
3
 72
8
 73
4
 74
0
 40
0
 40
0
 40
0
 40
0
 40
1
 40
1
 40
1
 40
1
 10
3.308539
 20
9.185701
 30
0.0
 10
3.308539
 20
9.162697
 30
0.0
 10
3.296266
 20
9.141440
 30
0.0
 10
3.276344
 20
9.129938
 30
0.0
  0
SPLINE
  5
1e4
100
AcDbEntity
  8
cuts
 62
7
100
AcDbSpline
 70
8
 71
3
 72
8
 73
4
 74
0
 40
0
 40
0
 40
0
 40
0
 40
1
 40
1
 40
1
 40
1
 10
3.276344
 20
9.129938
 30
0.0
 10
3.256421
 20
9.118435
 30
0.0
 10
3.231876
 20
9.118435
 30
0.0
 10
3.211953
 20
9.129938
 30
0.0
  0
SPLINE
  5
1e5
100
AcDbEntity
  8
cuts
 62
7
100
AcDbSpline
 70
8
 71
3
 72
8
 73
4
 74
0
 40
0
 40
0
 40
0
 40
0
 40
1
 40
1
 40
1
 40
1
 10
3.211953
 20
9.129938
 30
0.0
 10
3.192031
 20
9.141440
 30
0.0
 10
3.179758
 20
9.162697
 30
0.0
 10
3.179758
 20
9.185701
 30
0.0
  0
SPLINE
  5
1e6
100
AcDbEntity
  8
cuts
 62
7
100
AcDbSpline
 70
8
 71
3
 72
8
 73
4
 74
0
 40
0
 40
0
 40
0
 40
0
 40
1
 40
1
 40
1
 40
1
 10
3.179758
 20
9.185701
 30
0.0
 10
3.179758
 20
9.208706
 30
0.0
 10
3.192031
 20
9.229963
 30
0.0
 10
3.211953
 20
9.241465
 30
0.0
  0
SPLINE
  5
1e7
100
AcDbEntity
  8
cuts
 62
7
100
AcDbSpline
 70
8
 71
3
 72
8
 73
4
 74
0
 40
0
 40
0
 40
0
 40
0
 40
1
 40
1
 40
1
 40
1
 10
3.211953
 20
9.241465
 30
0.0
 10
3.231876
 20
9.252967
 30
0.0
 10
3.256421
 20
9.252967
 30
0.0
 10
3.276344
 20
9.241465
 30
0.0
  0
SPLINE
  5
1e8
100
AcDbEntity
  8
cuts
 62
7
100
AcDbSpline
 70
8
 71
3
 72
8
 73
4
 74
0
 40
0
 40
0
 40
0
 40
0
 40
1
 40
1
 40
1
 40
1
 10
3.276344
 20
9.241465
 30
0.0
 10
3.296266
 20
9.229963
 30
0.0
 10
3.308539
 20
9.208706
 30
0.0
 10
3.308539
 20
9.185701
 30
0.0
  0
LWPOLYLINE
  5
1e9
100
AcDbEntity
  8
cuts
 62
7
100
AcDbPolyline
 90
1
 70
1
 10
2.311313
 20
7.064166
 30
0.0
  0
SPLINE
  5
1ea
100
AcDbEntity
  8
cuts
 62
7
100
AcDbSpline
 70
8
 71
3
 72
8
 73
4
 74
0
 40
0
 40
0
 40
0
 40
0
 40
1
 40
1
 40
1
 40
1
 10
4.681105
 20
7.536636
 30
0.0
 10
4.681105
 20
7.513678
 30
0.0
 10
4.668857
 20
7.492465
 30
0.0
 10
4.648976
 20
7.480986
 30
0.0
  0
SPLINE
  5
1eb
100
AcDbEntity
  8
cuts
 62
7
100
AcDbSpline
 70
8
 71
3
 72
8
 73
4
 74
0
 40
0
 40
0
 40
0
 40
0
 40
1
 40
1
 40
1
 40
1
 10
4.648976
 20
7.480986
 30
0.0
 10
4.629094
 20
7.469507
 30
0.0
 10
4.604598
 20
7.469507
 30
0.0
 10
4.584716
 20
7.480986
 30
0.0
  0
SPLINE
  5
1ec
100
AcDbEntity
  8
cuts
 62
7
100
AcDbSpline
 70
8
 71
3
 72
8
 73
4
 74
0
 40
0
 40
0
 40
0
 40
0
 40
1
 40
1
 40
1
 40
1
 10
4.584716
 20
7.480986
 30
0.0
 10
4.564834
 20
7.492465
 30
0.0
 10
4.552587
 20
7.513678
 30
0.0
 10
4.552587
 20
7.536636
 30
0.0
  0
SPLINE
  5
1ed
100
AcDbEntity
  8
cuts
 62
7
100
AcDbSpline
 70
8
 71
3
 72
8
 73
4
 74
0
 40
0
 40
0
 40
0
 40
0
 40
1
 40
1
 40
1
 40
1
 10
4.552587
 20
7.536636
 30
0.0
 10
4.552587
 20
7.572125
 30
0.0
 10
4.581357
 20
7.600895
 30
0.0
 10
4.616846
 20
7.600895
 30
0.0
  0
SPLINE
  5
1ee
100
AcDbEntity
  8
cuts
 62
7
100
AcDbSpline
 70
8
 71
3
 72
8
 73
4
 74
0
 40
0
 40
0
 40
0
 40
0
 40
1
 40
1
 40
1
 40
1
 10
4.616846
 20
7.600895
 30
0.0
 10
4.652335
 20
7.600895
 30
0.0
 10
4.681105
 20
7.572125
 30
0.0
 10
4.681105
 20
7.536636
 30
0.0
  0
LWPOLYLINE
  5
1ef
100
AcDbEntity
  8
cuts
 62
7
100
AcDbPolyline
 90
1
 70
1
 10
3.308539
 20
9.185701
 30
0.0
  0
SPLINE
  5
1f0
100
AcDbEntity
  8
cuts
 62
7
100
AcDbSpline
 70
8
 71
3
 72
8
 73
4
 74
0
 40
0
 40
0
 40
0
 40
0
 40
1
 40
1
 40
1
 40
1
 10
5.637426
 20
9.081941
 30
0.0
 10
5.637426
 20
9.058936
 30
0.0
 10
5.625153
 20
9.037679
 30
0.0
 10
5.605231
 20
9.026177
 30
0.0
  0
SPLINE
  5
1f1
100
AcDbEntity
  8
cuts
 62
7
100
AcDbSpline
 70
8
 71
3
 72
8
 73
4
 74
0
 40
0
 40
0
 40
0
 40
0
 40
1
 40
1
 40
1
 40
1
 10
5.605231
 20
9.026177
 30
0.0
 10
5.585308
 20
9.014675
 30
0.0
 10
5.560763
 20
9.014675
 30
0.0
 10
5.540840
 20
9.026177
 30
0.0
  0
SPLINE
  5
1f2
100
AcDbEntity
  8
cuts
 62
7
100
AcDbSpline
 70
8
 71
3
 72
8
 73
4
 74
0
 40
0
 40
0
 40
0
 40
0
 40
1
 40
1
 40
1
 40
1
 10
5.540840
 20
9.026177
 30
0.0
 10
5.520918
 20
9.037679
 30
0.0
 10
5.508645
 20
9.058936
 30
0.0
 10
5.508645
 20
9.081941
 30
0.0
  0
SPLINE
  5
1f3
100
AcDbEntity
  8
cuts
 62
7
100
AcDbSpline
 70
8
 71
3
 72
8
 73
4
 74
0
 40
0
 40
0
 40
0
 40
0
 40
1
 40
1
 40
1
 40
1
 10
5.508645
 20
9.081941
 30
0.0
 10
5.508645
 20
9.104945
 30
0.0
 10
5.520918
 20
9.126203
 30
0.0
 10
5.540840
 20
9.137705
 30
0.0
  0
SPLINE
  5
1f4
100
AcDbEntity
  8
cuts
 62
7
100
AcDbSpline
 70
8
 71
3
 72
8
 73
4
 74
0
 40
0
 40
0
 40
0
 40
0
 40
1
 40
1
 40
1
 40
1
 10
5.540840
 20
9.137705
 30
0.0
 10
5.560763
 20
9.149207
 30
0.0
 10
5.585308
 20
9.149207
 30
0.0
 10
5.605231
 20
9.137705
 30
0.0
  0
SPLINE
  5
1f5
100
AcDbEntity
  8
cuts
 62
7
100
AcDbSpline
 70
8
 71
3
 72
8
 73
4
 74
0
 40
0
 40
0
 40
0
 40
0
 40
1
 40
1
 40
1
 40
1
 10
5.605231
 20
9.137705
 30
0.0
 10
5.625153
 20
9.126203
 30
0.0
 10
5.637426
 20
9.104945
 30
0.0
 10
5.637426
 20
9.081941
 30
0.0
  0
LWPOLYLINE
  5
1f6
100
AcDbEntity
  8
cuts
 62
7
100
AcDbPolyline
 90
1
 70
1
 10
4.681105
 20
7.536636
 30
0.0
  0
SPLINE
  5
1f7
100
AcDbEntity
  8
cuts
 62
7
100
AcDbSpline
 70
8
 71
3
 72
8
 73
4
 74
0
 40
0
 40
0
 40
0
 40
0
 40
1
 40
1
 40
1
 40
1
 10
6.895749
 20
7.099871
 30
0.0
 10
6.895749
 20
7.076913
 30
0.0
 10
6.883501
 20
7.055699
 30
0.0
 10
6.863620
 20
7.044220
 30
0.0
  0
SPLINE
  5
1f8
100
AcDbEntity
  8
cuts
 62
7
100
AcDbSpline
 70
8
 71
3
 72
8
 73
4
 74
0
 40
0
 40
0
 40
0
 40
0
 40
1
 40
1
 40
1
 40
1
 10
6.863620
 20
7.044220
 30
0.0
 10
6.843738
 20
7.032742
 30
0.0
 10
6.819242
 20
7.032742
 30
0.0
 10
6.799360
 20
7.044220
 30
0.0
  0
SPLINE
  5
1f9
100
AcDbEntity
  8
cuts
 62
7
100
AcDbSpline
 70
8
 71
3
 72
8
 73
4
 74
0
 40
0
 40
0
 40
0
 40
0
 40
1
 40
1
 40
1
 40
1
 10
6.799360
 20
7.044220
 30
0.0
 10
6.779478
 20
7.055699
 30
0.0
 10
6.767231
 20
7.076913
 30
0.0
 10
6.767231
 20
7.099871
 30
0.0
  0
SPLINE
  5
1fa
100
AcDbEntity
  8
cuts
 62
7
100
AcDbSpline
 70
8
 71
3
 72
8
 73
4
 74
0
 40
0
 40
0
 40
0
 40
0
 40
1
 40
1
 40
1
 40
1
 10
6.767231
 20
7.099871
 30
0.0
 10
6.767231
 20
7.135360
 30
0.0
 10
6.796001
 20
7.164130
 30
0.0
 10
6.831490
 20
7.164130
 30
0.0
  0
SPLINE
  5
1fb
100
AcDbEntity
  8
cuts
 62
7
100
AcDbSpline
 70
8
 71
3
 72
8
 73
4
 74
0
 40
0
 40
0
 40
0
 40
0
 40
1
 40
1
 40
1
 40
1
 10
6.831490
 20
7.164130
 30
0.0
 10
6.866979
 20
7.164130
 30
0.0
 10
6.895749
 20
7.135360
 30
0.0
 10
6.895749
 20
7.099871
 30
0.0
  0
LWPOLYLINE
  5
1fc
100
AcDbEntity
  8
cuts
 62
7
100
AcDbPolyline
 90
1
 70
1
 10
5.637426
 20
9.081941
 30
0.0
  0
SPLINE
  5
1fd
100
AcDbEntity
  8
cuts
 62
7
100
AcDbSpline
 70
8
 71
3
 72
8
 73
4
 74
0
 40
0
 40
0
 40
0
 40
0
 40
1
 40
1
 40
1
 40
1
 10
12.717157
 20
8.183815
 30
0.0
 10
12.717157
 20
8.160810
 30
0.0
 10
12.704884
 20
8.139553
 30
0.0
 10
12.684962
 20
8.128051
 30
0.0
  0
SPLINE
  5
1fe
100
AcDbEntity
  8
cuts
 62
7
100
AcDbSpline
 70
8
 71
3
 72
8
 73
4
 74
0
 40
0
 40
0
 40
0
 40
0
 40
1
 40
1
 40
1
 40
1
 10
12.684962
 20
8.128051
 30
0.0
 10
12.665039
 20
8.116549
 30
0.0
 10
12.640494
 20
8.116549
 30
0.0
 10
12.620571
 20
8.128051
 30
0.0
  0
SPLINE
  5
1ff
100
AcDbEntity
  8
cuts
 62
7
100
AcDbSpline
 70
8
 71
3
 72
8
 73
4
 74
0
 40
0
 40
0
 40
0
 40
0
 40
1
 40
1
 40
1
 40
1
 10
12.620571
 20
8.128051
 30
0.0
 10
12.600649
 20
8.139553
 30
0.0
 10
12.588376
 20
8.160810
 30
0.0
 10
12.588376
 20
8.183815
 30
0.0
  0
SPLINE
  5
200
100
AcDbEntity
  8
cuts
 62
7
100
AcDbSpline
 70
8
 71
3
 72
8
 73
4
 74
0
 40
0
 40
0
 40
0
 40
0
 40
1
 40
1
 40
1
 40
1
 10
12.588376
 20
8.183815
 30
0.0
 10
12.588376
 20
8.206819
 30
0.0
 10
12.600649
 20
8.228077
 30
0.0
 10
12.620571
 20
8.239579
 30
0.0
  0
SPLINE
  5
201
100
AcDbEntity
  8
cuts
 62
7
100
AcDbSpline
 70
8
 71
3
 72
8
 73
4
 74
0
 40
0
 40
0
 40
0
 40
0
 40
1
 40
1
 40
1
 40
1
 10
12.620571
 20
8.239579
 30
0.0
 10
12.640494
 20
8.251081
 30
0.0
 10
12.665039
 20
8.251081
 30
0.0
 10
12.684962
 20
8.239579
 30
0.0
  0
SPLINE
  5
202
100
AcDbEntity
  8
cuts
 62
7
100
AcDbSpline
 70
8
 71
3
 72
8
 73
4
 74
0
 40
0
 40
0
 40
0
 40
0
 40
1
 40
1
 40
1
 40
1
 10
12.684962
 20
8.239579
 30
0.0
 10
12.704884
 20
8.228077
 30
0.0
 10
12.717157
 20
8.206819
 30
0.0
 10
12.717157
 20
8.183815
 30
0.0
  0
LWPOLYLINE
  5
203
100
AcDbEntity
  8
cuts
 62
7
100
AcDbPolyline
 90
1
 70
1
 10
6.895749
 20
7.099871
 30
0.0
  0
SPLINE
  5
204
100
AcDbEntity
  8
cuts
 62
7
100
AcDbSpline
 70
8
 71
3
 72
8
 73
4
 74
0
 40
0
 40
0
 40
0
 40
0
 40
1
 40
1
 40
1
 40
1
 10
16.695526
 20
5.421545
 30
0.0
 10
16.695526
 20
5.398587
 30
0.0
 10
16.683279
 20
5.377373
 30
0.0
 10
16.663397
 20
5.365895
 30
0.0
  0
SPLINE
  5
205
100
AcDbEntity
  8
cuts
 62
7
100
AcDbSpline
 70
8
 71
3
 72
8
 73
4
 74
0
 40
0
 40
0
 40
0
 40
0
 40
1
 40
1
 40
1
 40
1
 10
16.663397
 20
5.365895
 30
0.0
 10
16.643515
 20
5.354416
 30
0.0
 10
16.619019
 20
5.354416
 30
0.0
 10
16.599138
 20
5.365895
 30
0.0
  0
SPLINE
  5
206
100
AcDbEntity
  8
cuts
 62
7
100
AcDbSpline
 70
8
 71
3
 72
8
 73
4
 74
0
 40
0
 40
0
 40
0
 40
0
 40
1
 40
1
 40
1
 40
1
 10
16.599138
 20
5.365895
 30
0.0
 10
16.579256
 20
5.377373
 30
0.0
 10
16.567008
 20
5.398587
 30
0.0
 10
16.567008
 20
5.421545
 30
0.0
  0
SPLINE
  5
207
100
AcDbEntity
  8
cuts
 62
7
100
AcDbSpline
 70
8
 71
3
 72
8
 73
4
 74
0
 40
0
 40
0
 40
0
 40
0
 40
1
 40
1
 40
1
 40
1
 10
16.567008
 20
5.421545
 30
0.0
 10
16.567008
 20
5.444502
 30
0.0
 10
16.579256
 20
5.465716
 30
0.0
 10
16.599138
 20
5.477195
 30
0.0
  0
SPLINE
  5
208
100
AcDbEntity
  8
cuts
 62
7
100
AcDbSpline
 70
8
 71
3
 72
8
 73
4
 74
0
 40
0
 40
0
 40
0
 40
0
 40
1
 40
1
 40
1
 40
1
 10
16.599138
 20
5.477195
 30
0.0
 10
16.619019
 20
5.488674
 30
0.0
 10
16.643515
 20
5.488674
 30
0.0
 10
16.663397
 20
5.477195
 30
0.0
  0
SPLINE
  5
209
100
AcDbEntity
  8
cuts
 62
7
100
AcDbSpline
 70
8
 71
3
 72
8
 73
4
 74
0
 40
0
 40
0
 40
0
 40
0
 40
1
 40
1
 40
1
 40
1
 10
16.663397
 20
5.477195
 30
0.0
 10
16.683279
 20
5.465716
 30
0.0
 10
16.695526
 20
5.444502
 30
0.0
 10
16.695526
 20
5.421545
 30
0.0
  0
LWPOLYLINE
  5
20a
100
AcDbEntity
  8
cuts
 62
7
100
AcDbPolyline
 90
1
 70
1
 10
12.717157
 20
8.183815
 30
0.0
  0
SPLINE
  5
20b
100
AcDbEntity
  8
cuts
 62
7
100
AcDbSpline
 70
8
 71
3
 72
8
 73
4
 74
0
 40
0
 40
0
 40
0
 40
0
 40
1
 40
1
 40
1
 40
1
 10
1.158241
 20
6.581535
 30
0.0
 10
1.158241
 20
6.558530
 30
0.0
 10
1.145969
 20
6.537273
 30
0.0
 10
1.126046
 20
6.525771
 30
0.0
  0
SPLINE
  5
20c
100
AcDbEntity
  8
cuts
 62
7
100
AcDbSpline
 70
8
 71
3
 72
8
 73
4
 74
0
 40
0
 40
0
 40
0
 40
0
 40
1
 40
1
 40
1
 40
1
 10
1.126046
 20
6.525771
 30
0.0
 10
1.106124
 20
6.514269
 30
0.0
 10
1.081578
 20
6.514269
 30
0.0
 10
1.061656
 20
6.525771
 30
0.0
  0
SPLINE
  5
20d
100
AcDbEntity
  8
cuts
 62
7
100
AcDbSpline
 70
8
 71
3
 72
8
 73
4
 74
0
 40
0
 40
0
 40
0
 40
0
 40
1
 40
1
 40
1
 40
1
 10
1.061656
 20
6.525771
 30
0.0
 10
1.041733
 20
6.537273
 30
0.0
 10
1.029460
 20
6.558530
 30
0.0
 10
1.029460
 20
6.581535
 30
0.0
  0
SPLINE
  5
20e
100
AcDbEntity
  8
cuts
 62
7
100
AcDbSpline
 70
8
 71
3
 72
8
 73
4
 74
0
 40
0
 40
0
 40
0
 40
0
 40
1
 40
1
 40
1
 40
1
 10
1.029460
 20
6.581535
 30
0.0
 10
1.029460
 20
6.604539
 30
0.0
 10
1.041733
 20
6.625796
 30
0.0
 10
1.061656
 20
6.637299
 30
0.0
  0
SPLINE
  5
20f
100
AcDbEntity
  8
cuts
 62
7
100
AcDbSpline
 70
8
 71
3
 72
8
 73
4
 74
0
 40
0
 40
0
 40
0
 40
0
 40
1
 40
1
 40
1
 40
1
 10
1.061656
 20
6.637299
 30
0.0
 10
1.081578
 20
6.648801
 30
0.0
 10
1.106124
 20
6.648801
 30
0.0
 10
1.126046
 20
6.637299
 30
0.0
  0
SPLINE
  5
210
100
AcDbEntity
  8
cuts
 62
7
100
AcDbSpline
 70
8
 71
3
 72
8
 73
4
 74
0
 40
0
 40
0
 40
0
 40
0
 40
1
 40
1
 40
1
 40
1
 10
1.126046
 20
6.637299
 30
0.0
 10
1.145969
 20
6.625796
 30
0.0
 10
1.158241
 20
6.604539
 30
0.0
 10
1.158241
 20
6.581535
 30
0.0
  0
LWPOLYLINE
  5
211
100
AcDbEntity
  8
cuts
 62
7
100
AcDbPolyline
 90
1
 70
1
 10
16.695526
 20
5.421545
 30
0.0
  0
SPLINE
  5
212
100
AcDbEntity
  8
cuts
 62
7
100
AcDbSpline
 70
8
 71
3
 72
8
 73
4
 74
0
 40
0
 40
0
 40
0
 40
0
 40
1
 40
1
 40
1
 40
1
 10
3.189290
 20
5.520267
 30
0.0
 10
3.189290
 20
5.497309
 30
0.0
 10
3.177042
 20
5.476095
 30
0.0
 10
3.157160
 20
5.464617
 30
0.0
  0
SPLINE
  5
213
100
AcDbEntity
  8
cuts
 62
7
100
AcDbSpline
 70
8
 71
3
 72
8
 73
4
 74
0
 40
0
 40
0
 40
0
 40
0
 40
1
 40
1
 40
1
 40
1
 10
3.157160
 20
5.464617
 30
0.0
 10
3.137278
 20
5.453138
 30
0.0
 10
3.112783
 20
5.453138
 30
0.0
 10
3.092901
 20
5.464617
 30
0.0
  0
SPLINE
  5
214
100
AcDbEntity
  8
cuts
 62
7
100
AcDbSpline
 70
8
 71
3
 72
8
 73
4
 74
0
 40
0
 40
0
 40
0
 40
0
 40
1
 40
1
 40
1
 40
1
 10
3.092901
 20
5.464617
 30
0.0
 10
3.073019
 20
5.476095
 30
0.0
 10
3.060771
 20
5.497309
 30
0.0
 10
3.060771
 20
5.520267
 30
0.0
  0
SPLINE
  5
215
100
AcDbEntity
  8
cuts
 62
7
100
AcDbSpline
 70
8
 71
3
 72
8
 73
4
 74
0
 40
0
 40
0
 40
0
 40
0
 40
1
 40
1
 40
1
 40
1
 10
3.060771
 20
5.520267
 30
0.0
 10
3.060771
 20
5.543224
 30
0.0
 10
3.073019
 20
5.564438
 30
0.0
 10
3.092901
 20
5.575917
 30
0.0
  0
SPLINE
  5
216
100
AcDbEntity
  8
cuts
 62
7
100
AcDbSpline
 70
8
 71
3
 72
8
 73
4
 74
0
 40
0
 40
0
 40
0
 40
0
 40
1
 40
1
 40
1
 40
1
 10
3.092901
 20
5.575917
 30
0.0
 10
3.112783
 20
5.587396
 30
0.0
 10
3.137278
 20
5.587396
 30
0.0
 10
3.157160
 20
5.575917
 30
0.0
  0
SPLINE
  5
217
100
AcDbEntity
  8
cuts
 62
7
100
AcDbSpline
 70
8
 71
3
 72
8
 73
4
 74
0
 40
0
 40
0
 40
0
 40
0
 40
1
 40
1
 40
1
 40
1
 10
3.157160
 20
5.575917
 30
0.0
 10
3.177042
 20
5.564438
 30
0.0
 10
3.189290
 20
5.543224
 30
0.0
 10
3.189290
 20
5.520267
 30
0.0
  0
LWPOLYLINE
  5
218
100
AcDbEntity
  8
cuts
 62
7
100
AcDbPolyline
 90
1
 70
1
 10
1.158241
 20
6.581535
 30
0.0
  0
SPLINE
  5
219
100
AcDbEntity
  8
cuts
 62
7
100
AcDbSpline
 70
8
 71
3
 72
8
 73
4
 74
0
 40
0
 40
0
 40
0
 40
0
 40
1
 40
1
 40
1
 40
1
 10
1.098718
 20
5.045076
 30
0.0
 10
1.098718
 20
5.022072
 30
0.0
 10
1.086445
 20
5.000815
 30
0.0
 10
1.066522
 20
4.989312
 30
0.0
  0
SPLINE
  5
21a
100
AcDbEntity
  8
cuts
 62
7
100
AcDbSpline
 70
8
 71
3
 72
8
 73
4
 74
0
 40
0
 40
0
 40
0
 40
0
 40
1
 40
1
 40
1
 40
1
 10
1.066522
 20
4.989312
 30
0.0
 10
1.046600
 20
4.977810
 30
0.0
 10
1.022054
 20
4.977810
 30
0.0
 10
1.002132
 20
4.989312
 30
0.0
  0
SPLINE
  5
21b
100
AcDbEntity
  8
cuts
 62
7
100
AcDbSpline
 70
8
 71
3
 72
8
 73
4
 74
0
 40
0
 40
0
 40
0
 40
0
 40
1
 40
1
 40
1
 40
1
 10
1.002132
 20
4.989312
 30
0.0
 10
0.982209
 20
5.000815
 30
0.0
 10
0.969937
 20
5.022072
 30
0.0
 10
0.969937
 20
5.045076
 30
0.0
  0
SPLINE
  5
21c
100
AcDbEntity
  8
cuts
 62
7
100
AcDbSpline
 70
8
 71
3
 72
8
 73
4
 74
0
 40
0
 40
0
 40
0
 40
0
 40
1
 40
1
 40
1
 40
1
 10
0.969937
 20
5.045076
 30
0.0
 10
0.969937
 20
5.068081
 30
0.0
 10
0.982209
 20
5.089338
 30
0.0
 10
1.002132
 20
5.100840
 30
0.0
  0
SPLINE
  5
21d
100
AcDbEntity
  8
cuts
 62
7
100
AcDbSpline
 70
8
 71
3
 72
8
 73
4
 74
0
 40
0
 40
0
 40
0
 40
0
 40
1
 40
1
 40
1
 40
1
 10
1.002132
 20
5.100840
 30
0.0
 10
1.022054
 20
5.112342
 30
0.0
 10
1.046600
 20
5.112342
 30
0.0
 10
1.066522
 20
5.100840
 30
0.0
  0
SPLINE
  5
21e
100
AcDbEntity
  8
cuts
 62
7
100
AcDbSpline
 70
8
 71
3
 72
8
 73
4
 74
0
 40
0
 40
0
 40
0
 40
0
 40
1
 40
1
 40
1
 40
1
 10
1.066522
 20
5.100840
 30
0.0
 10
1.086445
 20
5.089338
 30
0.0
 10
1.098718
 20
5.068081
 30
0.0
 10
1.098718
 20
5.045076
 30
0.0
  0
LWPOLYLINE
  5
21f
100
AcDbEntity
  8
cuts
 62
7
100
AcDbPolyline
 90
1
 70
1
 10
3.189290
 20
5.520267
 30
0.0
  0
SPLINE
  5
220
100
AcDbEntity
  8
cuts
 62
7
100
AcDbSpline
 70
8
 71
3
 72
8
 73
4
 74
0
 40
0
 40
0
 40
0
 40
0
 40
1
 40
1
 40
1
 40
1
 10
3.736164
 20
3.816398
 30
0.0
 10
3.736164
 20
3.793440
 30
0.0
 10
3.723917
 20
3.772226
 30
0.0
 10
3.704035
 20
3.760747
 30
0.0
  0
SPLINE
  5
221
100
AcDbEntity
  8
cuts
 62
7
100
AcDbSpline
 70
8
 71
3
 72
8
 73
4
 74
0
 40
0
 40
0
 40
0
 40
0
 40
1
 40
1
 40
1
 40
1
 10
3.704035
 20
3.760747
 30
0.0
 10
3.684153
 20
3.749269
 30
0.0
 10
3.659657
 20
3.749269
 30
0.0
 10
3.639776
 20
3.760747
 30
0.0
  0
SPLINE
  5
222
100
AcDbEntity
  8
cuts
 62
7
100
AcDbSpline
 70
8
 71
3
 72
8
 73
4
 74
0
 40
0
 40
0
 40
0
 40
0
 40
1
 40
1
 40
1
 40
1
 10
3.639776
 20
3.760747
 30
0.0
 10
3.619894
 20
3.772226
 30
0.0
 10
3.607646
 20
3.793440
 30
0.0
 10
3.607646
 20
3.816398
 30
0.0
  0
SPLINE
  5
223
100
AcDbEntity
  8
cuts
 62
7
100
AcDbSpline
 70
8
 71
3
 72
8
 73
4
 74
0
 40
0
 40
0
 40
0
 40
0
 40
1
 40
1
 40
1
 40
1
 10
3.607646
 20
3.816398
 30
0.0
 10
3.607646
 20
3.851887
 30
0.0
 10
3.636416
 20
3.880657
 30
0.0
 10
3.671905
 20
3.880657
 30
0.0
  0
SPLINE
  5
224
100
AcDbEntity
  8
cuts
 62
7
100
AcDbSpline
 70
8
 71
3
 72
8
 73
4
 74
0
 40
0
 40
0
 40
0
 40
0
 40
1
 40
1
 40
1
 40
1
 10
3.671905
 20
3.880657
 30
0.0
 10
3.707395
 20
3.880657
 30
0.0
 10
3.736164
 20
3.851887
 30
0.0
 10
3.736164
 20
3.816398
 30
0.0
  0
LWPOLYLINE
  5
225
100
AcDbEntity
  8
cuts
 62
7
100
AcDbPolyline
 90
1
 70
1
 10
1.098718
 20
5.045076
 30
0.0
  0
SPLINE
  5
226
100
AcDbEntity
  8
cuts
 62
7
100
AcDbSpline
 70
8
 71
3
 72
8
 73
4
 74
0
 40
0
 40
0
 40
0
 40
0
 40
1
 40
1
 40
1
 40
1
 10
5.629967
 20
6.455047
 30
0.0
 10
5.629967
 20
6.432042
 30
0.0
 10
5.617695
 20
6.410785
 30
0.0
 10
5.597772
 20
6.399283
 30
0.0
  0
SPLINE
  5
227
100
AcDbEntity
  8
cuts
 62
7
100
AcDbSpline
 70
8
 71
3
 72
8
 73
4
 74
0
 40
0
 40
0
 40
0
 40
0
 40
1
 40
1
 40
1
 40
1
 10
5.597772
 20
6.399283
 30
0.0
 10
5.577850
 20
6.387781
 30
0.0
 10
5.553304
 20
6.387781
 30
0.0
 10
5.533382
 20
6.399283
 30
0.0
  0
SPLINE
  5
228
100
AcDbEntity
  8
cuts
 62
7
100
AcDbSpline
 70
8
 71
3
 72
8
 73
4
 74
0
 40
0
 40
0
 40
0
 40
0
 40
1
 40
1
 40
1
 40
1
 10
5.533382
 20
6.399283
 30
0.0
 10
5.513459
 20
6.410785
 30
0.0
 10
5.501186
 20
6.432042
 30
0.0
 10
5.501186
 20
6.455047
 30
0.0
  0
SPLINE
  5
229
100
AcDbEntity
  8
cuts
 62
7
100
AcDbSpline
 70
8
 71
3
 72
8
 73
4
 74
0
 40
0
 40
0
 40
0
 40
0
 40
1
 40
1
 40
1
 40
1
 10
5.501186
 20
6.455047
 30
0.0
 10
5.501186
 20
6.478051
 30
0.0
 10
5.513459
 20
6.499308
 30
0.0
 10
5.533382
 20
6.510810
 30
0.0
  0
SPLINE
  5
22a
100
AcDbEntity
  8
cuts
 62
7
100
AcDbSpline
 70
8
 71
3
 72
8
 73
4
 74
0
 40
0
 40
0
 40
0
 40
0
 40
1
 40
1
 40
1
 40
1
 10
5.533382
 20
6.510810
 30
0.0
 10
5.553304
 20
6.522313
 30
0.0
 10
5.577850
 20
6.522313
 30
0.0
 10
5.597772
 20
6.510810
 30
0.0
  0
SPLINE
  5
22b
100
AcDbEntity
  8
cuts
 62
7
100
AcDbSpline
 70
8
 71
3
 72
8
 73
4
 74
0
 40
0
 40
0
 40
0
 40
0
 40
1
 40
1
 40
1
 40
1
 10
5.597772
 20
6.510810
 30
0.0
 10
5.617695
 20
6.499308
 30
0.0
 10
5.629967
 20
6.478051
 30
0.0
 10
5.629967
 20
6.455047
 30
0.0
  0
LWPOLYLINE
  5
22c
100
AcDbEntity
  8
cuts
 62
7
100
AcDbPolyline
 90
1
 70
1
 10
3.736164
 20
3.816398
 30
0.0
  0
SPLINE
  5
22d
100
AcDbEntity
  8
cuts
 62
7
100
AcDbSpline
 70
8
 71
3
 72
8
 73
4
 74
0
 40
0
 40
0
 40
0
 40
0
 40
1
 40
1
 40
1
 40
1
 10
7.482444
 20
4.672053
 30
0.0
 10
7.482444
 20
4.649095
 30
0.0
 10
7.470197
 20
4.627882
 30
0.0
 10
7.450315
 20
4.616403
 30
0.0
  0
SPLINE
  5
22e
100
AcDbEntity
  8
cuts
 62
7
100
AcDbSpline
 70
8
 71
3
 72
8
 73
4
 74
0
 40
0
 40
0
 40
0
 40
0
 40
1
 40
1
 40
1
 40
1
 10
7.450315
 20
4.616403
 30
0.0
 10
7.430433
 20
4.604924
 30
0.0
 10
7.405937
 20
4.604924
 30
0.0
 10
7.386056
 20
4.616403
 30
0.0
  0
SPLINE
  5
22f
100
AcDbEntity
  8
cuts
 62
7
100
AcDbSpline
 70
8
 71
3
 72
8
 73
4
 74
0
 40
0
 40
0
 40
0
 40
0
 40
1
 40
1
 40
1
 40
1
 10
7.386056
 20
4.616403
 30
0.0
 10
7.366174
 20
4.627882
 30
0.0
 10
7.353926
 20
4.649095
 30
0.0
 10
7.353926
 20
4.672053
 30
0.0
  0
SPLINE
  5
230
100
AcDbEntity
  8
cuts
 62
7
100
AcDbSpline
 70
8
 71
3
 72
8
 73
4
 74
0
 40
0
 40
0
 40
0
 40
0
 40
1
 40
1
 40
1
 40
1
 10
7.353926
 20
4.672053
 30
0.0
 10
7.353926
 20
4.695011
 30
0.0
 10
7.366174
 20
4.716224
 30
0.0
 10
7.386056
 20
4.727703
 30
0.0
  0
SPLINE
  5
231
100
AcDbEntity
  8
cuts
 62
7
100
AcDbSpline
 70
8
 71
3
 72
8
 73
4
 74
0
 40
0
 40
0
 40
0
 40
0
 40
1
 40
1
 40
1
 40
1
 10
7.386056
 20
4.727703
 30
0.0
 10
7.405937
 20
4.739182
 30
0.0
 10
7.430433
 20
4.739182
 30
0.0
 10
7.450315
 20
4.727703
 30
0.0
  0
SPLINE
  5
232
100
AcDbEntity
  8
cuts
 62
7
100
AcDbSpline
 70
8
 71
3
 72
8
 73
4
 74
0
 40
0
 40
0
 40
0
 40
0
 40
1
 40
1
 40
1
 40
1
 10
7.450315
 20
4.727703
 30
0.0
 10
7.470197
 20
4.716224
 30
0.0
 10
7.482444
 20
4.695011
 30
0.0
 10
7.482444
 20
4.672053
 30
0.0
  0
LWPOLYLINE
  5
233
100
AcDbEntity
  8
cuts
 62
7
100
AcDbPolyline
 90
1
 70
1
 10
5.629967
 20
6.455047
 30
0.0
  0
SPLINE
  5
234
100
AcDbEntity
  8
cuts
 62
7
100
AcDbSpline
 70
8
 71
3
 72
8
 73
4
 74
0
 40
0
 40
0
 40
0
 40
0
 40
1
 40
1
 40
1
 40
1
 10
0.711073
 20
3.269844
 30
0.0
 10
0.711073
 20
3.246839
 30
0.0
 10
0.698800
 20
3.225582
 30
0.0
 10
0.678878
 20
3.214080
 30
0.0
  0
SPLINE
  5
235
100
AcDbEntity
  8
cuts
 62
7
100
AcDbSpline
 70
8
 71
3
 72
8
 73
4
 74
0
 40
0
 40
0
 40
0
 40
0
 40
1
 40
1
 40
1
 40
1
 10
0.678878
 20
3.214080
 30
0.0
 10
0.658955
 20
3.202578
 30
0.0
 10
0.634410
 20
3.202578
 30
0.0
 10
0.614487
 20
3.214080
 30
0.0
  0
SPLINE
  5
236
100
AcDbEntity
  8
cuts
 62
7
100
AcDbSpline
 70
8
 71
3
 72
8
 73
4
 74
0
 40
0
 40
0
 40
0
 40
0
 40
1
 40
1
 40
1
 40
1
 10
0.614487
 20
3.214080
 30
0.0
 10
0.594565
 20
3.225582
 30
0.0
 10
0.582292
 20
3.246839
 30
0.0
 10
0.582292
 20
3.269844
 30
0.0
  0
SPLINE
  5
237
100
AcDbEntity
  8
cuts
 62
7
100
AcDbSpline
 70
8
 71
3
 72
8
 73
4
 74
0
 40
0
 40
0
 40
0
 40
0
 40
1
 40
1
 40
1
 40
1
 10
0.582292
 20
3.269844
 30
0.0
 10
0.582292
 20
3.292848
 30
0.0
 10
0.594565
 20
3.314105
 30
0.0
 10
0.614487
 20
3.325607
 30
0.0
  0
SPLINE
  5
238
100
AcDbEntity
  8
cuts
 62
7
100
AcDbSpline
 70
8
 71
3
 72
8
 73
4
 74
0
 40
0
 40
0
 40
0
 40
0
 40
1
 40
1
 40
1
 40
1
 10
0.614487
 20
3.325607
 30
0.0
 10
0.634410
 20
3.337110
 30
0.0
 10
0.658955
 20
3.337110
 30
0.0
 10
0.678878
 20
3.325607
 30
0.0
  0
SPLINE
  5
239
100
AcDbEntity
  8
cuts
 62
7
100
AcDbSpline
 70
8
 71
3
 72
8
 73
4
 74
0
 40
0
 40
0
 40
0
 40
0
 40
1
 40
1
 40
1
 40
1
 10
0.678878
 20
3.325607
 30
0.0
 10
0.698800
 20
3.314105
 30
0.0
 10
0.711073
 20
3.292848
 30
0.0
 10
0.711073
 20
3.269844
 30
0.0
  0
LWPOLYLINE
  5
23a
100
AcDbEntity
  8
cuts
 62
7
100
AcDbPolyline
 90
1
 70
1
 10
7.482444
 20
4.672053
 30
0.0
  0
SPLINE
  5
23b
100
AcDbEntity
  8
cuts
 62
7
100
AcDbSpline
 70
8
 71
3
 72
8
 73
4
 74
0
 40
0
 40
0
 40
0
 40
0
 40
1
 40
1
 40
1
 40
1
 10
3.135945
 20
0.753317
 30
0.0
 10
3.135945
 20
0.730360
 30
0.0
 10
3.123698
 20
0.709146
 30
0.0
 10
3.103816
 20
0.697667
 30
0.0
  0
SPLINE
  5
23c
100
AcDbEntity
  8
cuts
 62
7
100
AcDbSpline
 70
8
 71
3
 72
8
 73
4
 74
0
 40
0
 40
0
 40
0
 40
0
 40
1
 40
1
 40
1
 40
1
 10
3.103816
 20
0.697667
 30
0.0
 10
3.083934
 20
0.686188
 30
0.0
 10
3.059438
 20
0.686188
 30
0.0
 10
3.039556
 20
0.697667
 30
0.0
  0
SPLINE
  5
23d
100
AcDbEntity
  8
cuts
 62
7
100
AcDbSpline
 70
8
 71
3
 72
8
 73
4
 74
0
 40
0
 40
0
 40
0
 40
0
 40
1
 40
1
 40
1
 40
1
 10
3.039556
 20
0.697667
 30
0.0
 10
3.019675
 20
0.709146
 30
0.0
 10
3.007427
 20
0.730360
 30
0.0
 10
3.007427
 20
0.753317
 30
0.0
  0
SPLINE
  5
23e
100
AcDbEntity
  8
cuts
 62
7
100
AcDbSpline
 70
8
 71
3
 72
8
 73
4
 74
0
 40
0
 40
0
 40
0
 40
0
 40
1
 40
1
 40
1
 40
1
 10
3.007427
 20
0.753317
 30
0.0
 10
3.007427
 20
0.788807
 30
0.0
 10
3.036197
 20
0.817577
 30
0.0
 10
3.071686
 20
0.817577
 30
0.0
  0
SPLINE
  5
23f
100
AcDbEntity
  8
cuts
 62
7
100
AcDbSpline
 70
8
 71
3
 72
8
 73
4
 74
0
 40
0
 40
0
 40
0
 40
0
 40
1
 40
1
 40
1
 40
1
 10
3.071686
 20
0.817577
 30
0.0
 10
3.107175
 20
0.817577
 30
0.0
 10
3.135945
 20
0.788807
 30
0.0
 10
3.135945
 20
0.753317
 30
0.0
  0
LWPOLYLINE
  5
240
100
AcDbEntity
  8
cuts
 62
7
100
AcDbPolyline
 90
1
 70
1
 10
0.711073
 20
3.269844
 30
0.0
  0
SPLINE
  5
241
100
AcDbEntity
  8
cuts
 62
7
100
AcDbSpline
 70
8
 71
3
 72
8
 73
4
 74
0
 40
0
 40
0
 40
0
 40
0
 40
1
 40
1
 40
1
 40
1
 10
4.551757
 20
4.137944
 30
0.0
 10
4.551757
 20
4.114939
 30
0.0
 10
4.539485
 20
4.093682
 30
0.0
 10
4.519562
 20
4.082180
 30
0.0
  0
SPLINE
  5
242
100
AcDbEntity
  8
cuts
 62
7
100
AcDbSpline
 70
8
 71
3
 72
8
 73
4
 74
0
 40
0
 40
0
 40
0
 40
0
 40
1
 40
1
 40
1
 40
1
 10
4.519562
 20
4.082180
 30
0.0
 10
4.499640
 20
4.070678
 30
0.0
 10
4.475094
 20
4.070678
 30
0.0
 10
4.455172
 20
4.082180
 30
0.0
  0
SPLINE
  5
243
100
AcDbEntity
  8
cuts
 62
7
100
AcDbSpline
 70
8
 71
3
 72
8
 73
4
 74
0
 40
0
 40
0
 40
0
 40
0
 40
1
 40
1
 40
1
 40
1
 10
4.455172
 20
4.082180
 30
0.0
 10
4.435249
 20
4.093682
 30
0.0
 10
4.422976
 20
4.114939
 30
0.0
 10
4.422976
 20
4.137944
 30
0.0
  0
SPLINE
  5
244
100
AcDbEntity
  8
cuts
 62
7
100
AcDbSpline
 70
8
 71
3
 72
8
 73
4
 74
0
 40
0
 40
0
 40
0
 40
0
 40
1
 40
1
 40
1
 40
1
 10
4.422976
 20
4.137944
 30
0.0
 10
4.422976
 20
4.160948
 30
0.0
 10
4.435249
 20
4.182205
 30
0.0
 10
4.455172
 20
4.193707
 30
0.0
  0
SPLINE
  5
245
100
AcDbEntity
  8
cuts
 62
7
100
AcDbSpline
 70
8
 71
3
 72
8
 73
4
 74
0
 40
0
 40
0
 40
0
 40
0
 40
1
 40
1
 40
1
 40
1
 10
4.455172
 20
4.193707
 30
0.0
 10
4.475094
 20
4.205210
 30
0.0
 10
4.499640
 20
4.205210
 30
0.0
 10
4.519562
 20
4.193707
 30
0.0
  0
SPLINE
  5
246
100
AcDbEntity
  8
cuts
 62
7
100
AcDbSpline
 70
8
 71
3
 72
8
 73
4
 74
0
 40
0
 40
0
 40
0
 40
0
 40
1
 40
1
 40
1
 40
1
 10
4.519562
 20
4.193707
 30
0.0
 10
4.539485
 20
4.182205
 30
0.0
 10
4.551757
 20
4.160948
 30
0.0
 10
4.551757
 20
4.137944
 30
0.0
  0
LWPOLYLINE
  5
247
100
AcDbEntity
  8
cuts
 62
7
100
AcDbPolyline
 90
1
 70
1
 10
3.135945
 20
0.753317
 30
0.0
  0
SPLINE
  5
248
100
AcDbEntity
  8
cuts
 62
7
100
AcDbSpline
 70
8
 71
3
 72
8
 73
4
 74
0
 40
0
 40
0
 40
0
 40
0
 40
1
 40
1
 40
1
 40
1
 10
8.740575
 20
1.270448
 30
0.0
 10
8.740575
 20
1.247491
 30
0.0
 10
8.728327
 20
1.226277
 30
0.0
 10
8.708445
 20
1.214798
 30
0.0
  0
SPLINE
  5
249
100
AcDbEntity
  8
cuts
 62
7
100
AcDbSpline
 70
8
 71
3
 72
8
 73
4
 74
0
 40
0
 40
0
 40
0
 40
0
 40
1
 40
1
 40
1
 40
1
 10
8.708445
 20
1.214798
 30
0.0
 10
8.688563
 20
1.203319
 30
0.0
 10
8.664068
 20
1.203319
 30
0.0
 10
8.644186
 20
1.214798
 30
0.0
  0
SPLINE
  5
24a
100
AcDbEntity
  8
cuts
 62
7
100
AcDbSpline
 70
8
 71
3
 72
8
 73
4
 74
0
 40
0
 40
0
 40
0
 40
0
 40
1
 40
1
 40
1
 40
1
 10
8.644186
 20
1.214798
 30
0.0
 10
8.624304
 20
1.226277
 30
0.0
 10
8.612056
 20
1.247491
 30
0.0
 10
8.612056
 20
1.270448
 30
0.0
  0
SPLINE
  5
24b
100
AcDbEntity
  8
cuts
 62
7
100
AcDbSpline
 70
8
 71
3
 72
8
 73
4
 74
0
 40
0
 40
0
 40
0
 40
0
 40
1
 40
1
 40
1
 40
1
 10
8.612056
 20
1.270448
 30
0.0
 10
8.612056
 20
1.293406
 30
0.0
 10
8.624304
 20
1.314620
 30
0.0
 10
8.644186
 20
1.326099
 30
0.0
  0
SPLINE
  5
24c
100
AcDbEntity
  8
cuts
 62
7
100
AcDbSpline
 70
8
 71
3
 72
8
 73
4
 74
0
 40
0
 40
0
 40
0
 40
0
 40
1
 40
1
 40
1
 40
1
 10
8.644186
 20
1.326099
 30
0.0
 10
8.664068
 20
1.337577
 30
0.0
 10
8.688563
 20
1.337577
 30
0.0
 10
8.708445
 20
1.326099
 30
0.0
  0
SPLINE
  5
24d
100
AcDbEntity
  8
cuts
 62
7
100
AcDbSpline
 70
8
 71
3
 72
8
 73
4
 74
0
 40
0
 40
0
 40
0
 40
0
 40
1
 40
1
 40
1
 40
1
 10
8.708445
 20
1.326099
 30
0.0
 10
8.728327
 20
1.314620
 30
0.0
 10
8.740575
 20
1.293406
 30
0.0
 10
8.740575
 20
1.270448
 30
0.0
  0
LWPOLYLINE
  5
24e
100
AcDbEntity
  8
cuts
 62
7
100
AcDbPolyline
 90
1
 70
1
 10
4.551757
 20
4.137944
 30
0.0
  0
SPLINE
  5
24f
100
AcDbEntity
  8
cuts
 62
7
100
AcDbSpline
 70
8
 71
3
 72
8
 73
4
 74
0
 40
0
 40
0
 40
0
 40
0
 40
1
 40
1
 40
1
 40
1
 10
9.253964
 20
4.473346
 30
0.0
 10
9.253964
 20
4.450341
 30
0.0
 10
9.241691
 20
4.429084
 30
0.0
 10
9.221769
 20
4.417582
 30
0.0
  0
SPLINE
  5
250
100
AcDbEntity
  8
cuts
 62
7
100
AcDbSpline
 70
8
 71
3
 72
8
 73
4
 74
0
 40
0
 40
0
 40
0
 40
0
 40
1
 40
1
 40
1
 40
1
 10
9.221769
 20
4.417582
 30
0.0
 10
9.201846
 20
4.406079
 30
0.0
 10
9.177301
 20
4.406079
 30
0.0
 10
9.157378
 20
4.417582
 30
0.0
  0
SPLINE
  5
251
100
AcDbEntity
  8
cuts
 62
7
100
AcDbSpline
 70
8
 71
3
 72
8
 73
4
 74
0
 40
0
 40
0
 40
0
 40
0
 40
1
 40
1
 40
1
 40
1
 10
9.157378
 20
4.417582
 30
0.0
 10
9.137456
 20
4.429084
 30
0.0
 10
9.125183
 20
4.450341
 30
0.0
 10
9.125183
 20
4.473346
 30
0.0
  0
SPLINE
  5
252
100
AcDbEntity
  8
cuts
 62
7
100
AcDbSpline
 70
8
 71
3
 72
8
 73
4
 74
0
 40
0
 40
0
 40
0
 40
0
 40
1
 40
1
 40
1
 40
1
 10
9.125183
 20
4.473346
 30
0.0
 10
9.125183
 20
4.496350
 30
0.0
 10
9.137456
 20
4.517607
 30
0.0
 10
9.157378
 20
4.529109
 30
0.0
  0
SPLINE
  5
253
100
AcDbEntity
  8
cuts
 62
7
100
AcDbSpline
 70
8
 71
3
 72
8
 73
4
 74
0
 40
0
 40
0
 40
0
 40
0
 40
1
 40
1
 40
1
 40
1
 10
9.157378
 20
4.529109
 30
0.0
 10
9.177301
 20
4.540612
 30
0.0
 10
9.201846
 20
4.540612
 30
0.0
 10
9.221769
 20
4.529109
 30
0.0
  0
SPLINE
  5
254
100
AcDbEntity
  8
cuts
 62
7
100
AcDbSpline
 70
8
 71
3
 72
8
 73
4
 74
0
 40
0
 40
0
 40
0
 40
0
 40
1
 40
1
 40
1
 40
1
 10
9.221769
 20
4.529109
 30
0.0
 10
9.241691
 20
4.517607
 30
0.0
 10
9.253964
 20
4.496350
 30
0.0
 10
9.253964
 20
4.473346
 30
0.0
  0
LWPOLYLINE
  5
255
100
AcDbEntity
  8
cuts
 62
7
100
AcDbPolyline
 90
1
 70
1
 10
8.740575
 20
1.270448
 30
0.0
  0
SPLINE
  5
256
100
AcDbEntity
  8
cuts
 62
7
100
AcDbSpline
 70
8
 71
3
 72
8
 73
4
 74
0
 40
0
 40
0
 40
0
 40
0
 40
1
 40
1
 40
1
 40
1
 10
11.620429
 20
1.099460
 30
0.0
 10
11.620429
 20
1.076502
 30
0.0
 10
11.608182
 20
1.055288
 30
0.0
 10
11.588300
 20
1.043810
 30
0.0
  0
SPLINE
  5
257
100
AcDbEntity
  8
cuts
 62
7
100
AcDbSpline
 70
8
 71
3
 72
8
 73
4
 74
0
 40
0
 40
0
 40
0
 40
0
 40
1
 40
1
 40
1
 40
1
 10
11.588300
 20
1.043810
 30
0.0
 10
11.568418
 20
1.032331
 30
0.0
 10
11.543922
 20
1.032331
 30
0.0
 10
11.524040
 20
1.043810
 30
0.0
  0
SPLINE
  5
258
100
AcDbEntity
  8
cuts
 62
7
100
AcDbSpline
 70
8
 71
3
 72
8
 73
4
 74
0
 40
0
 40
0
 40
0
 40
0
 40
1
 40
1
 40
1
 40
1
 10
11.524040
 20
1.043810
 30
0.0
 10
11.504159
 20
1.055288
 30
0.0
 10
11.491911
 20
1.076502
 30
0.0
 10
11.491911
 20
1.099460
 30
0.0
  0
SPLINE
  5
259
100
AcDbEntity
  8
cuts
 62
7
100
AcDbSpline
 70
8
 71
3
 72
8
 73
4
 74
0
 40
0
 40
0
 40
0
 40
0
 40
1
 40
1
 40
1
 40
1
 10
11.491911
 20
1.099460
 30
0.0
 10
11.491911
 20
1.122417
 30
0.0
 10
11.504159
 20
1.143631
 30
0.0
 10
11.524040
 20
1.155110
 30
0.0
  0
SPLINE
  5
25a
100
AcDbEntity
  8
cuts
 62
7
100
AcDbSpline
 70
8
 71
3
 72
8
 73
4
 74
0
 40
0
 40
0
 40
0
 40
0
 40
1
 40
1
 40
1
 40
1
 10
11.524040
 20
1.155110
 30
0.0
 10
11.543922
 20
1.166589
 30
0.0
 10
11.568418
 20
1.166589
 30
0.0
 10
11.588300
 20
1.155110
 30
0.0
  0
SPLINE
  5
25b
100
AcDbEntity
  8
cuts
 62
7
100
AcDbSpline
 70
8
 71
3
 72
8
 73
4
 74
0
 40
0
 40
0
 40
0
 40
0
 40
1
 40
1
 40
1
 40
1
 10
11.588300
 20
1.155110
 30
0.0
 10
11.608182
 20
1.143631
 30
0.0
 10
11.620429
 20
1.122417
 30
0.0
 10
11.620429
 20
1.099460
 30
0.0
  0
LWPOLYLINE
  5
25c
100
AcDbEntity
  8
cuts
 62
7
100
AcDbPolyline
 90
1
 70
1
 10
9.253964
 20
4.473346
 30
0.0
  0
SPLINE
  5
25d
100
AcDbEntity
  8
cuts
 62
7
100
AcDbSpline
 70
8
 71
3
 72
8
 73
4
 74
0
 40
0
 40
0
 40
0
 40
0
 40
1
 40
1
 40
1
 40
1
 10
14.634805
 20
4.730716
 30
0.0
 10
14.634805
 20
4.707712
 30
0.0
 10
14.622532
 20
4.686455
 30
0.0
 10
14.602609
 20
4.674953
 30
0.0
  0
SPLINE
  5
25e
100
AcDbEntity
  8
cuts
 62
7
100
AcDbSpline
 70
8
 71
3
 72
8
 73
4
 74
0
 40
0
 40
0
 40
0
 40
0
 40
1
 40
1
 40
1
 40
1
 10
14.602609
 20
4.674953
 30
0.0
 10
14.582687
 20
4.663450
 30
0.0
 10
14.558141
 20
4.663450
 30
0.0
 10
14.538219
 20
4.674953
 30
0.0
  0
SPLINE
  5
25f
100
AcDbEntity
  8
cuts
 62
7
100
AcDbSpline
 70
8
 71
3
 72
8
 73
4
 74
0
 40
0
 40
0
 40
0
 40
0
 40
1
 40
1
 40
1
 40
1
 10
14.538219
 20
4.674953
 30
0.0
 10
14.518296
 20
4.686455
 30
0.0
 10
14.506024
 20
4.707712
 30
0.0
 10
14.506024
 20
4.730716
 30
0.0
  0
SPLINE
  5
260
100
AcDbEntity
  8
cuts
 62
7
100
AcDbSpline
 70
8
 71
3
 72
8
 73
4
 74
0
 40
0
 40
0
 40
0
 40
0
 40
1
 40
1
 40
1
 40
1
 10
14.506024
 20
4.730716
 30
0.0
 10
14.506024
 20
4.753721
 30
0.0
 10
14.518296
 20
4.774978
 30
0.0
 10
14.538219
 20
4.786480
 30
0.0
  0
SPLINE
  5
261
100
AcDbEntity
  8
cuts
 62
7
100
AcDbSpline
 70
8
 71
3
 72
8
 73
4
 74
0
 40
0
 40
0
 40
0
 40
0
 40
1
 40
1
 40
1
 40
1
 10
14.538219
 20
4.786480
 30
0.0
 10
14.558141
 20
4.797982
 30
0.0
 10
14.582687
 20
4.797982
 30
0.0
 10
14.602609
 20
4.786480
 30
0.0
  0
SPLINE
  5
262
100
AcDbEntity
  8
cuts
 62
7
100
AcDbSpline
 70
8
 71
3
 72
8
 73
4
 74
0
 40
0
 40
0
 40
0
 40
0
 40
1
 40
1
 40
1
 40
1
 10
14.602609
 20
4.786480
 30
0.0
 10
14.622532
 20
4.774978
 30
0.0
 10
14.634805
 20
4.753721
 30
0.0
 10
14.634805
 20
4.730716
 30
0.0
  0
LWPOLYLINE
  5
263
100
AcDbEntity
  8
cuts
 62
7
100
AcDbPolyline
 90
1
 70
1
 10
11.620429
 20
1.099460
 30
0.0
  0
SPLINE
  5
264
100
AcDbEntity
  8
cuts
 62
7
100
AcDbSpline
 70
8
 71
3
 72
8
 73
4
 74
0
 40
0
 40
0
 40
0
 40
0
 40
1
 40
1
 40
1
 40
1
 10
12.207578
 20
0.966677
 30
0.0
 10
12.207578
 20
0.943720
 30
0.0
 10
12.195330
 20
0.922506
 30
0.0
 10
12.175449
 20
0.911027
 30
0.0
  0
SPLINE
  5
265
100
AcDbEntity
  8
cuts
 62
7
100
AcDbSpline
 70
8
 71
3
 72
8
 73
4
 74
0
 40
0
 40
0
 40
0
 40
0
 40
1
 40
1
 40
1
 40
1
 10
12.175449
 20
0.911027
 30
0.0
 10
12.155567
 20
0.899548
 30
0.0
 10
12.131071
 20
0.899548
 30
0.0
 10
12.111189
 20
0.911027
 30
0.0
  0
SPLINE
  5
266
100
AcDbEntity
  8
cuts
 62
7
100
AcDbSpline
 70
8
 71
3
 72
8
 73
4
 74
0
 40
0
 40
0
 40
0
 40
0
 40
1
 40
1
 40
1
 40
1
 10
12.111189
 20
0.911027
 30
0.0
 10
12.091307
 20
0.922506
 30
0.0
 10
12.079060
 20
0.943720
 30
0.0
 10
12.079060
 20
0.966677
 30
0.0
  0
SPLINE
  5
267
100
AcDbEntity
  8
cuts
 62
7
100
AcDbSpline
 70
8
 71
3
 72
8
 73
4
 74
0
 40
0
 40
0
 40
0
 40
0
 40
1
 40
1
 40
1
 40
1
 10
12.079060
 20
0.966677
 30
0.0
 10
12.079060
 20
0.989635
 30
0.0
 10
12.091307
 20
1.010848
 30
0.0
 10
12.111189
 20
1.022327
 30
0.0
  0
SPLINE
  5
268
100
AcDbEntity
  8
cuts
 62
7
100
AcDbSpline
 70
8
 71
3
 72
8
 73
4
 74
0
 40
0
 40
0
 40
0
 40
0
 40
1
 40
1
 40
1
 40
1
 10
12.111189
 20
1.022327
 30
0.0
 10
12.131071
 20
1.033806
 30
0.0
 10
12.155567
 20
1.033806
 30
0.0
 10
12.175449
 20
1.022327
 30
0.0
  0
SPLINE
  5
269
100
AcDbEntity
  8
cuts
 62
7
100
AcDbSpline
 70
8
 71
3
 72
8
 73
4
 74
0
 40
0
 40
0
 40
0
 40
0
 40
1
 40
1
 40
1
 40
1
 10
12.175449
 20
1.022327
 30
0.0
 10
12.195330
 20
1.010848
 30
0.0
 10
12.207578
 20
0.989635
 30
0.0
 10
12.207578
 20
0.966677
 30
0.0
  0
LWPOLYLINE
  5
26a
100
AcDbEntity
  8
cuts
 62
7
100
AcDbPolyline
 90
1
 70
1
 10
14.634805
 20
4.730716
 30
0.0
  0
SPLINE
  5
26b
100
AcDbEntity
  8
cuts
 62
7
100
AcDbSpline
 70
8
 71
3
 72
8
 73
4
 74
0
 40
0
 40
0
 40
0
 40
0
 40
1
 40
1
 40
1
 40
1
 10
15.080112
 20
4.382353
 30
0.0
 10
15.080112
 20
4.359348
 30
0.0
 10
15.067840
 20
4.338091
 30
0.0
 10
15.047917
 20
4.326589
 30
0.0
  0
SPLINE
  5
26c
100
AcDbEntity
  8
cuts
 62
7
100
AcDbSpline
 70
8
 71
3
 72
8
 73
4
 74
0
 40
0
 40
0
 40
0
 40
0
 40
1
 40
1
 40
1
 40
1
 10
15.047917
 20
4.326589
 30
0.0
 10
15.027995
 20
4.315087
 30
0.0
 10
15.003449
 20
4.315087
 30
0.0
 10
14.983527
 20
4.326589
 30
0.0
  0
SPLINE
  5
26d
100
AcDbEntity
  8
cuts
 62
7
100
AcDbSpline
 70
8
 71
3
 72
8
 73
4
 74
0
 40
0
 40
0
 40
0
 40
0
 40
1
 40
1
 40
1
 40
1
 10
14.983527
 20
4.326589
 30
0.0
 10
14.963604
 20
4.338091
 30
0.0
 10
14.951331
 20
4.359348
 30
0.0
 10
14.951331
 20
4.382353
 30
0.0
  0
SPLINE
  5
26e
100
AcDbEntity
  8
cuts
 62
7
100
AcDbSpline
 70
8
 71
3
 72
8
 73
4
 74
0
 40
0
 40
0
 40
0
 40
0
 40
1
 40
1
 40
1
 40
1
 10
14.951331
 20
4.382353
 30
0.0
 10
14.951331
 20
4.405357
 30
0.0
 10
14.963604
 20
4.426614
 30
0.0
 10
14.983527
 20
4.438116
 30
0.0
  0
SPLINE
  5
26f
100
AcDbEntity
  8
cuts
 62
7
100
AcDbSpline
 70
8
 71
3
 72
8
 73
4
 74
0
 40
0
 40
0
 40
0
 40
0
 40
1
 40
1
 40
1
 40
1
 10
14.983527
 20
4.438116
 30
0.0
 10
15.003449
 20
4.449619
 30
0.0
 10
15.027995
 20
4.449619
 30
0.0
 10
15.047917
 20
4.438116
 30
0.0
  0
SPLINE
  5
270
100
AcDbEntity
  8
cuts
 62
7
100
AcDbSpline
 70
8
 71
3
 72
8
 73
4
 74
0
 40
0
 40
0
 40
0
 40
0
 40
1
 40
1
 40
1
 40
1
 10
15.047917
 20
4.438116
 30
0.0
 10
15.067840
 20
4.426614
 30
0.0
 10
15.080112
 20
4.405357
 30
0.0
 10
15.080112
 20
4.382353
 30
0.0
  0
LWPOLYLINE
  5
271
100
AcDbEntity
  8
cuts
 62
7
100
AcDbPolyline
 90
1
 70
1
 10
12.207578
 20
0.966677
 30
0.0
  0
SPLINE
  5
272
100
AcDbEntity
  8
cuts
 62
7
100
AcDbSpline
 70
8
 71
3
 72
8
 73
4
 74
0
 40
0
 40
0
 40
0
 40
0
 40
1
 40
1
 40
1
 40
1
 10
16.959404
 20
1.391990
 30
0.0
 10
16.959404
 20
1.369032
 30
0.0
 10
16.947156
 20
1.347819
 30
0.0
 10
16.927274
 20
1.336340
 30
0.0
  0
SPLINE
  5
273
100
AcDbEntity
  8
cuts
 62
7
100
AcDbSpline
 70
8
 71
3
 72
8
 73
4
 74
0
 40
0
 40
0
 40
0
 40
0
 40
1
 40
1
 40
1
 40
1
 10
16.927274
 20
1.336340
 30
0.0
 10
16.907392
 20
1.324861
 30
0.0
 10
16.882897
 20
1.324861
 30
0.0
 10
16.863015
 20
1.336340
 30
0.0
  0
SPLINE
  5
274
100
AcDbEntity
  8
cuts
 62
7
100
AcDbSpline
 70
8
 71
3
 72
8
 73
4
 74
0
 40
0
 40
0
 40
0
 40
0
 40
1
 40
1
 40
1
 40
1
 10
16.863015
 20
1.336340
 30
0.0
 10
16.843133
 20
1.347819
 30
0.0
 10
16.830885
 20
1.369032
 30
0.0
 10
16.830885
 20
1.391990
 30
0.0
  0
SPLINE
  5
275
100
AcDbEntity
  8
cuts
 62
7
100
AcDbSpline
 70
8
 71
3
 72
8
 73
4
 74
0
 40
0
 40
0
 40
0
 40
0
 40
1
 40
1
 40
1
 40
1
 10
16.830885
 20
1.391990
 30
0.0
 10
16.830885
 20
1.414948
 30
0.0
 10
16.843133
 20
1.436161
 30
0.0
 10
16.863015
 20
1.447640
 30
0.0
  0
SPLINE
  5
276
100
AcDbEntity
  8
cuts
 62
7
100
AcDbSpline
 70
8
 71
3
 72
8
 73
4
 74
0
 40
0
 40
0
 40
0
 40
0
 40
1
 40
1
 40
1
 40
1
 10
16.863015
 20
1.447640
 30
0.0
 10
16.882897
 20
1.459119
 30
0.0
 10
16.907392
 20
1.459119
 30
0.0
 10
16.927274
 20
1.447640
 30
0.0
  0
SPLINE
  5
277
100
AcDbEntity
  8
cuts
 62
7
100
AcDbSpline
 70
8
 71
3
 72
8
 73
4
 74
0
 40
0
 40
0
 40
0
 40
0
 40
1
 40
1
 40
1
 40
1
 10
16.927274
 20
1.447640
 30
0.0
 10
16.947156
 20
1.436161
 30
0.0
 10
16.959404
 20
1.414948
 30
0.0
 10
16.959404
 20
1.391990
 30
0.0
  0
LWPOLYLINE
  5
278
100
AcDbEntity
  8
cuts
 62
7
100
AcDbPolyline
 90
1
 70
1
 10
15.080112
 20
4.382353
 30
0.0
  0
LWPOLYLINE
  5
279
100
AcDbEntity
  8
cuts
 62
7
100
AcDbPolyline
 90
1
 70
1
 10
16.959404
 20
1.391990
 30
0.0
  0
ENDSEC
  0
SECTION
  2
OBJECTS
  0
DICTIONARY
  5
C
330
0
100
AcDbDictionary
  3
ACAD_GROUP
350
D
  3
ACAD_MLINESTYLE
350
17
  0
DICTIONARY
  5
D
330
C
100
AcDbDictionary
  0
DICTIONARY
  5
1A
330
C
100
AcDbDictionary
  0
DICTIONARY
  5
17
330
C
100
AcDbDictionary
  3
STANDARD
350
18
  0
DICTIONARY
  5
19
330
C
100
AcDbDictionary
  0
ENDSEC
  0
EOF
