  0
SECTION
  2
HEADER
  9
$ACADVER
  1
AC1014
  9
$HANDSEED
  5
FFFF
  9
$MEASUREMENT
 70
     1
  0
ENDSEC
  0
SECTION
  2
TABLES
  0
TABLE
  2
VPORT
  5
8
330
0
100
AcDbSymbolTable
 70
     4
  0
VPORT
  5
2E
330
8
100
AcDbSymbolTableRecord
100
AcDbViewportTableRecord
  2
*ACTIVE
 70
     0
 10
0.0
 20
0.0
 11
1.0
 21
1.0
 12
210.0
 22
148.5
 13
0.0
 23
0.0
 14
10.0
 24
10.0
 15
10.0
 25
10.0
 16
0.0
 26
0.0
 36
1.0
 17
0.0
 27
0.0
 37
0.0
 40
341.0
 41
1.24
 42
50.0
 43
0.0
 44
0.0
 50
0.0
 51
0.0
 71
     0
 72
   100
 73
     1
 74
     3
 75
     0
 76
     0
 77
     0
 78
     0
  0
ENDTAB
  0
TABLE
  2
LTYPE
  5
5
330
0
100
AcDbSymbolTable
 70
     1
  0
LTYPE
  5
14
330
5
100
AcDbSymbolTableRecord
100
AcDbLinetypeTableRecord
  2
BYBLOCK
 70
     0
  3

 72
    65
 73
     0
 40
0.0
  0
LTYPE
  5
15
330
5
100
AcDbSymbolTableRecord
100
AcDbLinetypeTableRecord
  2
BYLAYER
 70
     0
  3

 72
    65
 73
     0
 40
0.0
  0
LTYPE
  5
16
330
5
100
AcDbSymbolTableRecord
100
AcDbLinetypeTableRecord
  2
CONTINUOUS
 70
     0
  3
Solid line
 72
    65
 73
     0
 40
0.0
  0
ENDTAB
  0
TABLE
  2
LAYER
  5
2
100
AcDbSymbolTable
 70
7
  0
LAYER
  5
50
100
AcDbSymbolTableRecord
100
AcDbLayerTableRecord
  2
0
 70
0
  6
CONTINUOUS
  0
LAYER
  5
51
100
AcDbSymbolTableRecord
100
AcDbLayerTableRecord
  2
Layer_1
 70
0
  6
CONTINUOUS
  0
LAYER
  5
52
100
AcDbSymbolTableRecord
100
AcDbLayerTableRecord
  2
scans
 70
0
  6
CONTINUOUS
  0
LAYER
  5
53
100
AcDbSymbolTableRecord
100
AcDbLayerTableRecord
  2
scans_1
 70
0
  6
CONTINUOUS
  0
LAYER
  5
54
100
AcDbSymbolTableRecord
100
AcDbLayerTableRecord
  2
cuts
 70
0
  6
CONTINUOUS
  0
LAYER
  5
55
100
AcDbSymbolTableRecord
100
AcDbLayerTableRecord
  2
TB_#
 70
0
  6
CONTINUOUS
  0
LAYER
  5
56
100
AcDbSymbolTableRecord
100
AcDbLayerTableRecord
  2
ref
 70
0
  6
CONTINUOUS
  0
ENDTAB
  0
TABLE
  2
STYLE
  5
3
330
0
100
AcDbSymbolTable
 70
     1
  0
STYLE
  5
11
330
3
100
AcDbSymbolTableRecord
100
AcDbTextStyleTableRecord
  2
STANDARD
 70
     0
 40
0.0
 41
1.0
 50
0.0
 71
     0
 42
2.5
  3
txt
  4

  0
ENDTAB
  0
TABLE
  2
VIEW
  5
6
330
0
100
AcDbSymbolTable
 70
     0
  0
ENDTAB
  0
TABLE
  2
UCS
  5
7
330
0
100
AcDbSymbolTable
 70
     0
  0
ENDTAB
  0
TABLE
  2
APPID
  5
9
330
0
100
AcDbSymbolTable
 70
     2
  0
APPID
  5
12
330
9
100
AcDbSymbolTableRecord
100
AcDbRegAppTableRecord
  2
ACAD
 70
     0
  0
ENDTAB
  0
TABLE
  2
DIMSTYLE
  5
A
330
0
100
AcDbSymbolTable
 70
     1
  0
DIMSTYLE
105
27
330
A
100
AcDbSymbolTableRecord
100
AcDbDimStyleTableRecord
  2
ISO-25
 70
     0
  3

  4

  5

  6

  7

 40
1.0
 41
2.5
 42
0.625
 43
3.75
 44
1.25
 45
0.0
 46
0.0
 47
0.0
 48
0.0
140
2.5
141
2.5
142
0.0
143
0.03937007874016
144
1.0
145
0.0
146
1.0
147
0.625
 71
     0
 72
     0
 73
     0
 74
     0
 75
     0
 76
     0
 77
     1
 78
     8
170
     0
171
     3
172
     1
173
     0
174
     0
175
     0
176
     0
177
     0
178
     0
270
     2
271
     2
272
     2
273
     2
274
     3
340
11
275
     0
280
     0
281
     0
282
     0
283
     0
284
     8
285
     0
286
     0
287
     3
288
     0
  0
ENDTAB
  0
TABLE
  2
BLOCK_RECORD
  5
1
330
0
100
AcDbSymbolTable
 70
     1
  0
BLOCK_RECORD
  5
1F
330
1
100
AcDbSymbolTableRecord
100
AcDbBlockTableRecord
  2
*MODEL_SPACE
  0
BLOCK_RECORD
  5
1B
330
1
100
AcDbSymbolTableRecord
100
AcDbBlockTableRecord
  2
*PAPER_SPACE
  0
ENDTAB
  0
ENDSEC
  0
SECTION
  2
BLOCKS
  0
BLOCK
  5
20
330
1F
100
AcDbEntity
  8
0
100
AcDbBlockBegin
  2
*MODEL_SPACE
 70
     0
 10
0.0
 20
0.0
 30
0.0
  3
*MODEL_SPACE
  1

  0
ENDBLK
  5
21
330
1F
100
AcDbEntity
  8
0
100
AcDbBlockEnd
  0
BLOCK
  5
1C
330
1B
100
AcDbEntity
 67
     1
  8
0
100
AcDbBlockBegin
  2
*PAPER_SPACE
  1

  0
ENDBLK
  5
1D
330
1B
100
AcDbEntity
 67
     1
  8
0
100
AcDbBlockEnd
  0
ENDSEC
  0
SECTION
  2
ENTITIES
  0
SPLINE
  5
100
100
AcDbEntity
  8
cuts
 62
7
100
AcDbSpline
 70
8
 71
3
 72
8
 73
4
 74
0
 40
0
 40
0
 40
0
 40
0
 40
1
 40
1
 40
1
 40
1
 10
16.890115
 20
0.175764
 30
0.0
 10
16.890115
 20
0.167476
 30
0.0
 10
16.885693
 20
0.159817
 30
0.0
 10
16.878515
 20
0.155673
 30
0.0
  0
SPLINE
  5
101
100
AcDbEntity
  8
cuts
 62
7
100
AcDbSpline
 70
8
 71
3
 72
8
 73
4
 74
0
 40
0
 40
0
 40
0
 40
0
 40
1
 40
1
 40
1
 40
1
 10
16.878515
 20
0.155673
 30
0.0
 10
16.871338
 20
0.151529
 30
0.0
 10
16.862494
 20
0.151529
 30
0.0
 10
16.855317
 20
0.155673
 30
0.0
  0
SPLINE
  5
102
100
AcDbEntity
  8
cuts
 62
7
100
AcDbSpline
 70
8
 71
3
 72
8
 73
4
 74
0
 40
0
 40
0
 40
0
 40
0
 40
1
 40
1
 40
1
 40
1
 10
16.855317
 20
0.155673
 30
0.0
 10
16.848139
 20
0.159817
 30
0.0
 10
16.843717
 20
0.167476
 30
0.0
 10
16.843717
 20
0.175764
 30
0.0
  0
SPLINE
  5
103
100
AcDbEntity
  8
cuts
 62
7
100
AcDbSpline
 70
8
 71
3
 72
8
 73
4
 74
0
 40
0
 40
0
 40
0
 40
0
 40
1
 40
1
 40
1
 40
1
 10
16.843717
 20
0.175764
 30
0.0
 10
16.843717
 20
0.184052
 30
0.0
 10
16.848139
 20
0.191710
 30
0.0
 10
16.855317
 20
0.195854
 30
0.0
  0
SPLINE
  5
104
100
AcDbEntity
  8
cuts
 62
7
100
AcDbSpline
 70
8
 71
3
 72
8
 73
4
 74
0
 40
0
 40
0
 40
0
 40
0
 40
1
 40
1
 40
1
 40
1
 10
16.855317
 20
0.195854
 30
0.0
 10
16.862494
 20
0.199998
 30
0.0
 10
16.871338
 20
0.199998
 30
0.0
 10
16.878515
 20
0.195854
 30
0.0
  0
SPLINE
  5
105
100
AcDbEntity
  8
cuts
 62
7
100
AcDbSpline
 70
8
 71
3
 72
8
 73
4
 74
0
 40
0
 40
0
 40
0
 40
0
 40
1
 40
1
 40
1
 40
1
 10
16.878515
 20
0.195854
 30
0.0
 10
16.885693
 20
0.191710
 30
0.0
 10
16.890115
 20
0.184052
 30
0.0
 10
16.890115
 20
0.175764
 30
0.0
  0
SPLINE
  5
106
100
AcDbEntity
  8
cuts
 62
7
100
AcDbSpline
 70
8
 71
3
 72
8
 73
4
 74
0
 40
0
 40
0
 40
0
 40
0
 40
1
 40
1
 40
1
 40
1
 10
0.716781
 20
22.054997
 30
0.0
 10
0.716781
 20
22.031992
 30
0.0
 10
0.704508
 20
22.010735
 30
0.0
 10
0.684585
 20
21.999233
 30
0.0
  0
SPLINE
  5
107
100
AcDbEntity
  8
cuts
 62
7
100
AcDbSpline
 70
8
 71
3
 72
8
 73
4
 74
0
 40
0
 40
0
 40
0
 40
0
 40
1
 40
1
 40
1
 40
1
 10
0.684585
 20
21.999233
 30
0.0
 10
0.664663
 20
21.987731
 30
0.0
 10
0.640117
 20
21.987731
 30
0.0
 10
0.620195
 20
21.999233
 30
0.0
  0
SPLINE
  5
108
100
AcDbEntity
  8
cuts
 62
7
100
AcDbSpline
 70
8
 71
3
 72
8
 73
4
 74
0
 40
0
 40
0
 40
0
 40
0
 40
1
 40
1
 40
1
 40
1
 10
0.620195
 20
21.999233
 30
0.0
 10
0.600272
 20
22.010735
 30
0.0
 10
0.588000
 20
22.031992
 30
0.0
 10
0.588000
 20
22.054997
 30
0.0
  0
SPLINE
  5
109
100
AcDbEntity
  8
cuts
 62
7
100
AcDbSpline
 70
8
 71
3
 72
8
 73
4
 74
0
 40
0
 40
0
 40
0
 40
0
 40
1
 40
1
 40
1
 40
1
 10
0.588000
 20
22.054997
 30
0.0
 10
0.588000
 20
22.078001
 30
0.0
 10
0.600272
 20
22.099258
 30
0.0
 10
0.620195
 20
22.110761
 30
0.0
  0
SPLINE
  5
10a
100
AcDbEntity
  8
cuts
 62
7
100
AcDbSpline
 70
8
 71
3
 72
8
 73
4
 74
0
 40
0
 40
0
 40
0
 40
0
 40
1
 40
1
 40
1
 40
1
 10
0.620195
 20
22.110761
 30
0.0
 10
0.640117
 20
22.122263
 30
0.0
 10
0.664663
 20
22.122263
 30
0.0
 10
0.684585
 20
22.110761
 30
0.0
  0
SPLINE
  5
10b
100
AcDbEntity
  8
cuts
 62
7
100
AcDbSpline
 70
8
 71
3
 72
8
 73
4
 74
0
 40
0
 40
0
 40
0
 40
0
 40
1
 40
1
 40
1
 40
1
 10
0.684585
 20
22.110761
 30
0.0
 10
0.704508
 20
22.099258
 30
0.0
 10
0.716781
 20
22.078001
 30
0.0
 10
0.716781
 20
22.054997
 30
0.0
  0
LWPOLYLINE
  5
10c
100
AcDbEntity
  8
cuts
 62
7
100
AcDbPolyline
 90
1
 70
1
 10
16.890115
 20
0.175764
 30
0.0
  0
SPLINE
  5
10d
100
AcDbEntity
  8
cuts
 62
7
100
AcDbSpline
 70
8
 71
3
 72
8
 73
4
 74
0
 40
0
 40
0
 40
0
 40
0
 40
1
 40
1
 40
1
 40
1
 10
1.621709
 20
20.713387
 30
0.0
 10
1.621709
 20
20.677825
 30
0.0
 10
1.592880
 20
20.648997
 30
0.0
 10
1.557318
 20
20.648997
 30
0.0
  0
SPLINE
  5
10e
100
AcDbEntity
  8
cuts
 62
7
100
AcDbSpline
 70
8
 71
3
 72
8
 73
4
 74
0
 40
0
 40
0
 40
0
 40
0
 40
1
 40
1
 40
1
 40
1
 10
1.557318
 20
20.648997
 30
0.0
 10
1.521757
 20
20.648997
 30
0.0
 10
1.492928
 20
20.677825
 30
0.0
 10
1.492928
 20
20.713387
 30
0.0
  0
SPLINE
  5
10f
100
AcDbEntity
  8
cuts
 62
7
100
AcDbSpline
 70
8
 71
3
 72
8
 73
4
 74
0
 40
0
 40
0
 40
0
 40
0
 40
1
 40
1
 40
1
 40
1
 10
1.492928
 20
20.713387
 30
0.0
 10
1.492928
 20
20.736392
 30
0.0
 10
1.505201
 20
20.757649
 30
0.0
 10
1.525123
 20
20.769151
 30
0.0
  0
SPLINE
  5
110
100
AcDbEntity
  8
cuts
 62
7
100
AcDbSpline
 70
8
 71
3
 72
8
 73
4
 74
0
 40
0
 40
0
 40
0
 40
0
 40
1
 40
1
 40
1
 40
1
 10
1.525123
 20
20.769151
 30
0.0
 10
1.545046
 20
20.780653
 30
0.0
 10
1.569591
 20
20.780653
 30
0.0
 10
1.589514
 20
20.769151
 30
0.0
  0
SPLINE
  5
111
100
AcDbEntity
  8
cuts
 62
7
100
AcDbSpline
 70
8
 71
3
 72
8
 73
4
 74
0
 40
0
 40
0
 40
0
 40
0
 40
1
 40
1
 40
1
 40
1
 10
1.589514
 20
20.769151
 30
0.0
 10
1.609436
 20
20.757649
 30
0.0
 10
1.621709
 20
20.736392
 30
0.0
 10
1.621709
 20
20.713387
 30
0.0
  0
LWPOLYLINE
  5
112
100
AcDbEntity
  8
cuts
 62
7
100
AcDbPolyline
 90
1
 70
1
 10
0.716781
 20
22.054997
 30
0.0
  0
SPLINE
  5
113
100
AcDbEntity
  8
cuts
 62
7
100
AcDbSpline
 70
8
 71
3
 72
8
 73
4
 74
0
 40
0
 40
0
 40
0
 40
0
 40
1
 40
1
 40
1
 40
1
 10
2.521376
 20
22.660035
 30
0.0
 10
2.521376
 20
22.637031
 30
0.0
 10
2.509103
 20
22.615774
 30
0.0
 10
2.489181
 20
22.604272
 30
0.0
  0
SPLINE
  5
114
100
AcDbEntity
  8
cuts
 62
7
100
AcDbSpline
 70
8
 71
3
 72
8
 73
4
 74
0
 40
0
 40
0
 40
0
 40
0
 40
1
 40
1
 40
1
 40
1
 10
2.489181
 20
22.604272
 30
0.0
 10
2.469258
 20
22.592769
 30
0.0
 10
2.444713
 20
22.592769
 30
0.0
 10
2.424790
 20
22.604272
 30
0.0
  0
SPLINE
  5
115
100
AcDbEntity
  8
cuts
 62
7
100
AcDbSpline
 70
8
 71
3
 72
8
 73
4
 74
0
 40
0
 40
0
 40
0
 40
0
 40
1
 40
1
 40
1
 40
1
 10
2.424790
 20
22.604272
 30
0.0
 10
2.404868
 20
22.615774
 30
0.0
 10
2.392595
 20
22.637031
 30
0.0
 10
2.392595
 20
22.660035
 30
0.0
  0
SPLINE
  5
116
100
AcDbEntity
  8
cuts
 62
7
100
AcDbSpline
 70
8
 71
3
 72
8
 73
4
 74
0
 40
0
 40
0
 40
0
 40
0
 40
1
 40
1
 40
1
 40
1
 10
2.392595
 20
22.660035
 30
0.0
 10
2.392595
 20
22.683040
 30
0.0
 10
2.404868
 20
22.704297
 30
0.0
 10
2.424790
 20
22.715799
 30
0.0
  0
SPLINE
  5
117
100
AcDbEntity
  8
cuts
 62
7
100
AcDbSpline
 70
8
 71
3
 72
8
 73
4
 74
0
 40
0
 40
0
 40
0
 40
0
 40
1
 40
1
 40
1
 40
1
 10
2.424790
 20
22.715799
 30
0.0
 10
2.444713
 20
22.727302
 30
0.0
 10
2.469258
 20
22.727302
 30
0.0
 10
2.489181
 20
22.715799
 30
0.0
  0
SPLINE
  5
118
100
AcDbEntity
  8
cuts
 62
7
100
AcDbSpline
 70
8
 71
3
 72
8
 73
4
 74
0
 40
0
 40
0
 40
0
 40
0
 40
1
 40
1
 40
1
 40
1
 10
2.489181
 20
22.715799
 30
0.0
 10
2.509103
 20
22.704297
 30
0.0
 10
2.521376
 20
22.683040
 30
0.0
 10
2.521376
 20
22.660035
 30
0.0
  0
LWPOLYLINE
  5
119
100
AcDbEntity
  8
cuts
 62
7
100
AcDbPolyline
 90
1
 70
1
 10
1.621709
 20
20.713387
 30
0.0
  0
SPLINE
  5
11a
100
AcDbEntity
  8
cuts
 62
7
100
AcDbSpline
 70
8
 71
3
 72
8
 73
4
 74
0
 40
0
 40
0
 40
0
 40
0
 40
1
 40
1
 40
1
 40
1
 10
6.556725
 20
19.640100
 30
0.0
 10
6.556725
 20
19.617096
 30
0.0
 10
6.544452
 20
19.595839
 30
0.0
 10
6.524530
 20
19.584336
 30
0.0
  0
SPLINE
  5
11b
100
AcDbEntity
  8
cuts
 62
7
100
AcDbSpline
 70
8
 71
3
 72
8
 73
4
 74
0
 40
0
 40
0
 40
0
 40
0
 40
1
 40
1
 40
1
 40
1
 10
6.524530
 20
19.584336
 30
0.0
 10
6.504607
 20
19.572834
 30
0.0
 10
6.480062
 20
19.572834
 30
0.0
 10
6.460139
 20
19.584336
 30
0.0
  0
SPLINE
  5
11c
100
AcDbEntity
  8
cuts
 62
7
100
AcDbSpline
 70
8
 71
3
 72
8
 73
4
 74
0
 40
0
 40
0
 40
0
 40
0
 40
1
 40
1
 40
1
 40
1
 10
6.460139
 20
19.584336
 30
0.0
 10
6.440217
 20
19.595839
 30
0.0
 10
6.427944
 20
19.617096
 30
0.0
 10
6.427944
 20
19.640100
 30
0.0
  0
SPLINE
  5
11d
100
AcDbEntity
  8
cuts
 62
7
100
AcDbSpline
 70
8
 71
3
 72
8
 73
4
 74
0
 40
0
 40
0
 40
0
 40
0
 40
1
 40
1
 40
1
 40
1
 10
6.427944
 20
19.640100
 30
0.0
 10
6.427944
 20
19.663105
 30
0.0
 10
6.440217
 20
19.684362
 30
0.0
 10
6.460139
 20
19.695864
 30
0.0
  0
SPLINE
  5
11e
100
AcDbEntity
  8
cuts
 62
7
100
AcDbSpline
 70
8
 71
3
 72
8
 73
4
 74
0
 40
0
 40
0
 40
0
 40
0
 40
1
 40
1
 40
1
 40
1
 10
6.460139
 20
19.695864
 30
0.0
 10
6.480062
 20
19.707366
 30
0.0
 10
6.504607
 20
19.707366
 30
0.0
 10
6.524530
 20
19.695864
 30
0.0
  0
SPLINE
  5
11f
100
AcDbEntity
  8
cuts
 62
7
100
AcDbSpline
 70
8
 71
3
 72
8
 73
4
 74
0
 40
0
 40
0
 40
0
 40
0
 40
1
 40
1
 40
1
 40
1
 10
6.524530
 20
19.695864
 30
0.0
 10
6.544452
 20
19.684362
 30
0.0
 10
6.556725
 20
19.663105
 30
0.0
 10
6.556725
 20
19.640100
 30
0.0
  0
LWPOLYLINE
  5
120
100
AcDbEntity
  8
cuts
 62
7
100
AcDbPolyline
 90
1
 70
1
 10
2.521376
 20
22.660035
 30
0.0
  0
SPLINE
  5
121
100
AcDbEntity
  8
cuts
 62
7
100
AcDbSpline
 70
8
 71
3
 72
8
 73
4
 74
0
 40
0
 40
0
 40
0
 40
0
 40
1
 40
1
 40
1
 40
1
 10
7.295765
 20
23.108141
 30
0.0
 10
7.295765
 20
23.085136
 30
0.0
 10
7.283493
 20
23.063879
 30
0.0
 10
7.263570
 20
23.052377
 30
0.0
  0
SPLINE
  5
122
100
AcDbEntity
  8
cuts
 62
7
100
AcDbSpline
 70
8
 71
3
 72
8
 73
4
 74
0
 40
0
 40
0
 40
0
 40
0
 40
1
 40
1
 40
1
 40
1
 10
7.263570
 20
23.052377
 30
0.0
 10
7.243648
 20
23.040875
 30
0.0
 10
7.219102
 20
23.040875
 30
0.0
 10
7.199180
 20
23.052377
 30
0.0
  0
SPLINE
  5
123
100
AcDbEntity
  8
cuts
 62
7
100
AcDbSpline
 70
8
 71
3
 72
8
 73
4
 74
0
 40
0
 40
0
 40
0
 40
0
 40
1
 40
1
 40
1
 40
1
 10
7.199180
 20
23.052377
 30
0.0
 10
7.179257
 20
23.063879
 30
0.0
 10
7.166984
 20
23.085136
 30
0.0
 10
7.166984
 20
23.108141
 30
0.0
  0
SPLINE
  5
124
100
AcDbEntity
  8
cuts
 62
7
100
AcDbSpline
 70
8
 71
3
 72
8
 73
4
 74
0
 40
0
 40
0
 40
0
 40
0
 40
1
 40
1
 40
1
 40
1
 10
7.166984
 20
23.108141
 30
0.0
 10
7.166984
 20
23.131145
 30
0.0
 10
7.179257
 20
23.152402
 30
0.0
 10
7.199180
 20
23.163904
 30
0.0
  0
SPLINE
  5
125
100
AcDbEntity
  8
cuts
 62
7
100
AcDbSpline
 70
8
 71
3
 72
8
 73
4
 74
0
 40
0
 40
0
 40
0
 40
0
 40
1
 40
1
 40
1
 40
1
 10
7.199180
 20
23.163904
 30
0.0
 10
7.219102
 20
23.175407
 30
0.0
 10
7.243648
 20
23.175407
 30
0.0
 10
7.263570
 20
23.163904
 30
0.0
  0
SPLINE
  5
126
100
AcDbEntity
  8
cuts
 62
7
100
AcDbSpline
 70
8
 71
3
 72
8
 73
4
 74
0
 40
0
 40
0
 40
0
 40
0
 40
1
 40
1
 40
1
 40
1
 10
7.263570
 20
23.163904
 30
0.0
 10
7.283493
 20
23.152402
 30
0.0
 10
7.295765
 20
23.131145
 30
0.0
 10
7.295765
 20
23.108141
 30
0.0
  0
LWPOLYLINE
  5
127
100
AcDbEntity
  8
cuts
 62
7
100
AcDbPolyline
 90
1
 70
1
 10
6.556725
 20
19.640100
 30
0.0
  0
SPLINE
  5
128
100
AcDbEntity
  8
cuts
 62
7
100
AcDbSpline
 70
8
 71
3
 72
8
 73
4
 74
0
 40
0
 40
0
 40
0
 40
0
 40
1
 40
1
 40
1
 40
1
 10
10.620330
 20
20.711873
 30
0.0
 10
10.620330
 20
20.688869
 30
0.0
 10
10.608058
 20
20.667612
 30
0.0
 10
10.588135
 20
20.656110
 30
0.0
  0
SPLINE
  5
129
100
AcDbEntity
  8
cuts
 62
7
100
AcDbSpline
 70
8
 71
3
 72
8
 73
4
 74
0
 40
0
 40
0
 40
0
 40
0
 40
1
 40
1
 40
1
 40
1
 10
10.588135
 20
20.656110
 30
0.0
 10
10.568213
 20
20.644607
 30
0.0
 10
10.543667
 20
20.644607
 30
0.0
 10
10.523745
 20
20.656110
 30
0.0
  0
SPLINE
  5
12a
100
AcDbEntity
  8
cuts
 62
7
100
AcDbSpline
 70
8
 71
3
 72
8
 73
4
 74
0
 40
0
 40
0
 40
0
 40
0
 40
1
 40
1
 40
1
 40
1
 10
10.523745
 20
20.656110
 30
0.0
 10
10.503822
 20
20.667612
 30
0.0
 10
10.491549
 20
20.688869
 30
0.0
 10
10.491549
 20
20.711873
 30
0.0
  0
SPLINE
  5
12b
100
AcDbEntity
  8
cuts
 62
7
100
AcDbSpline
 70
8
 71
3
 72
8
 73
4
 74
0
 40
0
 40
0
 40
0
 40
0
 40
1
 40
1
 40
1
 40
1
 10
10.491549
 20
20.711873
 30
0.0
 10
10.491549
 20
20.734878
 30
0.0
 10
10.503822
 20
20.756135
 30
0.0
 10
10.523745
 20
20.767637
 30
0.0
  0
SPLINE
  5
12c
100
AcDbEntity
  8
cuts
 62
7
100
AcDbSpline
 70
8
 71
3
 72
8
 73
4
 74
0
 40
0
 40
0
 40
0
 40
0
 40
1
 40
1
 40
1
 40
1
 10
10.523745
 20
20.767637
 30
0.0
 10
10.543667
 20
20.779139
 30
0.0
 10
10.568213
 20
20.779139
 30
0.0
 10
10.588135
 20
20.767637
 30
0.0
  0
SPLINE
  5
12d
100
AcDbEntity
  8
cuts
 62
7
100
AcDbSpline
 70
8
 71
3
 72
8
 73
4
 74
0
 40
0
 40
0
 40
0
 40
0
 40
1
 40
1
 40
1
 40
1
 10
10.588135
 20
20.767637
 30
0.0
 10
10.608058
 20
20.756135
 30
0.0
 10
10.620330
 20
20.734878
 30
0.0
 10
10.620330
 20
20.711873
 30
0.0
  0
LWPOLYLINE
  5
12e
100
AcDbEntity
  8
cuts
 62
7
100
AcDbPolyline
 90
1
 70
1
 10
7.295765
 20
23.108141
 30
0.0
  0
SPLINE
  5
12f
100
AcDbEntity
  8
cuts
 62
7
100
AcDbSpline
 70
8
 71
3
 72
8
 73
4
 74
0
 40
0
 40
0
 40
0
 40
0
 40
1
 40
1
 40
1
 40
1
 10
11.279805
 20
22.714808
 30
0.0
 10
11.279805
 20
22.691803
 30
0.0
 10
11.267533
 20
22.670546
 30
0.0
 10
11.247610
 20
22.659044
 30
0.0
  0
SPLINE
  5
130
100
AcDbEntity
  8
cuts
 62
7
100
AcDbSpline
 70
8
 71
3
 72
8
 73
4
 74
0
 40
0
 40
0
 40
0
 40
0
 40
1
 40
1
 40
1
 40
1
 10
11.247610
 20
22.659044
 30
0.0
 10
11.227688
 20
22.647541
 30
0.0
 10
11.203142
 20
22.647541
 30
0.0
 10
11.183220
 20
22.659044
 30
0.0
  0
SPLINE
  5
131
100
AcDbEntity
  8
cuts
 62
7
100
AcDbSpline
 70
8
 71
3
 72
8
 73
4
 74
0
 40
0
 40
0
 40
0
 40
0
 40
1
 40
1
 40
1
 40
1
 10
11.183220
 20
22.659044
 30
0.0
 10
11.163297
 20
22.670546
 30
0.0
 10
11.151024
 20
22.691803
 30
0.0
 10
11.151024
 20
22.714808
 30
0.0
  0
SPLINE
  5
132
100
AcDbEntity
  8
cuts
 62
7
100
AcDbSpline
 70
8
 71
3
 72
8
 73
4
 74
0
 40
0
 40
0
 40
0
 40
0
 40
1
 40
1
 40
1
 40
1
 10
11.151024
 20
22.714808
 30
0.0
 10
11.151024
 20
22.737812
 30
0.0
 10
11.163297
 20
22.759069
 30
0.0
 10
11.183220
 20
22.770571
 30
0.0
  0
SPLINE
  5
133
100
AcDbEntity
  8
cuts
 62
7
100
AcDbSpline
 70
8
 71
3
 72
8
 73
4
 74
0
 40
0
 40
0
 40
0
 40
0
 40
1
 40
1
 40
1
 40
1
 10
11.183220
 20
22.770571
 30
0.0
 10
11.203142
 20
22.782074
 30
0.0
 10
11.227688
 20
22.782074
 30
0.0
 10
11.247610
 20
22.770571
 30
0.0
  0
SPLINE
  5
134
100
AcDbEntity
  8
cuts
 62
7
100
AcDbSpline
 70
8
 71
3
 72
8
 73
4
 74
0
 40
0
 40
0
 40
0
 40
0
 40
1
 40
1
 40
1
 40
1
 10
11.247610
 20
22.770571
 30
0.0
 10
11.267533
 20
22.759069
 30
0.0
 10
11.279805
 20
22.737812
 30
0.0
 10
11.279805
 20
22.714808
 30
0.0
  0
LWPOLYLINE
  5
135
100
AcDbEntity
  8
cuts
 62
7
100
AcDbPolyline
 90
1
 70
1
 10
10.620330
 20
20.711873
 30
0.0
  0
SPLINE
  5
136
100
AcDbEntity
  8
cuts
 62
7
100
AcDbSpline
 70
8
 71
3
 72
8
 73
4
 74
0
 40
0
 40
0
 40
0
 40
0
 40
1
 40
1
 40
1
 40
1
 10
14.095442
 20
19.127641
 30
0.0
 10
14.095442
 20
19.104637
 30
0.0
 10
14.083170
 20
19.083380
 30
0.0
 10
14.063247
 20
19.071877
 30
0.0
  0
SPLINE
  5
137
100
AcDbEntity
  8
cuts
 62
7
100
AcDbSpline
 70
8
 71
3
 72
8
 73
4
 74
0
 40
0
 40
0
 40
0
 40
0
 40
1
 40
1
 40
1
 40
1
 10
14.063247
 20
19.071877
 30
0.0
 10
14.043325
 20
19.060375
 30
0.0
 10
14.018779
 20
19.060375
 30
0.0
 10
13.998857
 20
19.071877
 30
0.0
  0
SPLINE
  5
138
100
AcDbEntity
  8
cuts
 62
7
100
AcDbSpline
 70
8
 71
3
 72
8
 73
4
 74
0
 40
0
 40
0
 40
0
 40
0
 40
1
 40
1
 40
1
 40
1
 10
13.998857
 20
19.071877
 30
0.0
 10
13.978934
 20
19.083380
 30
0.0
 10
13.966661
 20
19.104637
 30
0.0
 10
13.966661
 20
19.127641
 30
0.0
  0
SPLINE
  5
139
100
AcDbEntity
  8
cuts
 62
7
100
AcDbSpline
 70
8
 71
3
 72
8
 73
4
 74
0
 40
0
 40
0
 40
0
 40
0
 40
1
 40
1
 40
1
 40
1
 10
13.966661
 20
19.127641
 30
0.0
 10
13.966661
 20
19.150646
 30
0.0
 10
13.978934
 20
19.171903
 30
0.0
 10
13.998857
 20
19.183405
 30
0.0
  0
SPLINE
  5
13a
100
AcDbEntity
  8
cuts
 62
7
100
AcDbSpline
 70
8
 71
3
 72
8
 73
4
 74
0
 40
0
 40
0
 40
0
 40
0
 40
1
 40
1
 40
1
 40
1
 10
13.998857
 20
19.183405
 30
0.0
 10
14.018779
 20
19.194907
 30
0.0
 10
14.043325
 20
19.194907
 30
0.0
 10
14.063247
 20
19.183405
 30
0.0
  0
SPLINE
  5
13b
100
AcDbEntity
  8
cuts
 62
7
100
AcDbSpline
 70
8
 71
3
 72
8
 73
4
 74
0
 40
0
 40
0
 40
0
 40
0
 40
1
 40
1
 40
1
 40
1
 10
14.063247
 20
19.183405
 30
0.0
 10
14.083170
 20
19.171903
 30
0.0
 10
14.095442
 20
19.150646
 30
0.0
 10
14.095442
 20
19.127641
 30
0.0
  0
LWPOLYLINE
  5
13c
100
AcDbEntity
  8
cuts
 62
7
100
AcDbPolyline
 90
1
 70
1
 10
11.279805
 20
22.714808
 30
0.0
  0
SPLINE
  5
13d
100
AcDbEntity
  8
cuts
 62
7
100
AcDbSpline
 70
8
 71
3
 72
8
 73
4
 74
0
 40
0
 40
0
 40
0
 40
0
 40
1
 40
1
 40
1
 40
1
 10
15.348208
 20
23.296642
 30
0.0
 10
15.348208
 20
23.273637
 30
0.0
 10
15.335935
 20
23.252380
 30
0.0
 10
15.316013
 20
23.240878
 30
0.0
  0
SPLINE
  5
13e
100
AcDbEntity
  8
cuts
 62
7
100
AcDbSpline
 70
8
 71
3
 72
8
 73
4
 74
0
 40
0
 40
0
 40
0
 40
0
 40
1
 40
1
 40
1
 40
1
 10
15.316013
 20
23.240878
 30
0.0
 10
15.296090
 20
23.229376
 30
0.0
 10
15.271545
 20
23.229376
 30
0.0
 10
15.251622
 20
23.240878
 30
0.0
  0
SPLINE
  5
13f
100
AcDbEntity
  8
cuts
 62
7
100
AcDbSpline
 70
8
 71
3
 72
8
 73
4
 74
0
 40
0
 40
0
 40
0
 40
0
 40
1
 40
1
 40
1
 40
1
 10
15.251622
 20
23.240878
 30
0.0
 10
15.231700
 20
23.252380
 30
0.0
 10
15.219427
 20
23.273637
 30
0.0
 10
15.219427
 20
23.296642
 30
0.0
  0
SPLINE
  5
140
100
AcDbEntity
  8
cuts
 62
7
100
AcDbSpline
 70
8
 71
3
 72
8
 73
4
 74
0
 40
0
 40
0
 40
0
 40
0
 40
1
 40
1
 40
1
 40
1
 10
15.219427
 20
23.296642
 30
0.0
 10
15.219427
 20
23.319646
 30
0.0
 10
15.231700
 20
23.340903
 30
0.0
 10
15.251622
 20
23.352406
 30
0.0
  0
SPLINE
  5
141
100
AcDbEntity
  8
cuts
 62
7
100
AcDbSpline
 70
8
 71
3
 72
8
 73
4
 74
0
 40
0
 40
0
 40
0
 40
0
 40
1
 40
1
 40
1
 40
1
 10
15.251622
 20
23.352406
 30
0.0
 10
15.271545
 20
23.363908
 30
0.0
 10
15.296090
 20
23.363908
 30
0.0
 10
15.316013
 20
23.352406
 30
0.0
  0
SPLINE
  5
142
100
AcDbEntity
  8
cuts
 62
7
100
AcDbSpline
 70
8
 71
3
 72
8
 73
4
 74
0
 40
0
 40
0
 40
0
 40
0
 40
1
 40
1
 40
1
 40
1
 10
15.316013
 20
23.352406
 30
0.0
 10
15.335935
 20
23.340903
 30
0.0
 10
15.348208
 20
23.319646
 30
0.0
 10
15.348208
 20
23.296642
 30
0.0
  0
LWPOLYLINE
  5
143
100
AcDbEntity
  8
cuts
 62
7
100
AcDbPolyline
 90
1
 70
1
 10
14.095442
 20
19.127641
 30
0.0
  0
SPLINE
  5
144
100
AcDbEntity
  8
cuts
 62
7
100
AcDbSpline
 70
8
 71
3
 72
8
 73
4
 74
0
 40
0
 40
0
 40
0
 40
0
 40
1
 40
1
 40
1
 40
1
 10
17.268551
 20
20.502938
 30
0.0
 10
17.268551
 20
20.479934
 30
0.0
 10
17.256278
 20
20.458677
 30
0.0
 10
17.236356
 20
20.447174
 30
0.0
  0
SPLINE
  5
145
100
AcDbEntity
  8
cuts
 62
7
100
AcDbSpline
 70
8
 71
3
 72
8
 73
4
 74
0
 40
0
 40
0
 40
0
 40
0
 40
1
 40
1
 40
1
 40
1
 10
17.236356
 20
20.447174
 30
0.0
 10
17.216433
 20
20.435672
 30
0.0
 10
17.191888
 20
20.435672
 30
0.0
 10
17.171965
 20
20.447174
 30
0.0
  0
SPLINE
  5
146
100
AcDbEntity
  8
cuts
 62
7
100
AcDbSpline
 70
8
 71
3
 72
8
 73
4
 74
0
 40
0
 40
0
 40
0
 40
0
 40
1
 40
1
 40
1
 40
1
 10
17.171965
 20
20.447174
 30
0.0
 10
17.152043
 20
20.458677
 30
0.0
 10
17.139770
 20
20.479934
 30
0.0
 10
17.139770
 20
20.502938
 30
0.0
  0
SPLINE
  5
147
100
AcDbEntity
  8
cuts
 62
7
100
AcDbSpline
 70
8
 71
3
 72
8
 73
4
 74
0
 40
0
 40
0
 40
0
 40
0
 40
1
 40
1
 40
1
 40
1
 10
17.139770
 20
20.502938
 30
0.0
 10
17.139770
 20
20.525943
 30
0.0
 10
17.152043
 20
20.547200
 30
0.0
 10
17.171965
 20
20.558702
 30
0.0
  0
SPLINE
  5
148
100
AcDbEntity
  8
cuts
 62
7
100
AcDbSpline
 70
8
 71
3
 72
8
 73
4
 74
0
 40
0
 40
0
 40
0
 40
0
 40
1
 40
1
 40
1
 40
1
 10
17.171965
 20
20.558702
 30
0.0
 10
17.191888
 20
20.570204
 30
0.0
 10
17.216433
 20
20.570204
 30
0.0
 10
17.236356
 20
20.558702
 30
0.0
  0
SPLINE
  5
149
100
AcDbEntity
  8
cuts
 62
7
100
AcDbSpline
 70
8
 71
3
 72
8
 73
4
 74
0
 40
0
 40
0
 40
0
 40
0
 40
1
 40
1
 40
1
 40
1
 10
17.236356
 20
20.558702
 30
0.0
 10
17.256278
 20
20.547200
 30
0.0
 10
17.268551
 20
20.525943
 30
0.0
 10
17.268551
 20
20.502938
 30
0.0
  0
LWPOLYLINE
  5
14a
100
AcDbEntity
  8
cuts
 62
7
100
AcDbPolyline
 90
1
 70
1
 10
15.348208
 20
23.296642
 30
0.0
  0
SPLINE
  5
14b
100
AcDbEntity
  8
cuts
 62
7
100
AcDbSpline
 70
8
 71
3
 72
8
 73
4
 74
0
 40
0
 40
0
 40
0
 40
0
 40
1
 40
1
 40
1
 40
1
 10
1.980129
 20
18.739776
 30
0.0
 10
1.980129
 20
18.716771
 30
0.0
 10
1.967856
 20
18.695514
 30
0.0
 10
1.947934
 20
18.684012
 30
0.0
  0
SPLINE
  5
14c
100
AcDbEntity
  8
cuts
 62
7
100
AcDbSpline
 70
8
 71
3
 72
8
 73
4
 74
0
 40
0
 40
0
 40
0
 40
0
 40
1
 40
1
 40
1
 40
1
 10
1.947934
 20
18.684012
 30
0.0
 10
1.928011
 20
18.672510
 30
0.0
 10
1.903466
 20
18.672510
 30
0.0
 10
1.883543
 20
18.684012
 30
0.0
  0
SPLINE
  5
14d
100
AcDbEntity
  8
cuts
 62
7
100
AcDbSpline
 70
8
 71
3
 72
8
 73
4
 74
0
 40
0
 40
0
 40
0
 40
0
 40
1
 40
1
 40
1
 40
1
 10
1.883543
 20
18.684012
 30
0.0
 10
1.863621
 20
18.695514
 30
0.0
 10
1.851348
 20
18.716771
 30
0.0
 10
1.851348
 20
18.739776
 30
0.0
  0
SPLINE
  5
14e
100
AcDbEntity
  8
cuts
 62
7
100
AcDbSpline
 70
8
 71
3
 72
8
 73
4
 74
0
 40
0
 40
0
 40
0
 40
0
 40
1
 40
1
 40
1
 40
1
 10
1.851348
 20
18.739776
 30
0.0
 10
1.851348
 20
18.762780
 30
0.0
 10
1.863621
 20
18.784037
 30
0.0
 10
1.883543
 20
18.795540
 30
0.0
  0
SPLINE
  5
14f
100
AcDbEntity
  8
cuts
 62
7
100
AcDbSpline
 70
8
 71
3
 72
8
 73
4
 74
0
 40
0
 40
0
 40
0
 40
0
 40
1
 40
1
 40
1
 40
1
 10
1.883543
 20
18.795540
 30
0.0
 10
1.903466
 20
18.807042
 30
0.0
 10
1.928011
 20
18.807042
 30
0.0
 10
1.947934
 20
18.795540
 30
0.0
  0
SPLINE
  5
150
100
AcDbEntity
  8
cuts
 62
7
100
AcDbSpline
 70
8
 71
3
 72
8
 73
4
 74
0
 40
0
 40
0
 40
0
 40
0
 40
1
 40
1
 40
1
 40
1
 10
1.947934
 20
18.795540
 30
0.0
 10
1.967856
 20
18.784037
 30
0.0
 10
1.980129
 20
18.762780
 30
0.0
 10
1.980129
 20
18.739776
 30
0.0
  0
LWPOLYLINE
  5
151
100
AcDbEntity
  8
cuts
 62
7
100
AcDbPolyline
 90
1
 70
1
 10
17.268551
 20
20.502938
 30
0.0
  0
SPLINE
  5
152
100
AcDbEntity
  8
cuts
 62
7
100
AcDbSpline
 70
8
 71
3
 72
8
 73
4
 74
0
 40
0
 40
0
 40
0
 40
0
 40
1
 40
1
 40
1
 40
1
 10
3.106686
 20
17.811829
 30
0.0
 10
3.106686
 20
17.776267
 30
0.0
 10
3.077857
 20
17.747438
 30
0.0
 10
3.042295
 20
17.747438
 30
0.0
  0
SPLINE
  5
153
100
AcDbEntity
  8
cuts
 62
7
100
AcDbSpline
 70
8
 71
3
 72
8
 73
4
 74
0
 40
0
 40
0
 40
0
 40
0
 40
1
 40
1
 40
1
 40
1
 10
3.042295
 20
17.747438
 30
0.0
 10
3.006734
 20
17.747438
 30
0.0
 10
2.977905
 20
17.776267
 30
0.0
 10
2.977905
 20
17.811829
 30
0.0
  0
SPLINE
  5
154
100
AcDbEntity
  8
cuts
 62
7
100
AcDbSpline
 70
8
 71
3
 72
8
 73
4
 74
0
 40
0
 40
0
 40
0
 40
0
 40
1
 40
1
 40
1
 40
1
 10
2.977905
 20
17.811829
 30
0.0
 10
2.977905
 20
17.847391
 30
0.0
 10
3.006734
 20
17.876219
 30
0.0
 10
3.042295
 20
17.876219
 30
0.0
  0
SPLINE
  5
155
100
AcDbEntity
  8
cuts
 62
7
100
AcDbSpline
 70
8
 71
3
 72
8
 73
4
 74
0
 40
0
 40
0
 40
0
 40
0
 40
1
 40
1
 40
1
 40
1
 10
3.042295
 20
17.876219
 30
0.0
 10
3.077857
 20
17.876219
 30
0.0
 10
3.106686
 20
17.847391
 30
0.0
 10
3.106686
 20
17.811829
 30
0.0
  0
LWPOLYLINE
  5
156
100
AcDbEntity
  8
cuts
 62
7
100
AcDbPolyline
 90
1
 70
1
 10
1.980129
 20
18.739776
 30
0.0
  0
SPLINE
  5
157
100
AcDbEntity
  8
cuts
 62
7
100
AcDbSpline
 70
8
 71
3
 72
8
 73
4
 74
0
 40
0
 40
0
 40
0
 40
0
 40
1
 40
1
 40
1
 40
1
 10
6.331889
 20
18.819717
 30
0.0
 10
6.331889
 20
18.796712
 30
0.0
 10
6.319616
 20
18.775455
 30
0.0
 10
6.299693
 20
18.763953
 30
0.0
  0
SPLINE
  5
158
100
AcDbEntity
  8
cuts
 62
7
100
AcDbSpline
 70
8
 71
3
 72
8
 73
4
 74
0
 40
0
 40
0
 40
0
 40
0
 40
1
 40
1
 40
1
 40
1
 10
6.299693
 20
18.763953
 30
0.0
 10
6.279771
 20
18.752451
 30
0.0
 10
6.255225
 20
18.752451
 30
0.0
 10
6.235303
 20
18.763953
 30
0.0
  0
SPLINE
  5
159
100
AcDbEntity
  8
cuts
 62
7
100
AcDbSpline
 70
8
 71
3
 72
8
 73
4
 74
0
 40
0
 40
0
 40
0
 40
0
 40
1
 40
1
 40
1
 40
1
 10
6.235303
 20
18.763953
 30
0.0
 10
6.215380
 20
18.775455
 30
0.0
 10
6.203108
 20
18.796712
 30
0.0
 10
6.203108
 20
18.819717
 30
0.0
  0
SPLINE
  5
15a
100
AcDbEntity
  8
cuts
 62
7
100
AcDbSpline
 70
8
 71
3
 72
8
 73
4
 74
0
 40
0
 40
0
 40
0
 40
0
 40
1
 40
1
 40
1
 40
1
 10
6.203108
 20
18.819717
 30
0.0
 10
6.203108
 20
18.842721
 30
0.0
 10
6.215380
 20
18.863978
 30
0.0
 10
6.235303
 20
18.875481
 30
0.0
  0
SPLINE
  5
15b
100
AcDbEntity
  8
cuts
 62
7
100
AcDbSpline
 70
8
 71
3
 72
8
 73
4
 74
0
 40
0
 40
0
 40
0
 40
0
 40
1
 40
1
 40
1
 40
1
 10
6.235303
 20
18.875481
 30
0.0
 10
6.255225
 20
18.886983
 30
0.0
 10
6.279771
 20
18.886983
 30
0.0
 10
6.299693
 20
18.875481
 30
0.0
  0
SPLINE
  5
15c
100
AcDbEntity
  8
cuts
 62
7
100
AcDbSpline
 70
8
 71
3
 72
8
 73
4
 74
0
 40
0
 40
0
 40
0
 40
0
 40
1
 40
1
 40
1
 40
1
 10
6.299693
 20
18.875481
 30
0.0
 10
6.319616
 20
18.863978
 30
0.0
 10
6.331889
 20
18.842721
 30
0.0
 10
6.331889
 20
18.819717
 30
0.0
  0
LWPOLYLINE
  5
15d
100
AcDbEntity
  8
cuts
 62
7
100
AcDbPolyline
 90
1
 70
1
 10
3.106686
 20
17.811829
 30
0.0
  0
SPLINE
  5
15e
100
AcDbEntity
  8
cuts
 62
7
100
AcDbSpline
 70
8
 71
3
 72
8
 73
4
 74
0
 40
0
 40
0
 40
0
 40
0
 40
1
 40
1
 40
1
 40
1
 10
7.558982
 20
16.536494
 30
0.0
 10
7.558982
 20
16.513490
 30
0.0
 10
7.546710
 20
16.492233
 30
0.0
 10
7.526787
 20
16.480731
 30
0.0
  0
SPLINE
  5
15f
100
AcDbEntity
  8
cuts
 62
7
100
AcDbSpline
 70
8
 71
3
 72
8
 73
4
 74
0
 40
0
 40
0
 40
0
 40
0
 40
1
 40
1
 40
1
 40
1
 10
7.526787
 20
16.480731
 30
0.0
 10
7.506865
 20
16.469228
 30
0.0
 10
7.482319
 20
16.469228
 30
0.0
 10
7.462397
 20
16.480731
 30
0.0
  0
SPLINE
  5
160
100
AcDbEntity
  8
cuts
 62
7
100
AcDbSpline
 70
8
 71
3
 72
8
 73
4
 74
0
 40
0
 40
0
 40
0
 40
0
 40
1
 40
1
 40
1
 40
1
 10
7.462397
 20
16.480731
 30
0.0
 10
7.442474
 20
16.492233
 30
0.0
 10
7.430201
 20
16.513490
 30
0.0
 10
7.430201
 20
16.536494
 30
0.0
  0
SPLINE
  5
161
100
AcDbEntity
  8
cuts
 62
7
100
AcDbSpline
 70
8
 71
3
 72
8
 73
4
 74
0
 40
0
 40
0
 40
0
 40
0
 40
1
 40
1
 40
1
 40
1
 10
7.430201
 20
16.536494
 30
0.0
 10
7.430201
 20
16.559499
 30
0.0
 10
7.442474
 20
16.580756
 30
0.0
 10
7.462397
 20
16.592258
 30
0.0
  0
SPLINE
  5
162
100
AcDbEntity
  8
cuts
 62
7
100
AcDbSpline
 70
8
 71
3
 72
8
 73
4
 74
0
 40
0
 40
0
 40
0
 40
0
 40
1
 40
1
 40
1
 40
1
 10
7.462397
 20
16.592258
 30
0.0
 10
7.482319
 20
16.603760
 30
0.0
 10
7.506865
 20
16.603760
 30
0.0
 10
7.526787
 20
16.592258
 30
0.0
  0
SPLINE
  5
163
100
AcDbEntity
  8
cuts
 62
7
100
AcDbSpline
 70
8
 71
3
 72
8
 73
4
 74
0
 40
0
 40
0
 40
0
 40
0
 40
1
 40
1
 40
1
 40
1
 10
7.526787
 20
16.592258
 30
0.0
 10
7.546710
 20
16.580756
 30
0.0
 10
7.558982
 20
16.559499
 30
0.0
 10
7.558982
 20
16.536494
 30
0.0
  0
LWPOLYLINE
  5
164
100
AcDbEntity
  8
cuts
 62
7
100
AcDbPolyline
 90
1
 70
1
 10
6.331889
 20
18.819717
 30
0.0
  0
SPLINE
  5
165
100
AcDbEntity
  8
cuts
 62
7
100
AcDbSpline
 70
8
 71
3
 72
8
 73
4
 74
0
 40
0
 40
0
 40
0
 40
0
 40
1
 40
1
 40
1
 40
1
 10
8.404726
 20
19.579597
 30
0.0
 10
8.404726
 20
19.556592
 30
0.0
 10
8.392453
 20
19.535335
 30
0.0
 10
8.372531
 20
19.523833
 30
0.0
  0
SPLINE
  5
166
100
AcDbEntity
  8
cuts
 62
7
100
AcDbSpline
 70
8
 71
3
 72
8
 73
4
 74
0
 40
0
 40
0
 40
0
 40
0
 40
1
 40
1
 40
1
 40
1
 10
8.372531
 20
19.523833
 30
0.0
 10
8.352608
 20
19.512331
 30
0.0
 10
8.328063
 20
19.512331
 30
0.0
 10
8.308140
 20
19.523833
 30
0.0
  0
SPLINE
  5
167
100
AcDbEntity
  8
cuts
 62
7
100
AcDbSpline
 70
8
 71
3
 72
8
 73
4
 74
0
 40
0
 40
0
 40
0
 40
0
 40
1
 40
1
 40
1
 40
1
 10
8.308140
 20
19.523833
 30
0.0
 10
8.288218
 20
19.535335
 30
0.0
 10
8.275945
 20
19.556592
 30
0.0
 10
8.275945
 20
19.579597
 30
0.0
  0
SPLINE
  5
168
100
AcDbEntity
  8
cuts
 62
7
100
AcDbSpline
 70
8
 71
3
 72
8
 73
4
 74
0
 40
0
 40
0
 40
0
 40
0
 40
1
 40
1
 40
1
 40
1
 10
8.275945
 20
19.579597
 30
0.0
 10
8.275945
 20
19.602601
 30
0.0
 10
8.288218
 20
19.623858
 30
0.0
 10
8.308140
 20
19.635360
 30
0.0
  0
SPLINE
  5
169
100
AcDbEntity
  8
cuts
 62
7
100
AcDbSpline
 70
8
 71
3
 72
8
 73
4
 74
0
 40
0
 40
0
 40
0
 40
0
 40
1
 40
1
 40
1
 40
1
 10
8.308140
 20
19.635360
 30
0.0
 10
8.328063
 20
19.646863
 30
0.0
 10
8.352608
 20
19.646863
 30
0.0
 10
8.372531
 20
19.635360
 30
0.0
  0
SPLINE
  5
16a
100
AcDbEntity
  8
cuts
 62
7
100
AcDbSpline
 70
8
 71
3
 72
8
 73
4
 74
0
 40
0
 40
0
 40
0
 40
0
 40
1
 40
1
 40
1
 40
1
 10
8.372531
 20
19.635360
 30
0.0
 10
8.392453
 20
19.623858
 30
0.0
 10
8.404726
 20
19.602601
 30
0.0
 10
8.404726
 20
19.579597
 30
0.0
  0
LWPOLYLINE
  5
16b
100
AcDbEntity
  8
cuts
 62
7
100
AcDbPolyline
 90
1
 70
1
 10
7.558982
 20
16.536494
 30
0.0
  0
SPLINE
  5
16c
100
AcDbEntity
  8
cuts
 62
7
100
AcDbSpline
 70
8
 71
3
 72
8
 73
4
 74
0
 40
0
 40
0
 40
0
 40
0
 40
1
 40
1
 40
1
 40
1
 10
9.887730
 20
17.629002
 30
0.0
 10
9.887730
 20
17.605998
 30
0.0
 10
9.875457
 20
17.584741
 30
0.0
 10
9.855535
 20
17.573238
 30
0.0
  0
SPLINE
  5
16d
100
AcDbEntity
  8
cuts
 62
7
100
AcDbSpline
 70
8
 71
3
 72
8
 73
4
 74
0
 40
0
 40
0
 40
0
 40
0
 40
1
 40
1
 40
1
 40
1
 10
9.855535
 20
17.573238
 30
0.0
 10
9.835612
 20
17.561736
 30
0.0
 10
9.811067
 20
17.561736
 30
0.0
 10
9.791144
 20
17.573238
 30
0.0
  0
SPLINE
  5
16e
100
AcDbEntity
  8
cuts
 62
7
100
AcDbSpline
 70
8
 71
3
 72
8
 73
4
 74
0
 40
0
 40
0
 40
0
 40
0
 40
1
 40
1
 40
1
 40
1
 10
9.791144
 20
17.573238
 30
0.0
 10
9.771222
 20
17.584741
 30
0.0
 10
9.758949
 20
17.605998
 30
0.0
 10
9.758949
 20
17.629002
 30
0.0
  0
SPLINE
  5
16f
100
AcDbEntity
  8
cuts
 62
7
100
AcDbSpline
 70
8
 71
3
 72
8
 73
4
 74
0
 40
0
 40
0
 40
0
 40
0
 40
1
 40
1
 40
1
 40
1
 10
9.758949
 20
17.629002
 30
0.0
 10
9.758949
 20
17.652007
 30
0.0
 10
9.771222
 20
17.673264
 30
0.0
 10
9.791144
 20
17.684766
 30
0.0
  0
SPLINE
  5
170
100
AcDbEntity
  8
cuts
 62
7
100
AcDbSpline
 70
8
 71
3
 72
8
 73
4
 74
0
 40
0
 40
0
 40
0
 40
0
 40
1
 40
1
 40
1
 40
1
 10
9.791144
 20
17.684766
 30
0.0
 10
9.811067
 20
17.696268
 30
0.0
 10
9.835612
 20
17.696268
 30
0.0
 10
9.855535
 20
17.684766
 30
0.0
  0
SPLINE
  5
171
100
AcDbEntity
  8
cuts
 62
7
100
AcDbSpline
 70
8
 71
3
 72
8
 73
4
 74
0
 40
0
 40
0
 40
0
 40
0
 40
1
 40
1
 40
1
 40
1
 10
9.855535
 20
17.684766
 30
0.0
 10
9.875457
 20
17.673264
 30
0.0
 10
9.887730
 20
17.652007
 30
0.0
 10
9.887730
 20
17.629002
 30
0.0
  0
LWPOLYLINE
  5
172
100
AcDbEntity
  8
cuts
 62
7
100
AcDbPolyline
 90
1
 70
1
 10
8.404726
 20
19.579597
 30
0.0
  0
SPLINE
  5
173
100
AcDbEntity
  8
cuts
 62
7
100
AcDbSpline
 70
8
 71
3
 72
8
 73
4
 74
0
 40
0
 40
0
 40
0
 40
0
 40
1
 40
1
 40
1
 40
1
 10
10.837322
 20
17.858768
 30
0.0
 10
10.837322
 20
17.835763
 30
0.0
 10
10.825050
 20
17.814506
 30
0.0
 10
10.805127
 20
17.803004
 30
0.0
  0
SPLINE
  5
174
100
AcDbEntity
  8
cuts
 62
7
100
AcDbSpline
 70
8
 71
3
 72
8
 73
4
 74
0
 40
0
 40
0
 40
0
 40
0
 40
1
 40
1
 40
1
 40
1
 10
10.805127
 20
17.803004
 30
0.0
 10
10.785205
 20
17.791501
 30
0.0
 10
10.760659
 20
17.791501
 30
0.0
 10
10.740737
 20
17.803004
 30
0.0
  0
SPLINE
  5
175
100
AcDbEntity
  8
cuts
 62
7
100
AcDbSpline
 70
8
 71
3
 72
8
 73
4
 74
0
 40
0
 40
0
 40
0
 40
0
 40
1
 40
1
 40
1
 40
1
 10
10.740737
 20
17.803004
 30
0.0
 10
10.720814
 20
17.814506
 30
0.0
 10
10.708541
 20
17.835763
 30
0.0
 10
10.708541
 20
17.858768
 30
0.0
  0
SPLINE
  5
176
100
AcDbEntity
  8
cuts
 62
7
100
AcDbSpline
 70
8
 71
3
 72
8
 73
4
 74
0
 40
0
 40
0
 40
0
 40
0
 40
1
 40
1
 40
1
 40
1
 10
10.708541
 20
17.858768
 30
0.0
 10
10.708541
 20
17.881772
 30
0.0
 10
10.720814
 20
17.903029
 30
0.0
 10
10.740737
 20
17.914531
 30
0.0
  0
SPLINE
  5
177
100
AcDbEntity
  8
cuts
 62
7
100
AcDbSpline
 70
8
 71
3
 72
8
 73
4
 74
0
 40
0
 40
0
 40
0
 40
0
 40
1
 40
1
 40
1
 40
1
 10
10.740737
 20
17.914531
 30
0.0
 10
10.760659
 20
17.926034
 30
0.0
 10
10.785205
 20
17.926034
 30
0.0
 10
10.805127
 20
17.914531
 30
0.0
  0
SPLINE
  5
178
100
AcDbEntity
  8
cuts
 62
7
100
AcDbSpline
 70
8
 71
3
 72
8
 73
4
 74
0
 40
0
 40
0
 40
0
 40
0
 40
1
 40
1
 40
1
 40
1
 10
10.805127
 20
17.914531
 30
0.0
 10
10.825050
 20
17.903029
 30
0.0
 10
10.837322
 20
17.881772
 30
0.0
 10
10.837322
 20
17.858768
 30
0.0
  0
LWPOLYLINE
  5
179
100
AcDbEntity
  8
cuts
 62
7
100
AcDbPolyline
 90
1
 70
1
 10
9.887730
 20
17.629002
 30
0.0
  0
SPLINE
  5
17a
100
AcDbEntity
  8
cuts
 62
7
100
AcDbSpline
 70
8
 71
3
 72
8
 73
4
 74
0
 40
0
 40
0
 40
0
 40
0
 40
1
 40
1
 40
1
 40
1
 10
12.453887
 20
15.646427
 30
0.0
 10
12.453887
 20
15.623423
 30
0.0
 10
12.441614
 20
15.602165
 30
0.0
 10
12.421691
 20
15.590663
 30
0.0
  0
SPLINE
  5
17b
100
AcDbEntity
  8
cuts
 62
7
100
AcDbSpline
 70
8
 71
3
 72
8
 73
4
 74
0
 40
0
 40
0
 40
0
 40
0
 40
1
 40
1
 40
1
 40
1
 10
12.421691
 20
15.590663
 30
0.0
 10
12.401769
 20
15.579161
 30
0.0
 10
12.377223
 20
15.579161
 30
0.0
 10
12.357301
 20
15.590663
 30
0.0
  0
SPLINE
  5
17c
100
AcDbEntity
  8
cuts
 62
7
100
AcDbSpline
 70
8
 71
3
 72
8
 73
4
 74
0
 40
0
 40
0
 40
0
 40
0
 40
1
 40
1
 40
1
 40
1
 10
12.357301
 20
15.590663
 30
0.0
 10
12.337378
 20
15.602165
 30
0.0
 10
12.325106
 20
15.623423
 30
0.0
 10
12.325106
 20
15.646427
 30
0.0
  0
SPLINE
  5
17d
100
AcDbEntity
  8
cuts
 62
7
100
AcDbSpline
 70
8
 71
3
 72
8
 73
4
 74
0
 40
0
 40
0
 40
0
 40
0
 40
1
 40
1
 40
1
 40
1
 10
12.325106
 20
15.646427
 30
0.0
 10
12.325106
 20
15.669432
 30
0.0
 10
12.337378
 20
15.690689
 30
0.0
 10
12.357301
 20
15.702191
 30
0.0
  0
SPLINE
  5
17e
100
AcDbEntity
  8
cuts
 62
7
100
AcDbSpline
 70
8
 71
3
 72
8
 73
4
 74
0
 40
0
 40
0
 40
0
 40
0
 40
1
 40
1
 40
1
 40
1
 10
12.357301
 20
15.702191
 30
0.0
 10
12.377223
 20
15.713693
 30
0.0
 10
12.401769
 20
15.713693
 30
0.0
 10
12.421691
 20
15.702191
 30
0.0
  0
SPLINE
  5
17f
100
AcDbEntity
  8
cuts
 62
7
100
AcDbSpline
 70
8
 71
3
 72
8
 73
4
 74
0
 40
0
 40
0
 40
0
 40
0
 40
1
 40
1
 40
1
 40
1
 10
12.421691
 20
15.702191
 30
0.0
 10
12.441614
 20
15.690689
 30
0.0
 10
12.453887
 20
15.669432
 30
0.0
 10
12.453887
 20
15.646427
 30
0.0
  0
LWPOLYLINE
  5
180
100
AcDbEntity
  8
cuts
 62
7
100
AcDbPolyline
 90
1
 70
1
 10
10.837322
 20
17.858768
 30
0.0
  0
SPLINE
  5
181
100
AcDbEntity
  8
cuts
 62
7
100
AcDbSpline
 70
8
 71
3
 72
8
 73
4
 74
0
 40
0
 40
0
 40
0
 40
0
 40
1
 40
1
 40
1
 40
1
 10
13.076642
 20
18.491908
 30
0.0
 10
13.076642
 20
18.468903
 30
0.0
 10
13.064369
 20
18.447646
 30
0.0
 10
13.044447
 20
18.436144
 30
0.0
  0
SPLINE
  5
182
100
AcDbEntity
  8
cuts
 62
7
100
AcDbSpline
 70
8
 71
3
 72
8
 73
4
 74
0
 40
0
 40
0
 40
0
 40
0
 40
1
 40
1
 40
1
 40
1
 10
13.044447
 20
18.436144
 30
0.0
 10
13.024524
 20
18.424642
 30
0.0
 10
12.999979
 20
18.424642
 30
0.0
 10
12.980056
 20
18.436144
 30
0.0
  0
SPLINE
  5
183
100
AcDbEntity
  8
cuts
 62
7
100
AcDbSpline
 70
8
 71
3
 72
8
 73
4
 74
0
 40
0
 40
0
 40
0
 40
0
 40
1
 40
1
 40
1
 40
1
 10
12.980056
 20
18.436144
 30
0.0
 10
12.960134
 20
18.447646
 30
0.0
 10
12.947861
 20
18.468903
 30
0.0
 10
12.947861
 20
18.491908
 30
0.0
  0
SPLINE
  5
184
100
AcDbEntity
  8
cuts
 62
7
100
AcDbSpline
 70
8
 71
3
 72
8
 73
4
 74
0
 40
0
 40
0
 40
0
 40
0
 40
1
 40
1
 40
1
 40
1
 10
12.947861
 20
18.491908
 30
0.0
 10
12.947861
 20
18.514912
 30
0.0
 10
12.960134
 20
18.536169
 30
0.0
 10
12.980056
 20
18.547671
 30
0.0
  0
SPLINE
  5
185
100
AcDbEntity
  8
cuts
 62
7
100
AcDbSpline
 70
8
 71
3
 72
8
 73
4
 74
0
 40
0
 40
0
 40
0
 40
0
 40
1
 40
1
 40
1
 40
1
 10
12.980056
 20
18.547671
 30
0.0
 10
12.999979
 20
18.559174
 30
0.0
 10
13.024524
 20
18.559174
 30
0.0
 10
13.044447
 20
18.547671
 30
0.0
  0
SPLINE
  5
186
100
AcDbEntity
  8
cuts
 62
7
100
AcDbSpline
 70
8
 71
3
 72
8
 73
4
 74
0
 40
0
 40
0
 40
0
 40
0
 40
1
 40
1
 40
1
 40
1
 10
13.044447
 20
18.547671
 30
0.0
 10
13.064369
 20
18.536169
 30
0.0
 10
13.076642
 20
18.514912
 30
0.0
 10
13.076642
 20
18.491908
 30
0.0
  0
LWPOLYLINE
  5
187
100
AcDbEntity
  8
cuts
 62
7
100
AcDbPolyline
 90
1
 70
1
 10
12.453887
 20
15.646427
 30
0.0
  0
SPLINE
  5
188
100
AcDbEntity
  8
cuts
 62
7
100
AcDbSpline
 70
8
 71
3
 72
8
 73
4
 74
0
 40
0
 40
0
 40
0
 40
0
 40
1
 40
1
 40
1
 40
1
 10
17.315244
 20
14.825434
 30
0.0
 10
17.315244
 20
14.802430
 30
0.0
 10
17.302971
 20
14.781173
 30
0.0
 10
17.283049
 20
14.769670
 30
0.0
  0
SPLINE
  5
189
100
AcDbEntity
  8
cuts
 62
7
100
AcDbSpline
 70
8
 71
3
 72
8
 73
4
 74
0
 40
0
 40
0
 40
0
 40
0
 40
1
 40
1
 40
1
 40
1
 10
17.283049
 20
14.769670
 30
0.0
 10
17.263126
 20
14.758168
 30
0.0
 10
17.238581
 20
14.758168
 30
0.0
 10
17.218658
 20
14.769670
 30
0.0
  0
SPLINE
  5
18a
100
AcDbEntity
  8
cuts
 62
7
100
AcDbSpline
 70
8
 71
3
 72
8
 73
4
 74
0
 40
0
 40
0
 40
0
 40
0
 40
1
 40
1
 40
1
 40
1
 10
17.218658
 20
14.769670
 30
0.0
 10
17.198736
 20
14.781173
 30
0.0
 10
17.186463
 20
14.802430
 30
0.0
 10
17.186463
 20
14.825434
 30
0.0
  0
SPLINE
  5
18b
100
AcDbEntity
  8
cuts
 62
7
100
AcDbSpline
 70
8
 71
3
 72
8
 73
4
 74
0
 40
0
 40
0
 40
0
 40
0
 40
1
 40
1
 40
1
 40
1
 10
17.186463
 20
14.825434
 30
0.0
 10
17.186463
 20
14.848439
 30
0.0
 10
17.198736
 20
14.869696
 30
0.0
 10
17.218658
 20
14.881198
 30
0.0
  0
SPLINE
  5
18c
100
AcDbEntity
  8
cuts
 62
7
100
AcDbSpline
 70
8
 71
3
 72
8
 73
4
 74
0
 40
0
 40
0
 40
0
 40
0
 40
1
 40
1
 40
1
 40
1
 10
17.218658
 20
14.881198
 30
0.0
 10
17.238581
 20
14.892700
 30
0.0
 10
17.263126
 20
14.892700
 30
0.0
 10
17.283049
 20
14.881198
 30
0.0
  0
SPLINE
  5
18d
100
AcDbEntity
  8
cuts
 62
7
100
AcDbSpline
 70
8
 71
3
 72
8
 73
4
 74
0
 40
0
 40
0
 40
0
 40
0
 40
1
 40
1
 40
1
 40
1
 10
17.283049
 20
14.881198
 30
0.0
 10
17.302971
 20
14.869696
 30
0.0
 10
17.315244
 20
14.848439
 30
0.0
 10
17.315244
 20
14.825434
 30
0.0
  0
LWPOLYLINE
  5
18e
100
AcDbEntity
  8
cuts
 62
7
100
AcDbPolyline
 90
1
 70
1
 10
13.076642
 20
18.491908
 30
0.0
  0
SPLINE
  5
18f
100
AcDbEntity
  8
cuts
 62
7
100
AcDbSpline
 70
8
 71
3
 72
8
 73
4
 74
0
 40
0
 40
0
 40
0
 40
0
 40
1
 40
1
 40
1
 40
1
 10
4.397365
 20
17.454390
 30
0.0
 10
4.397365
 20
17.431385
 30
0.0
 10
4.385092
 20
17.410128
 30
0.0
 10
4.365170
 20
17.398626
 30
0.0
  0
SPLINE
  5
190
100
AcDbEntity
  8
cuts
 62
7
100
AcDbSpline
 70
8
 71
3
 72
8
 73
4
 74
0
 40
0
 40
0
 40
0
 40
0
 40
1
 40
1
 40
1
 40
1
 10
4.365170
 20
17.398626
 30
0.0
 10
4.345247
 20
17.387124
 30
0.0
 10
4.320702
 20
17.387124
 30
0.0
 10
4.300779
 20
17.398626
 30
0.0
  0
SPLINE
  5
191
100
AcDbEntity
  8
cuts
 62
7
100
AcDbSpline
 70
8
 71
3
 72
8
 73
4
 74
0
 40
0
 40
0
 40
0
 40
0
 40
1
 40
1
 40
1
 40
1
 10
4.300779
 20
17.398626
 30
0.0
 10
4.280857
 20
17.410128
 30
0.0
 10
4.268584
 20
17.431385
 30
0.0
 10
4.268584
 20
17.454390
 30
0.0
  0
SPLINE
  5
192
100
AcDbEntity
  8
cuts
 62
7
100
AcDbSpline
 70
8
 71
3
 72
8
 73
4
 74
0
 40
0
 40
0
 40
0
 40
0
 40
1
 40
1
 40
1
 40
1
 10
4.268584
 20
17.454390
 30
0.0
 10
4.268584
 20
17.477394
 30
0.0
 10
4.280857
 20
17.498652
 30
0.0
 10
4.300779
 20
17.510154
 30
0.0
  0
SPLINE
  5
193
100
AcDbEntity
  8
cuts
 62
7
100
AcDbSpline
 70
8
 71
3
 72
8
 73
4
 74
0
 40
0
 40
0
 40
0
 40
0
 40
1
 40
1
 40
1
 40
1
 10
4.300779
 20
17.510154
 30
0.0
 10
4.320702
 20
17.521656
 30
0.0
 10
4.345247
 20
17.521656
 30
0.0
 10
4.365170
 20
17.510154
 30
0.0
  0
SPLINE
  5
194
100
AcDbEntity
  8
cuts
 62
7
100
AcDbSpline
 70
8
 71
3
 72
8
 73
4
 74
0
 40
0
 40
0
 40
0
 40
0
 40
1
 40
1
 40
1
 40
1
 10
4.365170
 20
17.510154
 30
0.0
 10
4.385092
 20
17.498652
 30
0.0
 10
4.397365
 20
17.477394
 30
0.0
 10
4.397365
 20
17.454390
 30
0.0
  0
LWPOLYLINE
  5
195
100
AcDbEntity
  8
cuts
 62
7
100
AcDbPolyline
 90
1
 70
1
 10
17.315244
 20
14.825434
 30
0.0
  0
SPLINE
  5
196
100
AcDbEntity
  8
cuts
 62
7
100
AcDbSpline
 70
8
 71
3
 72
8
 73
4
 74
0
 40
0
 40
0
 40
0
 40
0
 40
1
 40
1
 40
1
 40
1
 10
5.687703
 20
15.214414
 30
0.0
 10
5.687703
 20
15.191410
 30
0.0
 10
5.675431
 20
15.170153
 30
0.0
 10
5.655508
 20
15.158651
 30
0.0
  0
SPLINE
  5
197
100
AcDbEntity
  8
cuts
 62
7
100
AcDbSpline
 70
8
 71
3
 72
8
 73
4
 74
0
 40
0
 40
0
 40
0
 40
0
 40
1
 40
1
 40
1
 40
1
 10
5.655508
 20
15.158651
 30
0.0
 10
5.635586
 20
15.147148
 30
0.0
 10
5.611040
 20
15.147148
 30
0.0
 10
5.591118
 20
15.158651
 30
0.0
  0
SPLINE
  5
198
100
AcDbEntity
  8
cuts
 62
7
100
AcDbSpline
 70
8
 71
3
 72
8
 73
4
 74
0
 40
0
 40
0
 40
0
 40
0
 40
1
 40
1
 40
1
 40
1
 10
5.591118
 20
15.158651
 30
0.0
 10
5.571195
 20
15.170153
 30
0.0
 10
5.558922
 20
15.191410
 30
0.0
 10
5.558922
 20
15.214414
 30
0.0
  0
SPLINE
  5
199
100
AcDbEntity
  8
cuts
 62
7
100
AcDbSpline
 70
8
 71
3
 72
8
 73
4
 74
0
 40
0
 40
0
 40
0
 40
0
 40
1
 40
1
 40
1
 40
1
 10
5.558922
 20
15.214414
 30
0.0
 10
5.558922
 20
15.237419
 30
0.0
 10
5.571195
 20
15.258676
 30
0.0
 10
5.591118
 20
15.270178
 30
0.0
  0
SPLINE
  5
19a
100
AcDbEntity
  8
cuts
 62
7
100
AcDbSpline
 70
8
 71
3
 72
8
 73
4
 74
0
 40
0
 40
0
 40
0
 40
0
 40
1
 40
1
 40
1
 40
1
 10
5.591118
 20
15.270178
 30
0.0
 10
5.611040
 20
15.281680
 30
0.0
 10
5.635586
 20
15.281680
 30
0.0
 10
5.655508
 20
15.270178
 30
0.0
  0
SPLINE
  5
19b
100
AcDbEntity
  8
cuts
 62
7
100
AcDbSpline
 70
8
 71
3
 72
8
 73
4
 74
0
 40
0
 40
0
 40
0
 40
0
 40
1
 40
1
 40
1
 40
1
 10
5.655508
 20
15.270178
 30
0.0
 10
5.675431
 20
15.258676
 30
0.0
 10
5.687703
 20
15.237419
 30
0.0
 10
5.687703
 20
15.214414
 30
0.0
  0
LWPOLYLINE
  5
19c
100
AcDbEntity
  8
cuts
 62
7
100
AcDbPolyline
 90
1
 70
1
 10
4.397365
 20
17.454390
 30
0.0
  0
SPLINE
  5
19d
100
AcDbEntity
  8
cuts
 62
7
100
AcDbSpline
 70
8
 71
3
 72
8
 73
4
 74
0
 40
0
 40
0
 40
0
 40
0
 40
1
 40
1
 40
1
 40
1
 10
1.765297
 20
15.821205
 30
0.0
 10
1.765297
 20
15.798200
 30
0.0
 10
1.753024
 20
15.776943
 30
0.0
 10
1.733101
 20
15.765441
 30
0.0
  0
SPLINE
  5
19e
100
AcDbEntity
  8
cuts
 62
7
100
AcDbSpline
 70
8
 71
3
 72
8
 73
4
 74
0
 40
0
 40
0
 40
0
 40
0
 40
1
 40
1
 40
1
 40
1
 10
1.733101
 20
15.765441
 30
0.0
 10
1.713179
 20
15.753939
 30
0.0
 10
1.688633
 20
15.753939
 30
0.0
 10
1.668711
 20
15.765441
 30
0.0
  0
SPLINE
  5
19f
100
AcDbEntity
  8
cuts
 62
7
100
AcDbSpline
 70
8
 71
3
 72
8
 73
4
 74
0
 40
0
 40
0
 40
0
 40
0
 40
1
 40
1
 40
1
 40
1
 10
1.668711
 20
15.765441
 30
0.0
 10
1.648788
 20
15.776943
 30
0.0
 10
1.636516
 20
15.798200
 30
0.0
 10
1.636516
 20
15.821205
 30
0.0
  0
SPLINE
  5
1a0
100
AcDbEntity
  8
cuts
 62
7
100
AcDbSpline
 70
8
 71
3
 72
8
 73
4
 74
0
 40
0
 40
0
 40
0
 40
0
 40
1
 40
1
 40
1
 40
1
 10
1.636516
 20
15.821205
 30
0.0
 10
1.636516
 20
15.844210
 30
0.0
 10
1.648788
 20
15.865467
 30
0.0
 10
1.668711
 20
15.876969
 30
0.0
  0
SPLINE
  5
1a1
100
AcDbEntity
  8
cuts
 62
7
100
AcDbSpline
 70
8
 71
3
 72
8
 73
4
 74
0
 40
0
 40
0
 40
0
 40
0
 40
1
 40
1
 40
1
 40
1
 10
1.668711
 20
15.876969
 30
0.0
 10
1.688633
 20
15.888471
 30
0.0
 10
1.713179
 20
15.888471
 30
0.0
 10
1.733101
 20
15.876969
 30
0.0
  0
SPLINE
  5
1a2
100
AcDbEntity
  8
cuts
 62
7
100
AcDbSpline
 70
8
 71
3
 72
8
 73
4
 74
0
 40
0
 40
0
 40
0
 40
0
 40
1
 40
1
 40
1
 40
1
 10
1.733101
 20
15.876969
 30
0.0
 10
1.753024
 20
15.865467
 30
0.0
 10
1.765297
 20
15.844210
 30
0.0
 10
1.765297
 20
15.821205
 30
0.0
  0
LWPOLYLINE
  5
1a3
100
AcDbEntity
  8
cuts
 62
7
100
AcDbPolyline
 90
1
 70
1
 10
5.687703
 20
15.214414
 30
0.0
  0
SPLINE
  5
1a4
100
AcDbEntity
  8
cuts
 62
7
100
AcDbSpline
 70
8
 71
3
 72
8
 73
4
 74
0
 40
0
 40
0
 40
0
 40
0
 40
1
 40
1
 40
1
 40
1
 10
7.201881
 20
15.234494
 30
0.0
 10
7.201881
 20
15.211489
 30
0.0
 10
7.189608
 20
15.190232
 30
0.0
 10
7.169686
 20
15.178730
 30
0.0
  0
SPLINE
  5
1a5
100
AcDbEntity
  8
cuts
 62
7
100
AcDbSpline
 70
8
 71
3
 72
8
 73
4
 74
0
 40
0
 40
0
 40
0
 40
0
 40
1
 40
1
 40
1
 40
1
 10
7.169686
 20
15.178730
 30
0.0
 10
7.149763
 20
15.167228
 30
0.0
 10
7.125218
 20
15.167228
 30
0.0
 10
7.105295
 20
15.178730
 30
0.0
  0
SPLINE
  5
1a6
100
AcDbEntity
  8
cuts
 62
7
100
AcDbSpline
 70
8
 71
3
 72
8
 73
4
 74
0
 40
0
 40
0
 40
0
 40
0
 40
1
 40
1
 40
1
 40
1
 10
7.105295
 20
15.178730
 30
0.0
 10
7.085373
 20
15.190232
 30
0.0
 10
7.073100
 20
15.211489
 30
0.0
 10
7.073100
 20
15.234494
 30
0.0
  0
SPLINE
  5
1a7
100
AcDbEntity
  8
cuts
 62
7
100
AcDbSpline
 70
8
 71
3
 72
8
 73
4
 74
0
 40
0
 40
0
 40
0
 40
0
 40
1
 40
1
 40
1
 40
1
 10
7.073100
 20
15.234494
 30
0.0
 10
7.073100
 20
15.257498
 30
0.0
 10
7.085373
 20
15.278755
 30
0.0
 10
7.105295
 20
15.290258
 30
0.0
  0
SPLINE
  5
1a8
100
AcDbEntity
  8
cuts
 62
7
100
AcDbSpline
 70
8
 71
3
 72
8
 73
4
 74
0
 40
0
 40
0
 40
0
 40
0
 40
1
 40
1
 40
1
 40
1
 10
7.105295
 20
15.290258
 30
0.0
 10
7.125218
 20
15.301760
 30
0.0
 10
7.149763
 20
15.301760
 30
0.0
 10
7.169686
 20
15.290258
 30
0.0
  0
SPLINE
  5
1a9
100
AcDbEntity
  8
cuts
 62
7
100
AcDbSpline
 70
8
 71
3
 72
8
 73
4
 74
0
 40
0
 40
0
 40
0
 40
0
 40
1
 40
1
 40
1
 40
1
 10
7.169686
 20
15.290258
 30
0.0
 10
7.189608
 20
15.278755
 30
0.0
 10
7.201881
 20
15.257498
 30
0.0
 10
7.201881
 20
15.234494
 30
0.0
  0
LWPOLYLINE
  5
1aa
100
AcDbEntity
  8
cuts
 62
7
100
AcDbPolyline
 90
1
 70
1
 10
1.765297
 20
15.821205
 30
0.0
  0
SPLINE
  5
1ab
100
AcDbEntity
  8
cuts
 62
7
100
AcDbSpline
 70
8
 71
3
 72
8
 73
4
 74
0
 40
0
 40
0
 40
0
 40
0
 40
1
 40
1
 40
1
 40
1
 10
10.118429
 20
11.548741
 30
0.0
 10
10.118429
 20
11.525737
 30
0.0
 10
10.106156
 20
11.504480
 30
0.0
 10
10.086234
 20
11.492977
 30
0.0
  0
SPLINE
  5
1ac
100
AcDbEntity
  8
cuts
 62
7
100
AcDbSpline
 70
8
 71
3
 72
8
 73
4
 74
0
 40
0
 40
0
 40
0
 40
0
 40
1
 40
1
 40
1
 40
1
 10
10.086234
 20
11.492977
 30
0.0
 10
10.066311
 20
11.481475
 30
0.0
 10
10.041766
 20
11.481475
 30
0.0
 10
10.021843
 20
11.492977
 30
0.0
  0
SPLINE
  5
1ad
100
AcDbEntity
  8
cuts
 62
7
100
AcDbSpline
 70
8
 71
3
 72
8
 73
4
 74
0
 40
0
 40
0
 40
0
 40
0
 40
1
 40
1
 40
1
 40
1
 10
10.021843
 20
11.492977
 30
0.0
 10
10.001921
 20
11.504480
 30
0.0
 10
9.989648
 20
11.525737
 30
0.0
 10
9.989648
 20
11.548741
 30
0.0
  0
SPLINE
  5
1ae
100
AcDbEntity
  8
cuts
 62
7
100
AcDbSpline
 70
8
 71
3
 72
8
 73
4
 74
0
 40
0
 40
0
 40
0
 40
0
 40
1
 40
1
 40
1
 40
1
 10
9.989648
 20
11.548741
 30
0.0
 10
9.989648
 20
11.571746
 30
0.0
 10
10.001921
 20
11.593003
 30
0.0
 10
10.021843
 20
11.604505
 30
0.0
  0
SPLINE
  5
1af
100
AcDbEntity
  8
cuts
 62
7
100
AcDbSpline
 70
8
 71
3
 72
8
 73
4
 74
0
 40
0
 40
0
 40
0
 40
0
 40
1
 40
1
 40
1
 40
1
 10
10.021843
 20
11.604505
 30
0.0
 10
10.041766
 20
11.616007
 30
0.0
 10
10.066311
 20
11.616007
 30
0.0
 10
10.086234
 20
11.604505
 30
0.0
  0
SPLINE
  5
1b0
100
AcDbEntity
  8
cuts
 62
7
100
AcDbSpline
 70
8
 71
3
 72
8
 73
4
 74
0
 40
0
 40
0
 40
0
 40
0
 40
1
 40
1
 40
1
 40
1
 10
10.086234
 20
11.604505
 30
0.0
 10
10.106156
 20
11.593003
 30
0.0
 10
10.118429
 20
11.571746
 30
0.0
 10
10.118429
 20
11.548741
 30
0.0
  0
LWPOLYLINE
  5
1b1
100
AcDbEntity
  8
cuts
 62
7
100
AcDbPolyline
 90
1
 70
1
 10
7.201881
 20
15.234494
 30
0.0
  0
SPLINE
  5
1b2
100
AcDbEntity
  8
cuts
 62
7
100
AcDbSpline
 70
8
 71
3
 72
8
 73
4
 74
0
 40
0
 40
0
 40
0
 40
0
 40
1
 40
1
 40
1
 40
1
 10
4.322303
 20
14.069631
 30
0.0
 10
4.322303
 20
14.046626
 30
0.0
 10
4.310030
 20
14.025369
 30
0.0
 10
4.290107
 20
14.013867
 30
0.0
  0
SPLINE
  5
1b3
100
AcDbEntity
  8
cuts
 62
7
100
AcDbSpline
 70
8
 71
3
 72
8
 73
4
 74
0
 40
0
 40
0
 40
0
 40
0
 40
1
 40
1
 40
1
 40
1
 10
4.290107
 20
14.013867
 30
0.0
 10
4.270185
 20
14.002365
 30
0.0
 10
4.245639
 20
14.002365
 30
0.0
 10
4.225717
 20
14.013867
 30
0.0
  0
SPLINE
  5
1b4
100
AcDbEntity
  8
cuts
 62
7
100
AcDbSpline
 70
8
 71
3
 72
8
 73
4
 74
0
 40
0
 40
0
 40
0
 40
0
 40
1
 40
1
 40
1
 40
1
 10
4.225717
 20
14.013867
 30
0.0
 10
4.205794
 20
14.025369
 30
0.0
 10
4.193522
 20
14.046626
 30
0.0
 10
4.193522
 20
14.069631
 30
0.0
  0
SPLINE
  5
1b5
100
AcDbEntity
  8
cuts
 62
7
100
AcDbSpline
 70
8
 71
3
 72
8
 73
4
 74
0
 40
0
 40
0
 40
0
 40
0
 40
1
 40
1
 40
1
 40
1
 10
4.193522
 20
14.069631
 30
0.0
 10
4.193522
 20
14.092635
 30
0.0
 10
4.205794
 20
14.113892
 30
0.0
 10
4.225717
 20
14.125395
 30
0.0
  0
SPLINE
  5
1b6
100
AcDbEntity
  8
cuts
 62
7
100
AcDbSpline
 70
8
 71
3
 72
8
 73
4
 74
0
 40
0
 40
0
 40
0
 40
0
 40
1
 40
1
 40
1
 40
1
 10
4.225717
 20
14.125395
 30
0.0
 10
4.245639
 20
14.136897
 30
0.0
 10
4.270185
 20
14.136897
 30
0.0
 10
4.290107
 20
14.125395
 30
0.0
  0
SPLINE
  5
1b7
100
AcDbEntity
  8
cuts
 62
7
100
AcDbSpline
 70
8
 71
3
 72
8
 73
4
 74
0
 40
0
 40
0
 40
0
 40
0
 40
1
 40
1
 40
1
 40
1
 10
4.290107
 20
14.125395
 30
0.0
 10
4.310030
 20
14.113892
 30
0.0
 10
4.322303
 20
14.092635
 30
0.0
 10
4.322303
 20
14.069631
 30
0.0
  0
LWPOLYLINE
  5
1b8
100
AcDbEntity
  8
cuts
 62
7
100
AcDbPolyline
 90
1
 70
1
 10
10.118429
 20
11.548741
 30
0.0
  0
SPLINE
  5
1b9
100
AcDbEntity
  8
cuts
 62
7
100
AcDbSpline
 70
8
 71
3
 72
8
 73
4
 74
0
 40
0
 40
0
 40
0
 40
0
 40
1
 40
1
 40
1
 40
1
 10
6.094694
 20
11.694861
 30
0.0
 10
6.094694
 20
11.671856
 30
0.0
 10
6.082421
 20
11.650599
 30
0.0
 10
6.062499
 20
11.639097
 30
0.0
  0
SPLINE
  5
1ba
100
AcDbEntity
  8
cuts
 62
7
100
AcDbSpline
 70
8
 71
3
 72
8
 73
4
 74
0
 40
0
 40
0
 40
0
 40
0
 40
1
 40
1
 40
1
 40
1
 10
6.062499
 20
11.639097
 30
0.0
 10
6.042576
 20
11.627595
 30
0.0
 10
6.018031
 20
11.627595
 30
0.0
 10
5.998108
 20
11.639097
 30
0.0
  0
SPLINE
  5
1bb
100
AcDbEntity
  8
cuts
 62
7
100
AcDbSpline
 70
8
 71
3
 72
8
 73
4
 74
0
 40
0
 40
0
 40
0
 40
0
 40
1
 40
1
 40
1
 40
1
 10
5.998108
 20
11.639097
 30
0.0
 10
5.978186
 20
11.650599
 30
0.0
 10
5.965913
 20
11.671856
 30
0.0
 10
5.965913
 20
11.694861
 30
0.0
  0
SPLINE
  5
1bc
100
AcDbEntity
  8
cuts
 62
7
100
AcDbSpline
 70
8
 71
3
 72
8
 73
4
 74
0
 40
0
 40
0
 40
0
 40
0
 40
1
 40
1
 40
1
 40
1
 10
5.965913
 20
11.694861
 30
0.0
 10
5.965913
 20
11.717865
 30
0.0
 10
5.978186
 20
11.739123
 30
0.0
 10
5.998108
 20
11.750625
 30
0.0
  0
SPLINE
  5
1bd
100
AcDbEntity
  8
cuts
 62
7
100
AcDbSpline
 70
8
 71
3
 72
8
 73
4
 74
0
 40
0
 40
0
 40
0
 40
0
 40
1
 40
1
 40
1
 40
1
 10
5.998108
 20
11.750625
 30
0.0
 10
6.018031
 20
11.762127
 30
0.0
 10
6.042576
 20
11.762127
 30
0.0
 10
6.062499
 20
11.750625
 30
0.0
  0
SPLINE
  5
1be
100
AcDbEntity
  8
cuts
 62
7
100
AcDbSpline
 70
8
 71
3
 72
8
 73
4
 74
0
 40
0
 40
0
 40
0
 40
0
 40
1
 40
1
 40
1
 40
1
 10
6.062499
 20
11.750625
 30
0.0
 10
6.082421
 20
11.739123
 30
0.0
 10
6.094694
 20
11.717865
 30
0.0
 10
6.094694
 20
11.694861
 30
0.0
  0
LWPOLYLINE
  5
1bf
100
AcDbEntity
  8
cuts
 62
7
100
AcDbPolyline
 90
1
 70
1
 10
4.322303
 20
14.069631
 30
0.0
  0
SPLINE
  5
1c0
100
AcDbEntity
  8
cuts
 62
7
100
AcDbSpline
 70
8
 71
3
 72
8
 73
4
 74
0
 40
0
 40
0
 40
0
 40
0
 40
1
 40
1
 40
1
 40
1
 10
1.261204
 20
13.763914
 30
0.0
 10
1.261204
 20
13.740909
 30
0.0
 10
1.248932
 20
13.719652
 30
0.0
 10
1.229009
 20
13.708150
 30
0.0
  0
SPLINE
  5
1c1
100
AcDbEntity
  8
cuts
 62
7
100
AcDbSpline
 70
8
 71
3
 72
8
 73
4
 74
0
 40
0
 40
0
 40
0
 40
0
 40
1
 40
1
 40
1
 40
1
 10
1.229009
 20
13.708150
 30
0.0
 10
1.209087
 20
13.696648
 30
0.0
 10
1.184541
 20
13.696648
 30
0.0
 10
1.164619
 20
13.708150
 30
0.0
  0
SPLINE
  5
1c2
100
AcDbEntity
  8
cuts
 62
7
100
AcDbSpline
 70
8
 71
3
 72
8
 73
4
 74
0
 40
0
 40
0
 40
0
 40
0
 40
1
 40
1
 40
1
 40
1
 10
1.164619
 20
13.708150
 30
0.0
 10
1.144696
 20
13.719652
 30
0.0
 10
1.132423
 20
13.740909
 30
0.0
 10
1.132423
 20
13.763914
 30
0.0
  0
SPLINE
  5
1c3
100
AcDbEntity
  8
cuts
 62
7
100
AcDbSpline
 70
8
 71
3
 72
8
 73
4
 74
0
 40
0
 40
0
 40
0
 40
0
 40
1
 40
1
 40
1
 40
1
 10
1.132423
 20
13.763914
 30
0.0
 10
1.132423
 20
13.786918
 30
0.0
 10
1.144696
 20
13.808175
 30
0.0
 10
1.164619
 20
13.819677
 30
0.0
  0
SPLINE
  5
1c4
100
AcDbEntity
  8
cuts
 62
7
100
AcDbSpline
 70
8
 71
3
 72
8
 73
4
 74
0
 40
0
 40
0
 40
0
 40
0
 40
1
 40
1
 40
1
 40
1
 10
1.164619
 20
13.819677
 30
0.0
 10
1.184541
 20
13.831180
 30
0.0
 10
1.209087
 20
13.831180
 30
0.0
 10
1.229009
 20
13.819677
 30
0.0
  0
SPLINE
  5
1c5
100
AcDbEntity
  8
cuts
 62
7
100
AcDbSpline
 70
8
 71
3
 72
8
 73
4
 74
0
 40
0
 40
0
 40
0
 40
0
 40
1
 40
1
 40
1
 40
1
 10
1.229009
 20
13.819677
 30
0.0
 10
1.248932
 20
13.808175
 30
0.0
 10
1.261204
 20
13.786918
 30
0.0
 10
1.261204
 20
13.763914
 30
0.0
  0
LWPOLYLINE
  5
1c6
100
AcDbEntity
  8
cuts
 62
7
100
AcDbPolyline
 90
1
 70
1
 10
6.094694
 20
11.694861
 30
0.0
  0
SPLINE
  5
1c7
100
AcDbEntity
  8
cuts
 62
7
100
AcDbSpline
 70
8
 71
3
 72
8
 73
4
 74
0
 40
0
 40
0
 40
0
 40
0
 40
1
 40
1
 40
1
 40
1
 10
2.779407
 20
11.910378
 30
0.0
 10
2.779407
 20
11.874816
 30
0.0
 10
2.750579
 20
11.845988
 30
0.0
 10
2.715017
 20
11.845988
 30
0.0
  0
SPLINE
  5
1c8
100
AcDbEntity
  8
cuts
 62
7
100
AcDbSpline
 70
8
 71
3
 72
8
 73
4
 74
0
 40
0
 40
0
 40
0
 40
0
 40
1
 40
1
 40
1
 40
1
 10
2.715017
 20
11.845988
 30
0.0
 10
2.679455
 20
11.845988
 30
0.0
 10
2.650626
 20
11.874816
 30
0.0
 10
2.650626
 20
11.910378
 30
0.0
  0
SPLINE
  5
1c9
100
AcDbEntity
  8
cuts
 62
7
100
AcDbSpline
 70
8
 71
3
 72
8
 73
4
 74
0
 40
0
 40
0
 40
0
 40
0
 40
1
 40
1
 40
1
 40
1
 10
2.650626
 20
11.910378
 30
0.0
 10
2.650626
 20
11.933383
 30
0.0
 10
2.662899
 20
11.954640
 30
0.0
 10
2.682821
 20
11.966142
 30
0.0
  0
SPLINE
  5
1ca
100
AcDbEntity
  8
cuts
 62
7
100
AcDbSpline
 70
8
 71
3
 72
8
 73
4
 74
0
 40
0
 40
0
 40
0
 40
0
 40
1
 40
1
 40
1
 40
1
 10
2.682821
 20
11.966142
 30
0.0
 10
2.702744
 20
11.977644
 30
0.0
 10
2.727289
 20
11.977644
 30
0.0
 10
2.747212
 20
11.966142
 30
0.0
  0
SPLINE
  5
1cb
100
AcDbEntity
  8
cuts
 62
7
100
AcDbSpline
 70
8
 71
3
 72
8
 73
4
 74
0
 40
0
 40
0
 40
0
 40
0
 40
1
 40
1
 40
1
 40
1
 10
2.747212
 20
11.966142
 30
0.0
 10
2.767134
 20
11.954640
 30
0.0
 10
2.779407
 20
11.933383
 30
0.0
 10
2.779407
 20
11.910378
 30
0.0
  0
LWPOLYLINE
  5
1cc
100
AcDbEntity
  8
cuts
 62
7
100
AcDbPolyline
 90
1
 70
1
 10
1.261204
 20
13.763914
 30
0.0
  0
SPLINE
  5
1cd
100
AcDbEntity
  8
cuts
 62
7
100
AcDbSpline
 70
8
 71
3
 72
8
 73
4
 74
0
 40
0
 40
0
 40
0
 40
0
 40
1
 40
1
 40
1
 40
1
 10
11.365472
 20
13.694932
 30
0.0
 10
11.365472
 20
13.671928
 30
0.0
 10
11.353200
 20
13.650671
 30
0.0
 10
11.333277
 20
13.639168
 30
0.0
  0
SPLINE
  5
1ce
100
AcDbEntity
  8
cuts
 62
7
100
AcDbSpline
 70
8
 71
3
 72
8
 73
4
 74
0
 40
0
 40
0
 40
0
 40
0
 40
1
 40
1
 40
1
 40
1
 10
11.333277
 20
13.639168
 30
0.0
 10
11.313355
 20
13.627666
 30
0.0
 10
11.288809
 20
13.627666
 30
0.0
 10
11.268887
 20
13.639168
 30
0.0
  0
SPLINE
  5
1cf
100
AcDbEntity
  8
cuts
 62
7
100
AcDbSpline
 70
8
 71
3
 72
8
 73
4
 74
0
 40
0
 40
0
 40
0
 40
0
 40
1
 40
1
 40
1
 40
1
 10
11.268887
 20
13.639168
 30
0.0
 10
11.248964
 20
13.650671
 30
0.0
 10
11.236691
 20
13.671928
 30
0.0
 10
11.236691
 20
13.694932
 30
0.0
  0
SPLINE
  5
1d0
100
AcDbEntity
  8
cuts
 62
7
100
AcDbSpline
 70
8
 71
3
 72
8
 73
4
 74
0
 40
0
 40
0
 40
0
 40
0
 40
1
 40
1
 40
1
 40
1
 10
11.236691
 20
13.694932
 30
0.0
 10
11.236691
 20
13.717937
 30
0.0
 10
11.248964
 20
13.739194
 30
0.0
 10
11.268887
 20
13.750696
 30
0.0
  0
SPLINE
  5
1d1
100
AcDbEntity
  8
cuts
 62
7
100
AcDbSpline
 70
8
 71
3
 72
8
 73
4
 74
0
 40
0
 40
0
 40
0
 40
0
 40
1
 40
1
 40
1
 40
1
 10
11.268887
 20
13.750696
 30
0.0
 10
11.288809
 20
13.762198
 30
0.0
 10
11.313355
 20
13.762198
 30
0.0
 10
11.333277
 20
13.750696
 30
0.0
  0
SPLINE
  5
1d2
100
AcDbEntity
  8
cuts
 62
7
100
AcDbSpline
 70
8
 71
3
 72
8
 73
4
 74
0
 40
0
 40
0
 40
0
 40
0
 40
1
 40
1
 40
1
 40
1
 10
11.333277
 20
13.750696
 30
0.0
 10
11.353200
 20
13.739194
 30
0.0
 10
11.365472
 20
13.717937
 30
0.0
 10
11.365472
 20
13.694932
 30
0.0
  0
LWPOLYLINE
  5
1d3
100
AcDbEntity
  8
cuts
 62
7
100
AcDbPolyline
 90
1
 70
1
 10
2.779407
 20
11.910378
 30
0.0
  0
SPLINE
  5
1d4
100
AcDbEntity
  8
cuts
 62
7
100
AcDbSpline
 70
8
 71
3
 72
8
 73
4
 74
0
 40
0
 40
0
 40
0
 40
0
 40
1
 40
1
 40
1
 40
1
 10
14.117086
 20
11.916642
 30
0.0
 10
14.117086
 20
11.893638
 30
0.0
 10
14.104813
 20
11.872381
 30
0.0
 10
14.084891
 20
11.860879
 30
0.0
  0
SPLINE
  5
1d5
100
AcDbEntity
  8
cuts
 62
7
100
AcDbSpline
 70
8
 71
3
 72
8
 73
4
 74
0
 40
0
 40
0
 40
0
 40
0
 40
1
 40
1
 40
1
 40
1
 10
14.084891
 20
11.860879
 30
0.0
 10
14.064968
 20
11.849376
 30
0.0
 10
14.040423
 20
11.849376
 30
0.0
 10
14.020500
 20
11.860879
 30
0.0
  0
SPLINE
  5
1d6
100
AcDbEntity
  8
cuts
 62
7
100
AcDbSpline
 70
8
 71
3
 72
8
 73
4
 74
0
 40
0
 40
0
 40
0
 40
0
 40
1
 40
1
 40
1
 40
1
 10
14.020500
 20
11.860879
 30
0.0
 10
14.000578
 20
11.872381
 30
0.0
 10
13.988305
 20
11.893638
 30
0.0
 10
13.988305
 20
11.916642
 30
0.0
  0
SPLINE
  5
1d7
100
AcDbEntity
  8
cuts
 62
7
100
AcDbSpline
 70
8
 71
3
 72
8
 73
4
 74
0
 40
0
 40
0
 40
0
 40
0
 40
1
 40
1
 40
1
 40
1
 10
13.988305
 20
11.916642
 30
0.0
 10
13.988305
 20
11.939647
 30
0.0
 10
14.000578
 20
11.960904
 30
0.0
 10
14.020500
 20
11.972406
 30
0.0
  0
SPLINE
  5
1d8
100
AcDbEntity
  8
cuts
 62
7
100
AcDbSpline
 70
8
 71
3
 72
8
 73
4
 74
0
 40
0
 40
0
 40
0
 40
0
 40
1
 40
1
 40
1
 40
1
 10
14.020500
 20
11.972406
 30
0.0
 10
14.040423
 20
11.983908
 30
0.0
 10
14.064968
 20
11.983908
 30
0.0
 10
14.084891
 20
11.972406
 30
0.0
  0
SPLINE
  5
1d9
100
AcDbEntity
  8
cuts
 62
7
100
AcDbSpline
 70
8
 71
3
 72
8
 73
4
 74
0
 40
0
 40
0
 40
0
 40
0
 40
1
 40
1
 40
1
 40
1
 10
14.084891
 20
11.972406
 30
0.0
 10
14.104813
 20
11.960904
 30
0.0
 10
14.117086
 20
11.939647
 30
0.0
 10
14.117086
 20
11.916642
 30
0.0
  0
LWPOLYLINE
  5
1da
100
AcDbEntity
  8
cuts
 62
7
100
AcDbPolyline
 90
1
 70
1
 10
11.365472
 20
13.694932
 30
0.0
  0
SPLINE
  5
1db
100
AcDbEntity
  8
cuts
 62
7
100
AcDbSpline
 70
8
 71
3
 72
8
 73
4
 74
0
 40
0
 40
0
 40
0
 40
0
 40
1
 40
1
 40
1
 40
1
 10
15.319984
 20
13.823437
 30
0.0
 10
15.319984
 20
13.800433
 30
0.0
 10
15.307712
 20
13.779176
 30
0.0
 10
15.287789
 20
13.767674
 30
0.0
  0
SPLINE
  5
1dc
100
AcDbEntity
  8
cuts
 62
7
100
AcDbSpline
 70
8
 71
3
 72
8
 73
4
 74
0
 40
0
 40
0
 40
0
 40
0
 40
1
 40
1
 40
1
 40
1
 10
15.287789
 20
13.767674
 30
0.0
 10
15.267867
 20
13.756171
 30
0.0
 10
15.243321
 20
13.756171
 30
0.0
 10
15.223399
 20
13.767674
 30
0.0
  0
SPLINE
  5
1dd
100
AcDbEntity
  8
cuts
 62
7
100
AcDbSpline
 70
8
 71
3
 72
8
 73
4
 74
0
 40
0
 40
0
 40
0
 40
0
 40
1
 40
1
 40
1
 40
1
 10
15.223399
 20
13.767674
 30
0.0
 10
15.203476
 20
13.779176
 30
0.0
 10
15.191203
 20
13.800433
 30
0.0
 10
15.191203
 20
13.823437
 30
0.0
  0
SPLINE
  5
1de
100
AcDbEntity
  8
cuts
 62
7
100
AcDbSpline
 70
8
 71
3
 72
8
 73
4
 74
0
 40
0
 40
0
 40
0
 40
0
 40
1
 40
1
 40
1
 40
1
 10
15.191203
 20
13.823437
 30
0.0
 10
15.191203
 20
13.846442
 30
0.0
 10
15.203476
 20
13.867699
 30
0.0
 10
15.223399
 20
13.879201
 30
0.0
  0
SPLINE
  5
1df
100
AcDbEntity
  8
cuts
 62
7
100
AcDbSpline
 70
8
 71
3
 72
8
 73
4
 74
0
 40
0
 40
0
 40
0
 40
0
 40
1
 40
1
 40
1
 40
1
 10
15.223399
 20
13.879201
 30
0.0
 10
15.243321
 20
13.890703
 30
0.0
 10
15.267867
 20
13.890703
 30
0.0
 10
15.287789
 20
13.879201
 30
0.0
  0
SPLINE
  5
1e0
100
AcDbEntity
  8
cuts
 62
7
100
AcDbSpline
 70
8
 71
3
 72
8
 73
4
 74
0
 40
0
 40
0
 40
0
 40
0
 40
1
 40
1
 40
1
 40
1
 10
15.287789
 20
13.879201
 30
0.0
 10
15.307712
 20
13.867699
 30
0.0
 10
15.319984
 20
13.846442
 30
0.0
 10
15.319984
 20
13.823437
 30
0.0
  0
LWPOLYLINE
  5
1e1
100
AcDbEntity
  8
cuts
 62
7
100
AcDbPolyline
 90
1
 70
1
 10
14.117086
 20
11.916642
 30
0.0
  0
SPLINE
  5
1e2
100
AcDbEntity
  8
cuts
 62
7
100
AcDbSpline
 70
8
 71
3
 72
8
 73
4
 74
0
 40
0
 40
0
 40
0
 40
0
 40
1
 40
1
 40
1
 40
1
 10
17.319957
 20
12.745572
 30
0.0
 10
17.319957
 20
12.722567
 30
0.0
 10
17.307684
 20
12.701310
 30
0.0
 10
17.287762
 20
12.689808
 30
0.0
  0
SPLINE
  5
1e3
100
AcDbEntity
  8
cuts
 62
7
100
AcDbSpline
 70
8
 71
3
 72
8
 73
4
 74
0
 40
0
 40
0
 40
0
 40
0
 40
1
 40
1
 40
1
 40
1
 10
17.287762
 20
12.689808
 30
0.0
 10
17.267840
 20
12.678306
 30
0.0
 10
17.243294
 20
12.678306
 30
0.0
 10
17.223372
 20
12.689808
 30
0.0
  0
SPLINE
  5
1e4
100
AcDbEntity
  8
cuts
 62
7
100
AcDbSpline
 70
8
 71
3
 72
8
 73
4
 74
0
 40
0
 40
0
 40
0
 40
0
 40
1
 40
1
 40
1
 40
1
 10
17.223372
 20
12.689808
 30
0.0
 10
17.203449
 20
12.701310
 30
0.0
 10
17.191176
 20
12.722567
 30
0.0
 10
17.191176
 20
12.745572
 30
0.0
  0
SPLINE
  5
1e5
100
AcDbEntity
  8
cuts
 62
7
100
AcDbSpline
 70
8
 71
3
 72
8
 73
4
 74
0
 40
0
 40
0
 40
0
 40
0
 40
1
 40
1
 40
1
 40
1
 10
17.191176
 20
12.745572
 30
0.0
 10
17.191176
 20
12.768576
 30
0.0
 10
17.203449
 20
12.789833
 30
0.0
 10
17.223372
 20
12.801335
 30
0.0
  0
SPLINE
  5
1e6
100
AcDbEntity
  8
cuts
 62
7
100
AcDbSpline
 70
8
 71
3
 72
8
 73
4
 74
0
 40
0
 40
0
 40
0
 40
0
 40
1
 40
1
 40
1
 40
1
 10
17.223372
 20
12.801335
 30
0.0
 10
17.243294
 20
12.812838
 30
0.0
 10
17.267840
 20
12.812838
 30
0.0
 10
17.287762
 20
12.801335
 30
0.0
  0
SPLINE
  5
1e7
100
AcDbEntity
  8
cuts
 62
7
100
AcDbSpline
 70
8
 71
3
 72
8
 73
4
 74
0
 40
0
 40
0
 40
0
 40
0
 40
1
 40
1
 40
1
 40
1
 10
17.287762
 20
12.801335
 30
0.0
 10
17.307684
 20
12.789833
 30
0.0
 10
17.319957
 20
12.768576
 30
0.0
 10
17.319957
 20
12.745572
 30
0.0
  0
LWPOLYLINE
  5
1e8
100
AcDbEntity
  8
cuts
 62
7
100
AcDbPolyline
 90
1
 70
1
 10
15.319984
 20
13.823437
 30
0.0
  0
SPLINE
  5
1e9
100
AcDbEntity
  8
cuts
 62
7
100
AcDbSpline
 70
8
 71
3
 72
8
 73
4
 74
0
 40
0
 40
0
 40
0
 40
0
 40
1
 40
1
 40
1
 40
1
 10
1.604995
 20
11.016365
 30
0.0
 10
1.604995
 20
10.980803
 30
0.0
 10
1.576167
 20
10.951974
 30
0.0
 10
1.540605
 20
10.951974
 30
0.0
  0
SPLINE
  5
1ea
100
AcDbEntity
  8
cuts
 62
7
100
AcDbSpline
 70
8
 71
3
 72
8
 73
4
 74
0
 40
0
 40
0
 40
0
 40
0
 40
1
 40
1
 40
1
 40
1
 10
1.540605
 20
10.951974
 30
0.0
 10
1.505043
 20
10.951974
 30
0.0
 10
1.476214
 20
10.980803
 30
0.0
 10
1.476214
 20
11.016365
 30
0.0
  0
SPLINE
  5
1eb
100
AcDbEntity
  8
cuts
 62
7
100
AcDbSpline
 70
8
 71
3
 72
8
 73
4
 74
0
 40
0
 40
0
 40
0
 40
0
 40
1
 40
1
 40
1
 40
1
 10
1.476214
 20
11.016365
 30
0.0
 10
1.476214
 20
11.051927
 30
0.0
 10
1.505043
 20
11.080755
 30
0.0
 10
1.540605
 20
11.080755
 30
0.0
  0
SPLINE
  5
1ec
100
AcDbEntity
  8
cuts
 62
7
100
AcDbSpline
 70
8
 71
3
 72
8
 73
4
 74
0
 40
0
 40
0
 40
0
 40
0
 40
1
 40
1
 40
1
 40
1
 10
1.540605
 20
11.080755
 30
0.0
 10
1.576167
 20
11.080755
 30
0.0
 10
1.604995
 20
11.051927
 30
0.0
 10
1.604995
 20
11.016365
 30
0.0
  0
LWPOLYLINE
  5
1ed
100
AcDbEntity
  8
cuts
 62
7
100
AcDbPolyline
 90
1
 70
1
 10
17.319957
 20
12.745572
 30
0.0
  0
SPLINE
  5
1ee
100
AcDbEntity
  8
cuts
 62
7
100
AcDbSpline
 70
8
 71
3
 72
8
 73
4
 74
0
 40
0
 40
0
 40
0
 40
0
 40
1
 40
1
 40
1
 40
1
 10
4.952860
 20
8.475462
 30
0.0
 10
4.952860
 20
8.452458
 30
0.0
 10
4.940587
 20
8.431201
 30
0.0
 10
4.920665
 20
8.419698
 30
0.0
  0
SPLINE
  5
1ef
100
AcDbEntity
  8
cuts
 62
7
100
AcDbSpline
 70
8
 71
3
 72
8
 73
4
 74
0
 40
0
 40
0
 40
0
 40
0
 40
1
 40
1
 40
1
 40
1
 10
4.920665
 20
8.419698
 30
0.0
 10
4.900742
 20
8.408196
 30
0.0
 10
4.876197
 20
8.408196
 30
0.0
 10
4.856274
 20
8.419698
 30
0.0
  0
SPLINE
  5
1f0
100
AcDbEntity
  8
cuts
 62
7
100
AcDbSpline
 70
8
 71
3
 72
8
 73
4
 74
0
 40
0
 40
0
 40
0
 40
0
 40
1
 40
1
 40
1
 40
1
 10
4.856274
 20
8.419698
 30
0.0
 10
4.836352
 20
8.431201
 30
0.0
 10
4.824079
 20
8.452458
 30
0.0
 10
4.824079
 20
8.475462
 30
0.0
  0
SPLINE
  5
1f1
100
AcDbEntity
  8
cuts
 62
7
100
AcDbSpline
 70
8
 71
3
 72
8
 73
4
 74
0
 40
0
 40
0
 40
0
 40
0
 40
1
 40
1
 40
1
 40
1
 10
4.824079
 20
8.475462
 30
0.0
 10
4.824079
 20
8.498467
 30
0.0
 10
4.836352
 20
8.519724
 30
0.0
 10
4.856274
 20
8.531226
 30
0.0
  0
SPLINE
  5
1f2
100
AcDbEntity
  8
cuts
 62
7
100
AcDbSpline
 70
8
 71
3
 72
8
 73
4
 74
0
 40
0
 40
0
 40
0
 40
0
 40
1
 40
1
 40
1
 40
1
 10
4.856274
 20
8.531226
 30
0.0
 10
4.876197
 20
8.542728
 30
0.0
 10
4.900742
 20
8.542728
 30
0.0
 10
4.920665
 20
8.531226
 30
0.0
  0
SPLINE
  5
1f3
100
AcDbEntity
  8
cuts
 62
7
100
AcDbSpline
 70
8
 71
3
 72
8
 73
4
 74
0
 40
0
 40
0
 40
0
 40
0
 40
1
 40
1
 40
1
 40
1
 10
4.920665
 20
8.531226
 30
0.0
 10
4.940587
 20
8.519724
 30
0.0
 10
4.952860
 20
8.498467
 30
0.0
 10
4.952860
 20
8.475462
 30
0.0
  0
LWPOLYLINE
  5
1f4
100
AcDbEntity
  8
cuts
 62
7
100
AcDbPolyline
 90
1
 70
1
 10
1.604995
 20
11.016365
 30
0.0
  0
SPLINE
  5
1f5
100
AcDbEntity
  8
cuts
 62
7
100
AcDbSpline
 70
8
 71
3
 72
8
 73
4
 74
0
 40
0
 40
0
 40
0
 40
0
 40
1
 40
1
 40
1
 40
1
 10
6.690886
 20
10.330388
 30
0.0
 10
6.690886
 20
10.307383
 30
0.0
 10
6.678613
 20
10.286126
 30
0.0
 10
6.658691
 20
10.274624
 30
0.0
  0
SPLINE
  5
1f6
100
AcDbEntity
  8
cuts
 62
7
100
AcDbSpline
 70
8
 71
3
 72
8
 73
4
 74
0
 40
0
 40
0
 40
0
 40
0
 40
1
 40
1
 40
1
 40
1
 10
6.658691
 20
10.274624
 30
0.0
 10
6.638768
 20
10.263122
 30
0.0
 10
6.614223
 20
10.263122
 30
0.0
 10
6.594300
 20
10.274624
 30
0.0
  0
SPLINE
  5
1f7
100
AcDbEntity
  8
cuts
 62
7
100
AcDbSpline
 70
8
 71
3
 72
8
 73
4
 74
0
 40
0
 40
0
 40
0
 40
0
 40
1
 40
1
 40
1
 40
1
 10
6.594300
 20
10.274624
 30
0.0
 10
6.574378
 20
10.286126
 30
0.0
 10
6.562105
 20
10.307383
 30
0.0
 10
6.562105
 20
10.330388
 30
0.0
  0
SPLINE
  5
1f8
100
AcDbEntity
  8
cuts
 62
7
100
AcDbSpline
 70
8
 71
3
 72
8
 73
4
 74
0
 40
0
 40
0
 40
0
 40
0
 40
1
 40
1
 40
1
 40
1
 10
6.562105
 20
10.330388
 30
0.0
 10
6.562105
 20
10.353392
 30
0.0
 10
6.574378
 20
10.374649
 30
0.0
 10
6.594300
 20
10.386151
 30
0.0
  0
SPLINE
  5
1f9
100
AcDbEntity
  8
cuts
 62
7
100
AcDbSpline
 70
8
 71
3
 72
8
 73
4
 74
0
 40
0
 40
0
 40
0
 40
0
 40
1
 40
1
 40
1
 40
1
 10
6.594300
 20
10.386151
 30
0.0
 10
6.614223
 20
10.397654
 30
0.0
 10
6.638768
 20
10.397654
 30
0.0
 10
6.658691
 20
10.386151
 30
0.0
  0
SPLINE
  5
1fa
100
AcDbEntity
  8
cuts
 62
7
100
AcDbSpline
 70
8
 71
3
 72
8
 73
4
 74
0
 40
0
 40
0
 40
0
 40
0
 40
1
 40
1
 40
1
 40
1
 10
6.658691
 20
10.386151
 30
0.0
 10
6.678613
 20
10.374649
 30
0.0
 10
6.690886
 20
10.353392
 30
0.0
 10
6.690886
 20
10.330388
 30
0.0
  0
LWPOLYLINE
  5
1fb
100
AcDbEntity
  8
cuts
 62
7
100
AcDbPolyline
 90
1
 70
1
 10
4.952860
 20
8.475462
 30
0.0
  0
SPLINE
  5
1fc
100
AcDbEntity
  8
cuts
 62
7
100
AcDbSpline
 70
8
 71
3
 72
8
 73
4
 74
0
 40
0
 40
0
 40
0
 40
0
 40
1
 40
1
 40
1
 40
1
 10
8.216637
 20
8.510008
 30
0.0
 10
8.216637
 20
8.487004
 30
0.0
 10
8.204365
 20
8.465747
 30
0.0
 10
8.184442
 20
8.454244
 30
0.0
  0
SPLINE
  5
1fd
100
AcDbEntity
  8
cuts
 62
7
100
AcDbSpline
 70
8
 71
3
 72
8
 73
4
 74
0
 40
0
 40
0
 40
0
 40
0
 40
1
 40
1
 40
1
 40
1
 10
8.184442
 20
8.454244
 30
0.0
 10
8.164520
 20
8.442742
 30
0.0
 10
8.139974
 20
8.442742
 30
0.0
 10
8.120052
 20
8.454244
 30
0.0
  0
SPLINE
  5
1fe
100
AcDbEntity
  8
cuts
 62
7
100
AcDbSpline
 70
8
 71
3
 72
8
 73
4
 74
0
 40
0
 40
0
 40
0
 40
0
 40
1
 40
1
 40
1
 40
1
 10
8.120052
 20
8.454244
 30
0.0
 10
8.100129
 20
8.465747
 30
0.0
 10
8.087856
 20
8.487004
 30
0.0
 10
8.087856
 20
8.510008
 30
0.0
  0
SPLINE
  5
1ff
100
AcDbEntity
  8
cuts
 62
7
100
AcDbSpline
 70
8
 71
3
 72
8
 73
4
 74
0
 40
0
 40
0
 40
0
 40
0
 40
1
 40
1
 40
1
 40
1
 10
8.087856
 20
8.510008
 30
0.0
 10
8.087856
 20
8.533013
 30
0.0
 10
8.100129
 20
8.554270
 30
0.0
 10
8.120052
 20
8.565772
 30
0.0
  0
SPLINE
  5
200
100
AcDbEntity
  8
cuts
 62
7
100
AcDbSpline
 70
8
 71
3
 72
8
 73
4
 74
0
 40
0
 40
0
 40
0
 40
0
 40
1
 40
1
 40
1
 40
1
 10
8.120052
 20
8.565772
 30
0.0
 10
8.139974
 20
8.577274
 30
0.0
 10
8.164520
 20
8.577274
 30
0.0
 10
8.184442
 20
8.565772
 30
0.0
  0
SPLINE
  5
201
100
AcDbEntity
  8
cuts
 62
7
100
AcDbSpline
 70
8
 71
3
 72
8
 73
4
 74
0
 40
0
 40
0
 40
0
 40
0
 40
1
 40
1
 40
1
 40
1
 10
8.184442
 20
8.565772
 30
0.0
 10
8.204365
 20
8.554270
 30
0.0
 10
8.216637
 20
8.533013
 30
0.0
 10
8.216637
 20
8.510008
 30
0.0
  0
LWPOLYLINE
  5
202
100
AcDbEntity
  8
cuts
 62
7
100
AcDbPolyline
 90
1
 70
1
 10
6.690886
 20
10.330388
 30
0.0
  0
SPLINE
  5
203
100
AcDbEntity
  8
cuts
 62
7
100
AcDbSpline
 70
8
 71
3
 72
8
 73
4
 74
0
 40
0
 40
0
 40
0
 40
0
 40
1
 40
1
 40
1
 40
1
 10
9.326681
 20
10.880729
 30
0.0
 10
9.326681
 20
10.857725
 30
0.0
 10
9.314408
 20
10.836467
 30
0.0
 10
9.294485
 20
10.824965
 30
0.0
  0
SPLINE
  5
204
100
AcDbEntity
  8
cuts
 62
7
100
AcDbSpline
 70
8
 71
3
 72
8
 73
4
 74
0
 40
0
 40
0
 40
0
 40
0
 40
1
 40
1
 40
1
 40
1
 10
9.294485
 20
10.824965
 30
0.0
 10
9.274563
 20
10.813463
 30
0.0
 10
9.250017
 20
10.813463
 30
0.0
 10
9.230095
 20
10.824965
 30
0.0
  0
SPLINE
  5
205
100
AcDbEntity
  8
cuts
 62
7
100
AcDbSpline
 70
8
 71
3
 72
8
 73
4
 74
0
 40
0
 40
0
 40
0
 40
0
 40
1
 40
1
 40
1
 40
1
 10
9.230095
 20
10.824965
 30
0.0
 10
9.210173
 20
10.836467
 30
0.0
 10
9.197900
 20
10.857725
 30
0.0
 10
9.197900
 20
10.880729
 30
0.0
  0
SPLINE
  5
206
100
AcDbEntity
  8
cuts
 62
7
100
AcDbSpline
 70
8
 71
3
 72
8
 73
4
 74
0
 40
0
 40
0
 40
0
 40
0
 40
1
 40
1
 40
1
 40
1
 10
9.197900
 20
10.880729
 30
0.0
 10
9.197900
 20
10.903734
 30
0.0
 10
9.210173
 20
10.924991
 30
0.0
 10
9.230095
 20
10.936493
 30
0.0
  0
SPLINE
  5
207
100
AcDbEntity
  8
cuts
 62
7
100
AcDbSpline
 70
8
 71
3
 72
8
 73
4
 74
0
 40
0
 40
0
 40
0
 40
0
 40
1
 40
1
 40
1
 40
1
 10
9.230095
 20
10.936493
 30
0.0
 10
9.250017
 20
10.947995
 30
0.0
 10
9.274563
 20
10.947995
 30
0.0
 10
9.294485
 20
10.936493
 30
0.0
  0
SPLINE
  5
208
100
AcDbEntity
  8
cuts
 62
7
100
AcDbSpline
 70
8
 71
3
 72
8
 73
4
 74
0
 40
0
 40
0
 40
0
 40
0
 40
1
 40
1
 40
1
 40
1
 10
9.294485
 20
10.936493
 30
0.0
 10
9.314408
 20
10.924991
 30
0.0
 10
9.326681
 20
10.903734
 30
0.0
 10
9.326681
 20
10.880729
 30
0.0
  0
LWPOLYLINE
  5
209
100
AcDbEntity
  8
cuts
 62
7
100
AcDbPolyline
 90
1
 70
1
 10
8.216637
 20
8.510008
 30
0.0
  0
SPLINE
  5
20a
100
AcDbEntity
  8
cuts
 62
7
100
AcDbSpline
 70
8
 71
3
 72
8
 73
4
 74
0
 40
0
 40
0
 40
0
 40
0
 40
1
 40
1
 40
1
 40
1
 10
10.709094
 20
9.238317
 30
0.0
 10
10.709094
 20
9.215313
 30
0.0
 10
10.696822
 20
9.194056
 30
0.0
 10
10.676899
 20
9.182553
 30
0.0
  0
SPLINE
  5
20b
100
AcDbEntity
  8
cuts
 62
7
100
AcDbSpline
 70
8
 71
3
 72
8
 73
4
 74
0
 40
0
 40
0
 40
0
 40
0
 40
1
 40
1
 40
1
 40
1
 10
10.676899
 20
9.182553
 30
0.0
 10
10.656977
 20
9.171051
 30
0.0
 10
10.632431
 20
9.171051
 30
0.0
 10
10.612509
 20
9.182553
 30
0.0
  0
SPLINE
  5
20c
100
AcDbEntity
  8
cuts
 62
7
100
AcDbSpline
 70
8
 71
3
 72
8
 73
4
 74
0
 40
0
 40
0
 40
0
 40
0
 40
1
 40
1
 40
1
 40
1
 10
10.612509
 20
9.182553
 30
0.0
 10
10.592586
 20
9.194056
 30
0.0
 10
10.580313
 20
9.215313
 30
0.0
 10
10.580313
 20
9.238317
 30
0.0
  0
SPLINE
  5
20d
100
AcDbEntity
  8
cuts
 62
7
100
AcDbSpline
 70
8
 71
3
 72
8
 73
4
 74
0
 40
0
 40
0
 40
0
 40
0
 40
1
 40
1
 40
1
 40
1
 10
10.580313
 20
9.238317
 30
0.0
 10
10.580313
 20
9.261322
 30
0.0
 10
10.592586
 20
9.282579
 30
0.0
 10
10.612509
 20
9.294081
 30
0.0
  0
SPLINE
  5
20e
100
AcDbEntity
  8
cuts
 62
7
100
AcDbSpline
 70
8
 71
3
 72
8
 73
4
 74
0
 40
0
 40
0
 40
0
 40
0
 40
1
 40
1
 40
1
 40
1
 10
10.612509
 20
9.294081
 30
0.0
 10
10.632431
 20
9.305583
 30
0.0
 10
10.656977
 20
9.305583
 30
0.0
 10
10.676899
 20
9.294081
 30
0.0
  0
SPLINE
  5
20f
100
AcDbEntity
  8
cuts
 62
7
100
AcDbSpline
 70
8
 71
3
 72
8
 73
4
 74
0
 40
0
 40
0
 40
0
 40
0
 40
1
 40
1
 40
1
 40
1
 10
10.676899
 20
9.294081
 30
0.0
 10
10.696822
 20
9.282579
 30
0.0
 10
10.709094
 20
9.261322
 30
0.0
 10
10.709094
 20
9.238317
 30
0.0
  0
LWPOLYLINE
  5
210
100
AcDbEntity
  8
cuts
 62
7
100
AcDbPolyline
 90
1
 70
1
 10
9.326681
 20
10.880729
 30
0.0
  0
SPLINE
  5
211
100
AcDbEntity
  8
cuts
 62
7
100
AcDbSpline
 70
8
 71
3
 72
8
 73
4
 74
0
 40
0
 40
0
 40
0
 40
0
 40
1
 40
1
 40
1
 40
1
 10
11.691822
 20
10.497545
 30
0.0
 10
11.691822
 20
10.474540
 30
0.0
 10
11.679549
 20
10.453283
 30
0.0
 10
11.659626
 20
10.441781
 30
0.0
  0
SPLINE
  5
212
100
AcDbEntity
  8
cuts
 62
7
100
AcDbSpline
 70
8
 71
3
 72
8
 73
4
 74
0
 40
0
 40
0
 40
0
 40
0
 40
1
 40
1
 40
1
 40
1
 10
11.659626
 20
10.441781
 30
0.0
 10
11.639704
 20
10.430279
 30
0.0
 10
11.615158
 20
10.430279
 30
0.0
 10
11.595236
 20
10.441781
 30
0.0
  0
SPLINE
  5
213
100
AcDbEntity
  8
cuts
 62
7
100
AcDbSpline
 70
8
 71
3
 72
8
 73
4
 74
0
 40
0
 40
0
 40
0
 40
0
 40
1
 40
1
 40
1
 40
1
 10
11.595236
 20
10.441781
 30
0.0
 10
11.575313
 20
10.453283
 30
0.0
 10
11.563041
 20
10.474540
 30
0.0
 10
11.563041
 20
10.497545
 30
0.0
  0
SPLINE
  5
214
100
AcDbEntity
  8
cuts
 62
7
100
AcDbSpline
 70
8
 71
3
 72
8
 73
4
 74
0
 40
0
 40
0
 40
0
 40
0
 40
1
 40
1
 40
1
 40
1
 10
11.563041
 20
10.497545
 30
0.0
 10
11.563041
 20
10.520549
 30
0.0
 10
11.575313
 20
10.541806
 30
0.0
 10
11.595236
 20
10.553308
 30
0.0
  0
SPLINE
  5
215
100
AcDbEntity
  8
cuts
 62
7
100
AcDbSpline
 70
8
 71
3
 72
8
 73
4
 74
0
 40
0
 40
0
 40
0
 40
0
 40
1
 40
1
 40
1
 40
1
 10
11.595236
 20
10.553308
 30
0.0
 10
11.615158
 20
10.564811
 30
0.0
 10
11.639704
 20
10.564811
 30
0.0
 10
11.659626
 20
10.553308
 30
0.0
  0
SPLINE
  5
216
100
AcDbEntity
  8
cuts
 62
7
100
AcDbSpline
 70
8
 71
3
 72
8
 73
4
 74
0
 40
0
 40
0
 40
0
 40
0
 40
1
 40
1
 40
1
 40
1
 10
11.659626
 20
10.553308
 30
0.0
 10
11.679549
 20
10.541806
 30
0.0
 10
11.691822
 20
10.520549
 30
0.0
 10
11.691822
 20
10.497545
 30
0.0
  0
LWPOLYLINE
  5
217
100
AcDbEntity
  8
cuts
 62
7
100
AcDbPolyline
 90
1
 70
1
 10
10.709094
 20
9.238317
 30
0.0
  0
SPLINE
  5
218
100
AcDbEntity
  8
cuts
 62
7
100
AcDbSpline
 70
8
 71
3
 72
8
 73
4
 74
0
 40
0
 40
0
 40
0
 40
0
 40
1
 40
1
 40
1
 40
1
 10
12.844511
 20
9.204835
 30
0.0
 10
12.844511
 20
9.181831
 30
0.0
 10
12.832239
 20
9.160573
 30
0.0
 10
12.812316
 20
9.149071
 30
0.0
  0
SPLINE
  5
219
100
AcDbEntity
  8
cuts
 62
7
100
AcDbSpline
 70
8
 71
3
 72
8
 73
4
 74
0
 40
0
 40
0
 40
0
 40
0
 40
1
 40
1
 40
1
 40
1
 10
12.812316
 20
9.149071
 30
0.0
 10
12.792394
 20
9.137569
 30
0.0
 10
12.767848
 20
9.137569
 30
0.0
 10
12.747926
 20
9.149071
 30
0.0
  0
SPLINE
  5
21a
100
AcDbEntity
  8
cuts
 62
7
100
AcDbSpline
 70
8
 71
3
 72
8
 73
4
 74
0
 40
0
 40
0
 40
0
 40
0
 40
1
 40
1
 40
1
 40
1
 10
12.747926
 20
9.149071
 30
0.0
 10
12.728003
 20
9.160573
 30
0.0
 10
12.715730
 20
9.181831
 30
0.0
 10
12.715730
 20
9.204835
 30
0.0
  0
SPLINE
  5
21b
100
AcDbEntity
  8
cuts
 62
7
100
AcDbSpline
 70
8
 71
3
 72
8
 73
4
 74
0
 40
0
 40
0
 40
0
 40
0
 40
1
 40
1
 40
1
 40
1
 10
12.715730
 20
9.204835
 30
0.0
 10
12.715730
 20
9.227840
 30
0.0
 10
12.728003
 20
9.249097
 30
0.0
 10
12.747926
 20
9.260599
 30
0.0
  0
SPLINE
  5
21c
100
AcDbEntity
  8
cuts
 62
7
100
AcDbSpline
 70
8
 71
3
 72
8
 73
4
 74
0
 40
0
 40
0
 40
0
 40
0
 40
1
 40
1
 40
1
 40
1
 10
12.747926
 20
9.260599
 30
0.0
 10
12.767848
 20
9.272101
 30
0.0
 10
12.792394
 20
9.272101
 30
0.0
 10
12.812316
 20
9.260599
 30
0.0
  0
SPLINE
  5
21d
100
AcDbEntity
  8
cuts
 62
7
100
AcDbSpline
 70
8
 71
3
 72
8
 73
4
 74
0
 40
0
 40
0
 40
0
 40
0
 40
1
 40
1
 40
1
 40
1
 10
12.812316
 20
9.260599
 30
0.0
 10
12.832239
 20
9.249097
 30
0.0
 10
12.844511
 20
9.227840
 30
0.0
 10
12.844511
 20
9.204835
 30
0.0
  0
LWPOLYLINE
  5
21e
100
AcDbEntity
  8
cuts
 62
7
100
AcDbPolyline
 90
1
 70
1
 10
11.691822
 20
10.497545
 30
0.0
  0
SPLINE
  5
21f
100
AcDbEntity
  8
cuts
 62
7
100
AcDbSpline
 70
8
 71
3
 72
8
 73
4
 74
0
 40
0
 40
0
 40
0
 40
0
 40
1
 40
1
 40
1
 40
1
 10
13.969772
 20
11.150339
 30
0.0
 10
13.969772
 20
11.127334
 30
0.0
 10
13.957499
 20
11.106077
 30
0.0
 10
13.937576
 20
11.094575
 30
0.0
  0
SPLINE
  5
220
100
AcDbEntity
  8
cuts
 62
7
100
AcDbSpline
 70
8
 71
3
 72
8
 73
4
 74
0
 40
0
 40
0
 40
0
 40
0
 40
1
 40
1
 40
1
 40
1
 10
13.937576
 20
11.094575
 30
0.0
 10
13.917654
 20
11.083073
 30
0.0
 10
13.893108
 20
11.083073
 30
0.0
 10
13.873186
 20
11.094575
 30
0.0
  0
SPLINE
  5
221
100
AcDbEntity
  8
cuts
 62
7
100
AcDbSpline
 70
8
 71
3
 72
8
 73
4
 74
0
 40
0
 40
0
 40
0
 40
0
 40
1
 40
1
 40
1
 40
1
 10
13.873186
 20
11.094575
 30
0.0
 10
13.853263
 20
11.106077
 30
0.0
 10
13.840991
 20
11.127334
 30
0.0
 10
13.840991
 20
11.150339
 30
0.0
  0
SPLINE
  5
222
100
AcDbEntity
  8
cuts
 62
7
100
AcDbSpline
 70
8
 71
3
 72
8
 73
4
 74
0
 40
0
 40
0
 40
0
 40
0
 40
1
 40
1
 40
1
 40
1
 10
13.840991
 20
11.150339
 30
0.0
 10
13.840991
 20
11.173343
 30
0.0
 10
13.853263
 20
11.194600
 30
0.0
 10
13.873186
 20
11.206102
 30
0.0
  0
SPLINE
  5
223
100
AcDbEntity
  8
cuts
 62
7
100
AcDbSpline
 70
8
 71
3
 72
8
 73
4
 74
0
 40
0
 40
0
 40
0
 40
0
 40
1
 40
1
 40
1
 40
1
 10
13.873186
 20
11.206102
 30
0.0
 10
13.893108
 20
11.217605
 30
0.0
 10
13.917654
 20
11.217605
 30
0.0
 10
13.937576
 20
11.206102
 30
0.0
  0
SPLINE
  5
224
100
AcDbEntity
  8
cuts
 62
7
100
AcDbSpline
 70
8
 71
3
 72
8
 73
4
 74
0
 40
0
 40
0
 40
0
 40
0
 40
1
 40
1
 40
1
 40
1
 10
13.937576
 20
11.206102
 30
0.0
 10
13.957499
 20
11.194600
 30
0.0
 10
13.969772
 20
11.173343
 30
0.0
 10
13.969772
 20
11.150339
 30
0.0
  0
LWPOLYLINE
  5
225
100
AcDbEntity
  8
cuts
 62
7
100
AcDbPolyline
 90
1
 70
1
 10
12.844511
 20
9.204835
 30
0.0
  0
SPLINE
  5
226
100
AcDbEntity
  8
cuts
 62
7
100
AcDbSpline
 70
8
 71
3
 72
8
 73
4
 74
0
 40
0
 40
0
 40
0
 40
0
 40
1
 40
1
 40
1
 40
1
 10
17.055324
 20
9.374993
 30
0.0
 10
17.055324
 20
9.351989
 30
0.0
 10
17.043051
 20
9.330732
 30
0.0
 10
17.023129
 20
9.319229
 30
0.0
  0
SPLINE
  5
227
100
AcDbEntity
  8
cuts
 62
7
100
AcDbSpline
 70
8
 71
3
 72
8
 73
4
 74
0
 40
0
 40
0
 40
0
 40
0
 40
1
 40
1
 40
1
 40
1
 10
17.023129
 20
9.319229
 30
0.0
 10
17.003206
 20
9.307727
 30
0.0
 10
16.978661
 20
9.307727
 30
0.0
 10
16.958738
 20
9.319229
 30
0.0
  0
SPLINE
  5
228
100
AcDbEntity
  8
cuts
 62
7
100
AcDbSpline
 70
8
 71
3
 72
8
 73
4
 74
0
 40
0
 40
0
 40
0
 40
0
 40
1
 40
1
 40
1
 40
1
 10
16.958738
 20
9.319229
 30
0.0
 10
16.938816
 20
9.330732
 30
0.0
 10
16.926543
 20
9.351989
 30
0.0
 10
16.926543
 20
9.374993
 30
0.0
  0
SPLINE
  5
229
100
AcDbEntity
  8
cuts
 62
7
100
AcDbSpline
 70
8
 71
3
 72
8
 73
4
 74
0
 40
0
 40
0
 40
0
 40
0
 40
1
 40
1
 40
1
 40
1
 10
16.926543
 20
9.374993
 30
0.0
 10
16.926543
 20
9.397998
 30
0.0
 10
16.938816
 20
9.419255
 30
0.0
 10
16.958738
 20
9.430757
 30
0.0
  0
SPLINE
  5
22a
100
AcDbEntity
  8
cuts
 62
7
100
AcDbSpline
 70
8
 71
3
 72
8
 73
4
 74
0
 40
0
 40
0
 40
0
 40
0
 40
1
 40
1
 40
1
 40
1
 10
16.958738
 20
9.430757
 30
0.0
 10
16.978661
 20
9.442259
 30
0.0
 10
17.003206
 20
9.442259
 30
0.0
 10
17.023129
 20
9.430757
 30
0.0
  0
SPLINE
  5
22b
100
AcDbEntity
  8
cuts
 62
7
100
AcDbSpline
 70
8
 71
3
 72
8
 73
4
 74
0
 40
0
 40
0
 40
0
 40
0
 40
1
 40
1
 40
1
 40
1
 10
17.023129
 20
9.430757
 30
0.0
 10
17.043051
 20
9.419255
 30
0.0
 10
17.055324
 20
9.397998
 30
0.0
 10
17.055324
 20
9.374993
 30
0.0
  0
LWPOLYLINE
  5
22c
100
AcDbEntity
  8
cuts
 62
7
100
AcDbPolyline
 90
1
 70
1
 10
13.969772
 20
11.150339
 30
0.0
  0
SPLINE
  5
22d
100
AcDbEntity
  8
cuts
 62
7
100
AcDbSpline
 70
8
 71
3
 72
8
 73
4
 74
0
 40
0
 40
0
 40
0
 40
0
 40
1
 40
1
 40
1
 40
1
 10
0.706889
 20
6.881473
 30
0.0
 10
0.706889
 20
6.858468
 30
0.0
 10
0.694616
 20
6.837211
 30
0.0
 10
0.674694
 20
6.825709
 30
0.0
  0
SPLINE
  5
22e
100
AcDbEntity
  8
cuts
 62
7
100
AcDbSpline
 70
8
 71
3
 72
8
 73
4
 74
0
 40
0
 40
0
 40
0
 40
0
 40
1
 40
1
 40
1
 40
1
 10
0.674694
 20
6.825709
 30
0.0
 10
0.654771
 20
6.814207
 30
0.0
 10
0.630226
 20
6.814207
 30
0.0
 10
0.610303
 20
6.825709
 30
0.0
  0
SPLINE
  5
22f
100
AcDbEntity
  8
cuts
 62
7
100
AcDbSpline
 70
8
 71
3
 72
8
 73
4
 74
0
 40
0
 40
0
 40
0
 40
0
 40
1
 40
1
 40
1
 40
1
 10
0.610303
 20
6.825709
 30
0.0
 10
0.590381
 20
6.837211
 30
0.0
 10
0.578108
 20
6.858468
 30
0.0
 10
0.578108
 20
6.881473
 30
0.0
  0
SPLINE
  5
230
100
AcDbEntity
  8
cuts
 62
7
100
AcDbSpline
 70
8
 71
3
 72
8
 73
4
 74
0
 40
0
 40
0
 40
0
 40
0
 40
1
 40
1
 40
1
 40
1
 10
0.578108
 20
6.881473
 30
0.0
 10
0.578108
 20
6.904478
 30
0.0
 10
0.590381
 20
6.925735
 30
0.0
 10
0.610303
 20
6.937237
 30
0.0
  0
SPLINE
  5
231
100
AcDbEntity
  8
cuts
 62
7
100
AcDbSpline
 70
8
 71
3
 72
8
 73
4
 74
0
 40
0
 40
0
 40
0
 40
0
 40
1
 40
1
 40
1
 40
1
 10
0.610303
 20
6.937237
 30
0.0
 10
0.630226
 20
6.948739
 30
0.0
 10
0.654771
 20
6.948739
 30
0.0
 10
0.674694
 20
6.937237
 30
0.0
  0
SPLINE
  5
232
100
AcDbEntity
  8
cuts
 62
7
100
AcDbSpline
 70
8
 71
3
 72
8
 73
4
 74
0
 40
0
 40
0
 40
0
 40
0
 40
1
 40
1
 40
1
 40
1
 10
0.674694
 20
6.937237
 30
0.0
 10
0.694616
 20
6.925735
 30
0.0
 10
0.706889
 20
6.904478
 30
0.0
 10
0.706889
 20
6.881473
 30
0.0
  0
LWPOLYLINE
  5
233
100
AcDbEntity
  8
cuts
 62
7
100
AcDbPolyline
 90
1
 70
1
 10
17.055324
 20
9.374993
 30
0.0
  0
SPLINE
  5
234
100
AcDbEntity
  8
cuts
 62
7
100
AcDbSpline
 70
8
 71
3
 72
8
 73
4
 74
0
 40
0
 40
0
 40
0
 40
0
 40
1
 40
1
 40
1
 40
1
 10
2.037775
 20
4.545077
 30
0.0
 10
2.037775
 20
4.509515
 30
0.0
 10
2.008946
 20
4.480687
 30
0.0
 10
1.973385
 20
4.480687
 30
0.0
  0
SPLINE
  5
235
100
AcDbEntity
  8
cuts
 62
7
100
AcDbSpline
 70
8
 71
3
 72
8
 73
4
 74
0
 40
0
 40
0
 40
0
 40
0
 40
1
 40
1
 40
1
 40
1
 10
1.973385
 20
4.480687
 30
0.0
 10
1.937823
 20
4.480687
 30
0.0
 10
1.908994
 20
4.509515
 30
0.0
 10
1.908994
 20
4.545077
 30
0.0
  0
SPLINE
  5
236
100
AcDbEntity
  8
cuts
 62
7
100
AcDbSpline
 70
8
 71
3
 72
8
 73
4
 74
0
 40
0
 40
0
 40
0
 40
0
 40
1
 40
1
 40
1
 40
1
 10
1.908994
 20
4.545077
 30
0.0
 10
1.908994
 20
4.568082
 30
0.0
 10
1.921267
 20
4.589339
 30
0.0
 10
1.941189
 20
4.600841
 30
0.0
  0
SPLINE
  5
237
100
AcDbEntity
  8
cuts
 62
7
100
AcDbSpline
 70
8
 71
3
 72
8
 73
4
 74
0
 40
0
 40
0
 40
0
 40
0
 40
1
 40
1
 40
1
 40
1
 10
1.941189
 20
4.600841
 30
0.0
 10
1.961112
 20
4.612343
 30
0.0
 10
1.985657
 20
4.612343
 30
0.0
 10
2.005580
 20
4.600841
 30
0.0
  0
SPLINE
  5
238
100
AcDbEntity
  8
cuts
 62
7
100
AcDbSpline
 70
8
 71
3
 72
8
 73
4
 74
0
 40
0
 40
0
 40
0
 40
0
 40
1
 40
1
 40
1
 40
1
 10
2.005580
 20
4.600841
 30
0.0
 10
2.025502
 20
4.589339
 30
0.0
 10
2.037775
 20
4.568082
 30
0.0
 10
2.037775
 20
4.545077
 30
0.0
  0
LWPOLYLINE
  5
239
100
AcDbEntity
  8
cuts
 62
7
100
AcDbPolyline
 90
1
 70
1
 10
0.706889
 20
6.881473
 30
0.0
  0
SPLINE
  5
23a
100
AcDbEntity
  8
cuts
 62
7
100
AcDbSpline
 70
8
 71
3
 72
8
 73
4
 74
0
 40
0
 40
0
 40
0
 40
0
 40
1
 40
1
 40
1
 40
1
 10
3.547313
 20
7.496568
 30
0.0
 10
3.547313
 20
7.473563
 30
0.0
 10
3.535040
 20
7.452306
 30
0.0
 10
3.515117
 20
7.440804
 30
0.0
  0
SPLINE
  5
23b
100
AcDbEntity
  8
cuts
 62
7
100
AcDbSpline
 70
8
 71
3
 72
8
 73
4
 74
0
 40
0
 40
0
 40
0
 40
0
 40
1
 40
1
 40
1
 40
1
 10
3.515117
 20
7.440804
 30
0.0
 10
3.495195
 20
7.429302
 30
0.0
 10
3.470649
 20
7.429302
 30
0.0
 10
3.450727
 20
7.440804
 30
0.0
  0
SPLINE
  5
23c
100
AcDbEntity
  8
cuts
 62
7
100
AcDbSpline
 70
8
 71
3
 72
8
 73
4
 74
0
 40
0
 40
0
 40
0
 40
0
 40
1
 40
1
 40
1
 40
1
 10
3.450727
 20
7.440804
 30
0.0
 10
3.430804
 20
7.452306
 30
0.0
 10
3.418532
 20
7.473563
 30
0.0
 10
3.418532
 20
7.496568
 30
0.0
  0
SPLINE
  5
23d
100
AcDbEntity
  8
cuts
 62
7
100
AcDbSpline
 70
8
 71
3
 72
8
 73
4
 74
0
 40
0
 40
0
 40
0
 40
0
 40
1
 40
1
 40
1
 40
1
 10
3.418532
 20
7.496568
 30
0.0
 10
3.418532
 20
7.519572
 30
0.0
 10
3.430804
 20
7.540829
 30
0.0
 10
3.450727
 20
7.552332
 30
0.0
  0
SPLINE
  5
23e
100
AcDbEntity
  8
cuts
 62
7
100
AcDbSpline
 70
8
 71
3
 72
8
 73
4
 74
0
 40
0
 40
0
 40
0
 40
0
 40
1
 40
1
 40
1
 40
1
 10
3.450727
 20
7.552332
 30
0.0
 10
3.470649
 20
7.563834
 30
0.0
 10
3.495195
 20
7.563834
 30
0.0
 10
3.515117
 20
7.552332
 30
0.0
  0
SPLINE
  5
23f
100
AcDbEntity
  8
cuts
 62
7
100
AcDbSpline
 70
8
 71
3
 72
8
 73
4
 74
0
 40
0
 40
0
 40
0
 40
0
 40
1
 40
1
 40
1
 40
1
 10
3.515117
 20
7.552332
 30
0.0
 10
3.535040
 20
7.540829
 30
0.0
 10
3.547313
 20
7.519572
 30
0.0
 10
3.547313
 20
7.496568
 30
0.0
  0
LWPOLYLINE
  5
240
100
AcDbEntity
  8
cuts
 62
7
100
AcDbPolyline
 90
1
 70
1
 10
2.037775
 20
4.545077
 30
0.0
  0
SPLINE
  5
241
100
AcDbEntity
  8
cuts
 62
7
100
AcDbSpline
 70
8
 71
3
 72
8
 73
4
 74
0
 40
0
 40
0
 40
0
 40
0
 40
1
 40
1
 40
1
 40
1
 10
5.358045
 20
4.410999
 30
0.0
 10
5.358045
 20
4.387995
 30
0.0
 10
5.345772
 20
4.366738
 30
0.0
 10
5.325849
 20
4.355235
 30
0.0
  0
SPLINE
  5
242
100
AcDbEntity
  8
cuts
 62
7
100
AcDbSpline
 70
8
 71
3
 72
8
 73
4
 74
0
 40
0
 40
0
 40
0
 40
0
 40
1
 40
1
 40
1
 40
1
 10
5.325849
 20
4.355235
 30
0.0
 10
5.305927
 20
4.343733
 30
0.0
 10
5.281381
 20
4.343733
 30
0.0
 10
5.261459
 20
4.355235
 30
0.0
  0
SPLINE
  5
243
100
AcDbEntity
  8
cuts
 62
7
100
AcDbSpline
 70
8
 71
3
 72
8
 73
4
 74
0
 40
0
 40
0
 40
0
 40
0
 40
1
 40
1
 40
1
 40
1
 10
5.261459
 20
4.355235
 30
0.0
 10
5.241536
 20
4.366738
 30
0.0
 10
5.229264
 20
4.387995
 30
0.0
 10
5.229264
 20
4.410999
 30
0.0
  0
SPLINE
  5
244
100
AcDbEntity
  8
cuts
 62
7
100
AcDbSpline
 70
8
 71
3
 72
8
 73
4
 74
0
 40
0
 40
0
 40
0
 40
0
 40
1
 40
1
 40
1
 40
1
 10
5.229264
 20
4.410999
 30
0.0
 10
5.229264
 20
4.434004
 30
0.0
 10
5.241536
 20
4.455261
 30
0.0
 10
5.261459
 20
4.466763
 30
0.0
  0
SPLINE
  5
245
100
AcDbEntity
  8
cuts
 62
7
100
AcDbSpline
 70
8
 71
3
 72
8
 73
4
 74
0
 40
0
 40
0
 40
0
 40
0
 40
1
 40
1
 40
1
 40
1
 10
5.261459
 20
4.466763
 30
0.0
 10
5.281381
 20
4.478265
 30
0.0
 10
5.305927
 20
4.478265
 30
0.0
 10
5.325849
 20
4.466763
 30
0.0
  0
SPLINE
  5
246
100
AcDbEntity
  8
cuts
 62
7
100
AcDbSpline
 70
8
 71
3
 72
8
 73
4
 74
0
 40
0
 40
0
 40
0
 40
0
 40
1
 40
1
 40
1
 40
1
 10
5.325849
 20
4.466763
 30
0.0
 10
5.345772
 20
4.455261
 30
0.0
 10
5.358045
 20
4.434004
 30
0.0
 10
5.358045
 20
4.410999
 30
0.0
  0
LWPOLYLINE
  5
247
100
AcDbEntity
  8
cuts
 62
7
100
AcDbPolyline
 90
1
 70
1
 10
3.547313
 20
7.496568
 30
0.0
  0
SPLINE
  5
248
100
AcDbEntity
  8
cuts
 62
7
100
AcDbSpline
 70
8
 71
3
 72
8
 73
4
 74
0
 40
0
 40
0
 40
0
 40
0
 40
1
 40
1
 40
1
 40
1
 10
8.623556
 20
7.670164
 30
0.0
 10
8.623556
 20
7.647159
 30
0.0
 10
8.611283
 20
7.625902
 30
0.0
 10
8.591360
 20
7.614400
 30
0.0
  0
SPLINE
  5
249
100
AcDbEntity
  8
cuts
 62
7
100
AcDbSpline
 70
8
 71
3
 72
8
 73
4
 74
0
 40
0
 40
0
 40
0
 40
0
 40
1
 40
1
 40
1
 40
1
 10
8.591360
 20
7.614400
 30
0.0
 10
8.571438
 20
7.602897
 30
0.0
 10
8.546892
 20
7.602897
 30
0.0
 10
8.526970
 20
7.614400
 30
0.0
  0
SPLINE
  5
24a
100
AcDbEntity
  8
cuts
 62
7
100
AcDbSpline
 70
8
 71
3
 72
8
 73
4
 74
0
 40
0
 40
0
 40
0
 40
0
 40
1
 40
1
 40
1
 40
1
 10
8.526970
 20
7.614400
 30
0.0
 10
8.507047
 20
7.625902
 30
0.0
 10
8.494775
 20
7.647159
 30
0.0
 10
8.494775
 20
7.670164
 30
0.0
  0
SPLINE
  5
24b
100
AcDbEntity
  8
cuts
 62
7
100
AcDbSpline
 70
8
 71
3
 72
8
 73
4
 74
0
 40
0
 40
0
 40
0
 40
0
 40
1
 40
1
 40
1
 40
1
 10
8.494775
 20
7.670164
 30
0.0
 10
8.494775
 20
7.693168
 30
0.0
 10
8.507047
 20
7.714425
 30
0.0
 10
8.526970
 20
7.725927
 30
0.0
  0
SPLINE
  5
24c
100
AcDbEntity
  8
cuts
 62
7
100
AcDbSpline
 70
8
 71
3
 72
8
 73
4
 74
0
 40
0
 40
0
 40
0
 40
0
 40
1
 40
1
 40
1
 40
1
 10
8.526970
 20
7.725927
 30
0.0
 10
8.546892
 20
7.737430
 30
0.0
 10
8.571438
 20
7.737430
 30
0.0
 10
8.591360
 20
7.725927
 30
0.0
  0
SPLINE
  5
24d
100
AcDbEntity
  8
cuts
 62
7
100
AcDbSpline
 70
8
 71
3
 72
8
 73
4
 74
0
 40
0
 40
0
 40
0
 40
0
 40
1
 40
1
 40
1
 40
1
 10
8.591360
 20
7.725927
 30
0.0
 10
8.611283
 20
7.714425
 30
0.0
 10
8.623556
 20
7.693168
 30
0.0
 10
8.623556
 20
7.670164
 30
0.0
  0
LWPOLYLINE
  5
24e
100
AcDbEntity
  8
cuts
 62
7
100
AcDbPolyline
 90
1
 70
1
 10
5.358045
 20
4.410999
 30
0.0
  0
SPLINE
  5
24f
100
AcDbEntity
  8
cuts
 62
7
100
AcDbSpline
 70
8
 71
3
 72
8
 73
4
 74
0
 40
0
 40
0
 40
0
 40
0
 40
1
 40
1
 40
1
 40
1
 10
6.910732
 20
5.436233
 30
0.0
 10
6.910732
 20
5.413229
 30
0.0
 10
6.898459
 20
5.391972
 30
0.0
 10
6.878537
 20
5.380469
 30
0.0
  0
SPLINE
  5
250
100
AcDbEntity
  8
cuts
 62
7
100
AcDbSpline
 70
8
 71
3
 72
8
 73
4
 74
0
 40
0
 40
0
 40
0
 40
0
 40
1
 40
1
 40
1
 40
1
 10
6.878537
 20
5.380469
 30
0.0
 10
6.858614
 20
5.368967
 30
0.0
 10
6.834069
 20
5.368967
 30
0.0
 10
6.814146
 20
5.380469
 30
0.0
  0
SPLINE
  5
251
100
AcDbEntity
  8
cuts
 62
7
100
AcDbSpline
 70
8
 71
3
 72
8
 73
4
 74
0
 40
0
 40
0
 40
0
 40
0
 40
1
 40
1
 40
1
 40
1
 10
6.814146
 20
5.380469
 30
0.0
 10
6.794224
 20
5.391972
 30
0.0
 10
6.781951
 20
5.413229
 30
0.0
 10
6.781951
 20
5.436233
 30
0.0
  0
SPLINE
  5
252
100
AcDbEntity
  8
cuts
 62
7
100
AcDbSpline
 70
8
 71
3
 72
8
 73
4
 74
0
 40
0
 40
0
 40
0
 40
0
 40
1
 40
1
 40
1
 40
1
 10
6.781951
 20
5.436233
 30
0.0
 10
6.781951
 20
5.459238
 30
0.0
 10
6.794224
 20
5.480495
 30
0.0
 10
6.814146
 20
5.491997
 30
0.0
  0
SPLINE
  5
253
100
AcDbEntity
  8
cuts
 62
7
100
AcDbSpline
 70
8
 71
3
 72
8
 73
4
 74
0
 40
0
 40
0
 40
0
 40
0
 40
1
 40
1
 40
1
 40
1
 10
6.814146
 20
5.491997
 30
0.0
 10
6.834069
 20
5.503499
 30
0.0
 10
6.858614
 20
5.503499
 30
0.0
 10
6.878537
 20
5.491997
 30
0.0
  0
SPLINE
  5
254
100
AcDbEntity
  8
cuts
 62
7
100
AcDbSpline
 70
8
 71
3
 72
8
 73
4
 74
0
 40
0
 40
0
 40
0
 40
0
 40
1
 40
1
 40
1
 40
1
 10
6.878537
 20
5.491997
 30
0.0
 10
6.898459
 20
5.480495
 30
0.0
 10
6.910732
 20
5.459238
 30
0.0
 10
6.910732
 20
5.436233
 30
0.0
  0
LWPOLYLINE
  5
255
100
AcDbEntity
  8
cuts
 62
7
100
AcDbPolyline
 90
1
 70
1
 10
8.623556
 20
7.670164
 30
0.0
  0
SPLINE
  5
256
100
AcDbEntity
  8
cuts
 62
7
100
AcDbSpline
 70
8
 71
3
 72
8
 73
4
 74
0
 40
0
 40
0
 40
0
 40
0
 40
1
 40
1
 40
1
 40
1
 10
9.456310
 20
7.895763
 30
0.0
 10
9.456310
 20
7.872758
 30
0.0
 10
9.444037
 20
7.851501
 30
0.0
 10
9.424115
 20
7.839999
 30
0.0
  0
SPLINE
  5
257
100
AcDbEntity
  8
cuts
 62
7
100
AcDbSpline
 70
8
 71
3
 72
8
 73
4
 74
0
 40
0
 40
0
 40
0
 40
0
 40
1
 40
1
 40
1
 40
1
 10
9.424115
 20
7.839999
 30
0.0
 10
9.404192
 20
7.828497
 30
0.0
 10
9.379647
 20
7.828497
 30
0.0
 10
9.359724
 20
7.839999
 30
0.0
  0
SPLINE
  5
258
100
AcDbEntity
  8
cuts
 62
7
100
AcDbSpline
 70
8
 71
3
 72
8
 73
4
 74
0
 40
0
 40
0
 40
0
 40
0
 40
1
 40
1
 40
1
 40
1
 10
9.359724
 20
7.839999
 30
0.0
 10
9.339802
 20
7.851501
 30
0.0
 10
9.327529
 20
7.872758
 30
0.0
 10
9.327529
 20
7.895763
 30
0.0
  0
SPLINE
  5
259
100
AcDbEntity
  8
cuts
 62
7
100
AcDbSpline
 70
8
 71
3
 72
8
 73
4
 74
0
 40
0
 40
0
 40
0
 40
0
 40
1
 40
1
 40
1
 40
1
 10
9.327529
 20
7.895763
 30
0.0
 10
9.327529
 20
7.918767
 30
0.0
 10
9.339802
 20
7.940024
 30
0.0
 10
9.359724
 20
7.951527
 30
0.0
  0
SPLINE
  5
25a
100
AcDbEntity
  8
cuts
 62
7
100
AcDbSpline
 70
8
 71
3
 72
8
 73
4
 74
0
 40
0
 40
0
 40
0
 40
0
 40
1
 40
1
 40
1
 40
1
 10
9.359724
 20
7.951527
 30
0.0
 10
9.379647
 20
7.963029
 30
0.0
 10
9.404192
 20
7.963029
 30
0.0
 10
9.424115
 20
7.951527
 30
0.0
  0
SPLINE
  5
25b
100
AcDbEntity
  8
cuts
 62
7
100
AcDbSpline
 70
8
 71
3
 72
8
 73
4
 74
0
 40
0
 40
0
 40
0
 40
0
 40
1
 40
1
 40
1
 40
1
 10
9.424115
 20
7.951527
 30
0.0
 10
9.444037
 20
7.940024
 30
0.0
 10
9.456310
 20
7.918767
 30
0.0
 10
9.456310
 20
7.895763
 30
0.0
  0
LWPOLYLINE
  5
25c
100
AcDbEntity
  8
cuts
 62
7
100
AcDbPolyline
 90
1
 70
1
 10
6.910732
 20
5.436233
 30
0.0
  0
SPLINE
  5
25d
100
AcDbEntity
  8
cuts
 62
7
100
AcDbSpline
 70
8
 71
3
 72
8
 73
4
 74
0
 40
0
 40
0
 40
0
 40
0
 40
1
 40
1
 40
1
 40
1
 10
11.143187
 20
5.631468
 30
0.0
 10
11.143187
 20
5.608464
 30
0.0
 10
11.130914
 20
5.587207
 30
0.0
 10
11.110991
 20
5.575705
 30
0.0
  0
SPLINE
  5
25e
100
AcDbEntity
  8
cuts
 62
7
100
AcDbSpline
 70
8
 71
3
 72
8
 73
4
 74
0
 40
0
 40
0
 40
0
 40
0
 40
1
 40
1
 40
1
 40
1
 10
11.110991
 20
5.575705
 30
0.0
 10
11.091069
 20
5.564202
 30
0.0
 10
11.066523
 20
5.564202
 30
0.0
 10
11.046601
 20
5.575705
 30
0.0
  0
SPLINE
  5
25f
100
AcDbEntity
  8
cuts
 62
7
100
AcDbSpline
 70
8
 71
3
 72
8
 73
4
 74
0
 40
0
 40
0
 40
0
 40
0
 40
1
 40
1
 40
1
 40
1
 10
11.046601
 20
5.575705
 30
0.0
 10
11.026678
 20
5.587207
 30
0.0
 10
11.014406
 20
5.608464
 30
0.0
 10
11.014406
 20
5.631468
 30
0.0
  0
SPLINE
  5
260
100
AcDbEntity
  8
cuts
 62
7
100
AcDbSpline
 70
8
 71
3
 72
8
 73
4
 74
0
 40
0
 40
0
 40
0
 40
0
 40
1
 40
1
 40
1
 40
1
 10
11.014406
 20
5.631468
 30
0.0
 10
11.014406
 20
5.654473
 30
0.0
 10
11.026678
 20
5.675730
 30
0.0
 10
11.046601
 20
5.687232
 30
0.0
  0
SPLINE
  5
261
100
AcDbEntity
  8
cuts
 62
7
100
AcDbSpline
 70
8
 71
3
 72
8
 73
4
 74
0
 40
0
 40
0
 40
0
 40
0
 40
1
 40
1
 40
1
 40
1
 10
11.046601
 20
5.687232
 30
0.0
 10
11.066523
 20
5.698734
 30
0.0
 10
11.091069
 20
5.698734
 30
0.0
 10
11.110991
 20
5.687232
 30
0.0
  0
SPLINE
  5
262
100
AcDbEntity
  8
cuts
 62
7
100
AcDbSpline
 70
8
 71
3
 72
8
 73
4
 74
0
 40
0
 40
0
 40
0
 40
0
 40
1
 40
1
 40
1
 40
1
 10
11.110991
 20
5.687232
 30
0.0
 10
11.130914
 20
5.675730
 30
0.0
 10
11.143187
 20
5.654473
 30
0.0
 10
11.143187
 20
5.631468
 30
0.0
  0
LWPOLYLINE
  5
263
100
AcDbEntity
  8
cuts
 62
7
100
AcDbPolyline
 90
1
 70
1
 10
9.456310
 20
7.895763
 30
0.0
  0
SPLINE
  5
264
100
AcDbEntity
  8
cuts
 62
7
100
AcDbSpline
 70
8
 71
3
 72
8
 73
4
 74
0
 40
0
 40
0
 40
0
 40
0
 40
1
 40
1
 40
1
 40
1
 10
12.361465
 20
8.425372
 30
0.0
 10
12.361465
 20
8.402367
 30
0.0
 10
12.349192
 20
8.381110
 30
0.0
 10
12.329270
 20
8.369608
 30
0.0
  0
SPLINE
  5
265
100
AcDbEntity
  8
cuts
 62
7
100
AcDbSpline
 70
8
 71
3
 72
8
 73
4
 74
0
 40
0
 40
0
 40
0
 40
0
 40
1
 40
1
 40
1
 40
1
 10
12.329270
 20
8.369608
 30
0.0
 10
12.309347
 20
8.358106
 30
0.0
 10
12.284802
 20
8.358106
 30
0.0
 10
12.264879
 20
8.369608
 30
0.0
  0
SPLINE
  5
266
100
AcDbEntity
  8
cuts
 62
7
100
AcDbSpline
 70
8
 71
3
 72
8
 73
4
 74
0
 40
0
 40
0
 40
0
 40
0
 40
1
 40
1
 40
1
 40
1
 10
12.264879
 20
8.369608
 30
0.0
 10
12.244957
 20
8.381110
 30
0.0
 10
12.232684
 20
8.402367
 30
0.0
 10
12.232684
 20
8.425372
 30
0.0
  0
SPLINE
  5
267
100
AcDbEntity
  8
cuts
 62
7
100
AcDbSpline
 70
8
 71
3
 72
8
 73
4
 74
0
 40
0
 40
0
 40
0
 40
0
 40
1
 40
1
 40
1
 40
1
 10
12.232684
 20
8.425372
 30
0.0
 10
12.232684
 20
8.448376
 30
0.0
 10
12.244957
 20
8.469633
 30
0.0
 10
12.264879
 20
8.481136
 30
0.0
  0
SPLINE
  5
268
100
AcDbEntity
  8
cuts
 62
7
100
AcDbSpline
 70
8
 71
3
 72
8
 73
4
 74
0
 40
0
 40
0
 40
0
 40
0
 40
1
 40
1
 40
1
 40
1
 10
12.264879
 20
8.481136
 30
0.0
 10
12.284802
 20
8.492638
 30
0.0
 10
12.309347
 20
8.492638
 30
0.0
 10
12.329270
 20
8.481136
 30
0.0
  0
SPLINE
  5
269
100
AcDbEntity
  8
cuts
 62
7
100
AcDbSpline
 70
8
 71
3
 72
8
 73
4
 74
0
 40
0
 40
0
 40
0
 40
0
 40
1
 40
1
 40
1
 40
1
 10
12.329270
 20
8.481136
 30
0.0
 10
12.349192
 20
8.469633
 30
0.0
 10
12.361465
 20
8.448376
 30
0.0
 10
12.361465
 20
8.425372
 30
0.0
  0
LWPOLYLINE
  5
26a
100
AcDbEntity
  8
cuts
 62
7
100
AcDbPolyline
 90
1
 70
1
 10
11.143187
 20
5.631468
 30
0.0
  0
SPLINE
  5
26b
100
AcDbEntity
  8
cuts
 62
7
100
AcDbSpline
 70
8
 71
3
 72
8
 73
4
 74
0
 40
0
 40
0
 40
0
 40
0
 40
1
 40
1
 40
1
 40
1
 10
17.538535
 20
5.124374
 30
0.0
 10
17.538535
 20
5.101369
 30
0.0
 10
17.526262
 20
5.080112
 30
0.0
 10
17.506340
 20
5.068610
 30
0.0
  0
SPLINE
  5
26c
100
AcDbEntity
  8
cuts
 62
7
100
AcDbSpline
 70
8
 71
3
 72
8
 73
4
 74
0
 40
0
 40
0
 40
0
 40
0
 40
1
 40
1
 40
1
 40
1
 10
17.506340
 20
5.068610
 30
0.0
 10
17.486417
 20
5.057108
 30
0.0
 10
17.461872
 20
5.057108
 30
0.0
 10
17.441949
 20
5.068610
 30
0.0
  0
SPLINE
  5
26d
100
AcDbEntity
  8
cuts
 62
7
100
AcDbSpline
 70
8
 71
3
 72
8
 73
4
 74
0
 40
0
 40
0
 40
0
 40
0
 40
1
 40
1
 40
1
 40
1
 10
17.441949
 20
5.068610
 30
0.0
 10
17.422027
 20
5.080112
 30
0.0
 10
17.409754
 20
5.101369
 30
0.0
 10
17.409754
 20
5.124374
 30
0.0
  0
SPLINE
  5
26e
100
AcDbEntity
  8
cuts
 62
7
100
AcDbSpline
 70
8
 71
3
 72
8
 73
4
 74
0
 40
0
 40
0
 40
0
 40
0
 40
1
 40
1
 40
1
 40
1
 10
17.409754
 20
5.124374
 30
0.0
 10
17.409754
 20
5.147378
 30
0.0
 10
17.422027
 20
5.168635
 30
0.0
 10
17.441949
 20
5.180138
 30
0.0
  0
SPLINE
  5
26f
100
AcDbEntity
  8
cuts
 62
7
100
AcDbSpline
 70
8
 71
3
 72
8
 73
4
 74
0
 40
0
 40
0
 40
0
 40
0
 40
1
 40
1
 40
1
 40
1
 10
17.441949
 20
5.180138
 30
0.0
 10
17.461872
 20
5.191640
 30
0.0
 10
17.486417
 20
5.191640
 30
0.0
 10
17.506340
 20
5.180138
 30
0.0
  0
SPLINE
  5
270
100
AcDbEntity
  8
cuts
 62
7
100
AcDbSpline
 70
8
 71
3
 72
8
 73
4
 74
0
 40
0
 40
0
 40
0
 40
0
 40
1
 40
1
 40
1
 40
1
 10
17.506340
 20
5.180138
 30
0.0
 10
17.526262
 20
5.168635
 30
0.0
 10
17.538535
 20
5.147378
 30
0.0
 10
17.538535
 20
5.124374
 30
0.0
  0
LWPOLYLINE
  5
271
100
AcDbEntity
  8
cuts
 62
7
100
AcDbPolyline
 90
1
 70
1
 10
12.361465
 20
8.425372
 30
0.0
  0
SPLINE
  5
272
100
AcDbEntity
  8
cuts
 62
7
100
AcDbSpline
 70
8
 71
3
 72
8
 73
4
 74
0
 40
0
 40
0
 40
0
 40
0
 40
1
 40
1
 40
1
 40
1
 10
1.008228
 20
3.513262
 30
0.0
 10
1.008228
 20
3.490258
 30
0.0
 10
0.995955
 20
3.469001
 30
0.0
 10
0.976033
 20
3.457499
 30
0.0
  0
SPLINE
  5
273
100
AcDbEntity
  8
cuts
 62
7
100
AcDbSpline
 70
8
 71
3
 72
8
 73
4
 74
0
 40
0
 40
0
 40
0
 40
0
 40
1
 40
1
 40
1
 40
1
 10
0.976033
 20
3.457499
 30
0.0
 10
0.956110
 20
3.445996
 30
0.0
 10
0.931565
 20
3.445996
 30
0.0
 10
0.911642
 20
3.457499
 30
0.0
  0
SPLINE
  5
274
100
AcDbEntity
  8
cuts
 62
7
100
AcDbSpline
 70
8
 71
3
 72
8
 73
4
 74
0
 40
0
 40
0
 40
0
 40
0
 40
1
 40
1
 40
1
 40
1
 10
0.911642
 20
3.457499
 30
0.0
 10
0.891720
 20
3.469001
 30
0.0
 10
0.879447
 20
3.490258
 30
0.0
 10
0.879447
 20
3.513262
 30
0.0
  0
SPLINE
  5
275
100
AcDbEntity
  8
cuts
 62
7
100
AcDbSpline
 70
8
 71
3
 72
8
 73
4
 74
0
 40
0
 40
0
 40
0
 40
0
 40
1
 40
1
 40
1
 40
1
 10
0.879447
 20
3.513262
 30
0.0
 10
0.879447
 20
3.536267
 30
0.0
 10
0.891720
 20
3.557524
 30
0.0
 10
0.911642
 20
3.569026
 30
0.0
  0
SPLINE
  5
276
100
AcDbEntity
  8
cuts
 62
7
100
AcDbSpline
 70
8
 71
3
 72
8
 73
4
 74
0
 40
0
 40
0
 40
0
 40
0
 40
1
 40
1
 40
1
 40
1
 10
0.911642
 20
3.569026
 30
0.0
 10
0.931565
 20
3.580529
 30
0.0
 10
0.956110
 20
3.580529
 30
0.0
 10
0.976033
 20
3.569026
 30
0.0
  0
SPLINE
  5
277
100
AcDbEntity
  8
cuts
 62
7
100
AcDbSpline
 70
8
 71
3
 72
8
 73
4
 74
0
 40
0
 40
0
 40
0
 40
0
 40
1
 40
1
 40
1
 40
1
 10
0.976033
 20
3.569026
 30
0.0
 10
0.995955
 20
3.557524
 30
0.0
 10
1.008228
 20
3.536267
 30
0.0
 10
1.008228
 20
3.513262
 30
0.0
  0
LWPOLYLINE
  5
278
100
AcDbEntity
  8
cuts
 62
7
100
AcDbPolyline
 90
1
 70
1
 10
17.538535
 20
5.124374
 30
0.0
  0
SPLINE
  5
279
100
AcDbEntity
  8
cuts
 62
7
100
AcDbSpline
 70
8
 71
3
 72
8
 73
4
 74
0
 40
0
 40
0
 40
0
 40
0
 40
1
 40
1
 40
1
 40
1
 10
4.776363
 20
1.947837
 30
0.0
 10
4.776363
 20
1.924832
 30
0.0
 10
4.764090
 20
1.903575
 30
0.0
 10
4.744168
 20
1.892073
 30
0.0
  0
SPLINE
  5
27a
100
AcDbEntity
  8
cuts
 62
7
100
AcDbSpline
 70
8
 71
3
 72
8
 73
4
 74
0
 40
0
 40
0
 40
0
 40
0
 40
1
 40
1
 40
1
 40
1
 10
4.744168
 20
1.892073
 30
0.0
 10
4.724245
 20
1.880570
 30
0.0
 10
4.699700
 20
1.880570
 30
0.0
 10
4.679777
 20
1.892073
 30
0.0
  0
SPLINE
  5
27b
100
AcDbEntity
  8
cuts
 62
7
100
AcDbSpline
 70
8
 71
3
 72
8
 73
4
 74
0
 40
0
 40
0
 40
0
 40
0
 40
1
 40
1
 40
1
 40
1
 10
4.679777
 20
1.892073
 30
0.0
 10
4.659855
 20
1.903575
 30
0.0
 10
4.647582
 20
1.924832
 30
0.0
 10
4.647582
 20
1.947837
 30
0.0
  0
SPLINE
  5
27c
100
AcDbEntity
  8
cuts
 62
7
100
AcDbSpline
 70
8
 71
3
 72
8
 73
4
 74
0
 40
0
 40
0
 40
0
 40
0
 40
1
 40
1
 40
1
 40
1
 10
4.647582
 20
1.947837
 30
0.0
 10
4.647582
 20
1.970841
 30
0.0
 10
4.659855
 20
1.992098
 30
0.0
 10
4.679777
 20
2.003600
 30
0.0
  0
SPLINE
  5
27d
100
AcDbEntity
  8
cuts
 62
7
100
AcDbSpline
 70
8
 71
3
 72
8
 73
4
 74
0
 40
0
 40
0
 40
0
 40
0
 40
1
 40
1
 40
1
 40
1
 10
4.679777
 20
2.003600
 30
0.0
 10
4.699700
 20
2.015103
 30
0.0
 10
4.724245
 20
2.015103
 30
0.0
 10
4.744168
 20
2.003600
 30
0.0
  0
SPLINE
  5
27e
100
AcDbEntity
  8
cuts
 62
7
100
AcDbSpline
 70
8
 71
3
 72
8
 73
4
 74
0
 40
0
 40
0
 40
0
 40
0
 40
1
 40
1
 40
1
 40
1
 10
4.744168
 20
2.003600
 30
0.0
 10
4.764090
 20
1.992098
 30
0.0
 10
4.776363
 20
1.970841
 30
0.0
 10
4.776363
 20
1.947837
 30
0.0
  0
LWPOLYLINE
  5
27f
100
AcDbEntity
  8
cuts
 62
7
100
AcDbPolyline
 90
1
 70
1
 10
1.008228
 20
3.513262
 30
0.0
  0
SPLINE
  5
280
100
AcDbEntity
  8
cuts
 62
7
100
AcDbSpline
 70
8
 71
3
 72
8
 73
4
 74
0
 40
0
 40
0
 40
0
 40
0
 40
1
 40
1
 40
1
 40
1
 10
6.843461
 20
4.606190
 30
0.0
 10
6.843461
 20
4.583185
 30
0.0
 10
6.831188
 20
4.561928
 30
0.0
 10
6.811266
 20
4.550426
 30
0.0
  0
SPLINE
  5
281
100
AcDbEntity
  8
cuts
 62
7
100
AcDbSpline
 70
8
 71
3
 72
8
 73
4
 74
0
 40
0
 40
0
 40
0
 40
0
 40
1
 40
1
 40
1
 40
1
 10
6.811266
 20
4.550426
 30
0.0
 10
6.791343
 20
4.538924
 30
0.0
 10
6.766798
 20
4.538924
 30
0.0
 10
6.746875
 20
4.550426
 30
0.0
  0
SPLINE
  5
282
100
AcDbEntity
  8
cuts
 62
7
100
AcDbSpline
 70
8
 71
3
 72
8
 73
4
 74
0
 40
0
 40
0
 40
0
 40
0
 40
1
 40
1
 40
1
 40
1
 10
6.746875
 20
4.550426
 30
0.0
 10
6.726953
 20
4.561928
 30
0.0
 10
6.714680
 20
4.583185
 30
0.0
 10
6.714680
 20
4.606190
 30
0.0
  0
SPLINE
  5
283
100
AcDbEntity
  8
cuts
 62
7
100
AcDbSpline
 70
8
 71
3
 72
8
 73
4
 74
0
 40
0
 40
0
 40
0
 40
0
 40
1
 40
1
 40
1
 40
1
 10
6.714680
 20
4.606190
 30
0.0
 10
6.714680
 20
4.629194
 30
0.0
 10
6.726953
 20
4.650451
 30
0.0
 10
6.746875
 20
4.661953
 30
0.0
  0
SPLINE
  5
284
100
AcDbEntity
  8
cuts
 62
7
100
AcDbSpline
 70
8
 71
3
 72
8
 73
4
 74
0
 40
0
 40
0
 40
0
 40
0
 40
1
 40
1
 40
1
 40
1
 10
6.746875
 20
4.661953
 30
0.0
 10
6.766798
 20
4.673456
 30
0.0
 10
6.791343
 20
4.673456
 30
0.0
 10
6.811266
 20
4.661953
 30
0.0
  0
SPLINE
  5
285
100
AcDbEntity
  8
cuts
 62
7
100
AcDbSpline
 70
8
 71
3
 72
8
 73
4
 74
0
 40
0
 40
0
 40
0
 40
0
 40
1
 40
1
 40
1
 40
1
 10
6.811266
 20
4.661953
 30
0.0
 10
6.831188
 20
4.650451
 30
0.0
 10
6.843461
 20
4.629194
 30
0.0
 10
6.843461
 20
4.606190
 30
0.0
  0
LWPOLYLINE
  5
286
100
AcDbEntity
  8
cuts
 62
7
100
AcDbPolyline
 90
1
 70
1
 10
4.776363
 20
1.947837
 30
0.0
  0
SPLINE
  5
287
100
AcDbEntity
  8
cuts
 62
7
100
AcDbSpline
 70
8
 71
3
 72
8
 73
4
 74
0
 40
0
 40
0
 40
0
 40
0
 40
1
 40
1
 40
1
 40
1
 10
8.805893
 20
3.075177
 30
0.0
 10
8.805893
 20
3.052172
 30
0.0
 10
8.793620
 20
3.030915
 30
0.0
 10
8.773697
 20
3.019413
 30
0.0
  0
SPLINE
  5
288
100
AcDbEntity
  8
cuts
 62
7
100
AcDbSpline
 70
8
 71
3
 72
8
 73
4
 74
0
 40
0
 40
0
 40
0
 40
0
 40
1
 40
1
 40
1
 40
1
 10
8.773697
 20
3.019413
 30
0.0
 10
8.753775
 20
3.007911
 30
0.0
 10
8.729229
 20
3.007911
 30
0.0
 10
8.709307
 20
3.019413
 30
0.0
  0
SPLINE
  5
289
100
AcDbEntity
  8
cuts
 62
7
100
AcDbSpline
 70
8
 71
3
 72
8
 73
4
 74
0
 40
0
 40
0
 40
0
 40
0
 40
1
 40
1
 40
1
 40
1
 10
8.709307
 20
3.019413
 30
0.0
 10
8.689384
 20
3.030915
 30
0.0
 10
8.677112
 20
3.052172
 30
0.0
 10
8.677112
 20
3.075177
 30
0.0
  0
SPLINE
  5
28a
100
AcDbEntity
  8
cuts
 62
7
100
AcDbSpline
 70
8
 71
3
 72
8
 73
4
 74
0
 40
0
 40
0
 40
0
 40
0
 40
1
 40
1
 40
1
 40
1
 10
8.677112
 20
3.075177
 30
0.0
 10
8.677112
 20
3.098181
 30
0.0
 10
8.689384
 20
3.119438
 30
0.0
 10
8.709307
 20
3.130940
 30
0.0
  0
SPLINE
  5
28b
100
AcDbEntity
  8
cuts
 62
7
100
AcDbSpline
 70
8
 71
3
 72
8
 73
4
 74
0
 40
0
 40
0
 40
0
 40
0
 40
1
 40
1
 40
1
 40
1
 10
8.709307
 20
3.130940
 30
0.0
 10
8.729229
 20
3.142443
 30
0.0
 10
8.753775
 20
3.142443
 30
0.0
 10
8.773697
 20
3.130940
 30
0.0
  0
SPLINE
  5
28c
100
AcDbEntity
  8
cuts
 62
7
100
AcDbSpline
 70
8
 71
3
 72
8
 73
4
 74
0
 40
0
 40
0
 40
0
 40
0
 40
1
 40
1
 40
1
 40
1
 10
8.773697
 20
3.130940
 30
0.0
 10
8.793620
 20
3.119438
 30
0.0
 10
8.805893
 20
3.098181
 30
0.0
 10
8.805893
 20
3.075177
 30
0.0
  0
LWPOLYLINE
  5
28d
100
AcDbEntity
  8
cuts
 62
7
100
AcDbPolyline
 90
1
 70
1
 10
6.843461
 20
4.606190
 30
0.0
  0
SPLINE
  5
28e
100
AcDbEntity
  8
cuts
 62
7
100
AcDbSpline
 70
8
 71
3
 72
8
 73
4
 74
0
 40
0
 40
0
 40
0
 40
0
 40
1
 40
1
 40
1
 40
1
 10
12.131430
 20
4.195947
 30
0.0
 10
12.131430
 20
4.172943
 30
0.0
 10
12.119157
 20
4.151686
 30
0.0
 10
12.099235
 20
4.140184
 30
0.0
  0
SPLINE
  5
28f
100
AcDbEntity
  8
cuts
 62
7
100
AcDbSpline
 70
8
 71
3
 72
8
 73
4
 74
0
 40
0
 40
0
 40
0
 40
0
 40
1
 40
1
 40
1
 40
1
 10
12.099235
 20
4.140184
 30
0.0
 10
12.079312
 20
4.128681
 30
0.0
 10
12.054767
 20
4.128681
 30
0.0
 10
12.034844
 20
4.140184
 30
0.0
  0
SPLINE
  5
290
100
AcDbEntity
  8
cuts
 62
7
100
AcDbSpline
 70
8
 71
3
 72
8
 73
4
 74
0
 40
0
 40
0
 40
0
 40
0
 40
1
 40
1
 40
1
 40
1
 10
12.034844
 20
4.140184
 30
0.0
 10
12.014922
 20
4.151686
 30
0.0
 10
12.002649
 20
4.172943
 30
0.0
 10
12.002649
 20
4.195947
 30
0.0
  0
SPLINE
  5
291
100
AcDbEntity
  8
cuts
 62
7
100
AcDbSpline
 70
8
 71
3
 72
8
 73
4
 74
0
 40
0
 40
0
 40
0
 40
0
 40
1
 40
1
 40
1
 40
1
 10
12.002649
 20
4.195947
 30
0.0
 10
12.002649
 20
4.218952
 30
0.0
 10
12.014922
 20
4.240209
 30
0.0
 10
12.034844
 20
4.251711
 30
0.0
  0
SPLINE
  5
292
100
AcDbEntity
  8
cuts
 62
7
100
AcDbSpline
 70
8
 71
3
 72
8
 73
4
 74
0
 40
0
 40
0
 40
0
 40
0
 40
1
 40
1
 40
1
 40
1
 10
12.034844
 20
4.251711
 30
0.0
 10
12.054767
 20
4.263214
 30
0.0
 10
12.079312
 20
4.263214
 30
0.0
 10
12.099235
 20
4.251711
 30
0.0
  0
SPLINE
  5
293
100
AcDbEntity
  8
cuts
 62
7
100
AcDbSpline
 70
8
 71
3
 72
8
 73
4
 74
0
 40
0
 40
0
 40
0
 40
0
 40
1
 40
1
 40
1
 40
1
 10
12.099235
 20
4.251711
 30
0.0
 10
12.119157
 20
4.240209
 30
0.0
 10
12.131430
 20
4.218952
 30
0.0
 10
12.131430
 20
4.195947
 30
0.0
  0
LWPOLYLINE
  5
294
100
AcDbEntity
  8
cuts
 62
7
100
AcDbPolyline
 90
1
 70
1
 10
8.805893
 20
3.075177
 30
0.0
  0
SPLINE
  5
295
100
AcDbEntity
  8
cuts
 62
7
100
AcDbSpline
 70
8
 71
3
 72
8
 73
4
 74
0
 40
0
 40
0
 40
0
 40
0
 40
1
 40
1
 40
1
 40
1
 10
15.396436
 20
1.306445
 30
0.0
 10
15.396436
 20
1.283440
 30
0.0
 10
15.384163
 20
1.262183
 30
0.0
 10
15.364240
 20
1.250681
 30
0.0
  0
SPLINE
  5
296
100
AcDbEntity
  8
cuts
 62
7
100
AcDbSpline
 70
8
 71
3
 72
8
 73
4
 74
0
 40
0
 40
0
 40
0
 40
0
 40
1
 40
1
 40
1
 40
1
 10
15.364240
 20
1.250681
 30
0.0
 10
15.344318
 20
1.239179
 30
0.0
 10
15.319772
 20
1.239179
 30
0.0
 10
15.299850
 20
1.250681
 30
0.0
  0
SPLINE
  5
297
100
AcDbEntity
  8
cuts
 62
7
100
AcDbSpline
 70
8
 71
3
 72
8
 73
4
 74
0
 40
0
 40
0
 40
0
 40
0
 40
1
 40
1
 40
1
 40
1
 10
15.299850
 20
1.250681
 30
0.0
 10
15.279927
 20
1.262183
 30
0.0
 10
15.267655
 20
1.283440
 30
0.0
 10
15.267655
 20
1.306445
 30
0.0
  0
SPLINE
  5
298
100
AcDbEntity
  8
cuts
 62
7
100
AcDbSpline
 70
8
 71
3
 72
8
 73
4
 74
0
 40
0
 40
0
 40
0
 40
0
 40
1
 40
1
 40
1
 40
1
 10
15.267655
 20
1.306445
 30
0.0
 10
15.267655
 20
1.329449
 30
0.0
 10
15.279927
 20
1.350706
 30
0.0
 10
15.299850
 20
1.362209
 30
0.0
  0
SPLINE
  5
299
100
AcDbEntity
  8
cuts
 62
7
100
AcDbSpline
 70
8
 71
3
 72
8
 73
4
 74
0
 40
0
 40
0
 40
0
 40
0
 40
1
 40
1
 40
1
 40
1
 10
15.299850
 20
1.362209
 30
0.0
 10
15.319772
 20
1.373711
 30
0.0
 10
15.344318
 20
1.373711
 30
0.0
 10
15.364240
 20
1.362209
 30
0.0
  0
SPLINE
  5
29a
100
AcDbEntity
  8
cuts
 62
7
100
AcDbSpline
 70
8
 71
3
 72
8
 73
4
 74
0
 40
0
 40
0
 40
0
 40
0
 40
1
 40
1
 40
1
 40
1
 10
15.364240
 20
1.362209
 30
0.0
 10
15.384163
 20
1.350706
 30
0.0
 10
15.396436
 20
1.329449
 30
0.0
 10
15.396436
 20
1.306445
 30
0.0
  0
LWPOLYLINE
  5
29b
100
AcDbEntity
  8
cuts
 62
7
100
AcDbPolyline
 90
1
 70
1
 10
12.131430
 20
4.195947
 30
0.0
  0
SPLINE
  5
29c
100
AcDbEntity
  8
cuts
 62
7
100
AcDbSpline
 70
8
 71
3
 72
8
 73
4
 74
0
 40
0
 40
0
 40
0
 40
0
 40
1
 40
1
 40
1
 40
1
 10
5.797305
 20
2.114687
 30
0.0
 10
5.797305
 20
2.091682
 30
0.0
 10
5.785032
 20
2.070425
 30
0.0
 10
5.765110
 20
2.058923
 30
0.0
  0
SPLINE
  5
29d
100
AcDbEntity
  8
cuts
 62
7
100
AcDbSpline
 70
8
 71
3
 72
8
 73
4
 74
0
 40
0
 40
0
 40
0
 40
0
 40
1
 40
1
 40
1
 40
1
 10
5.765110
 20
2.058923
 30
0.0
 10
5.745187
 20
2.047421
 30
0.0
 10
5.720642
 20
2.047421
 30
0.0
 10
5.700719
 20
2.058923
 30
0.0
  0
SPLINE
  5
29e
100
AcDbEntity
  8
cuts
 62
7
100
AcDbSpline
 70
8
 71
3
 72
8
 73
4
 74
0
 40
0
 40
0
 40
0
 40
0
 40
1
 40
1
 40
1
 40
1
 10
5.700719
 20
2.058923
 30
0.0
 10
5.680797
 20
2.070425
 30
0.0
 10
5.668524
 20
2.091682
 30
0.0
 10
5.668524
 20
2.114687
 30
0.0
  0
SPLINE
  5
29f
100
AcDbEntity
  8
cuts
 62
7
100
AcDbSpline
 70
8
 71
3
 72
8
 73
4
 74
0
 40
0
 40
0
 40
0
 40
0
 40
1
 40
1
 40
1
 40
1
 10
5.668524
 20
2.114687
 30
0.0
 10
5.668524
 20
2.137691
 30
0.0
 10
5.680797
 20
2.158948
 30
0.0
 10
5.700719
 20
2.170451
 30
0.0
  0
SPLINE
  5
2a0
100
AcDbEntity
  8
cuts
 62
7
100
AcDbSpline
 70
8
 71
3
 72
8
 73
4
 74
0
 40
0
 40
0
 40
0
 40
0
 40
1
 40
1
 40
1
 40
1
 10
5.700719
 20
2.170451
 30
0.0
 10
5.720642
 20
2.181953
 30
0.0
 10
5.745187
 20
2.181953
 30
0.0
 10
5.765110
 20
2.170451
 30
0.0
  0
SPLINE
  5
2a1
100
AcDbEntity
  8
cuts
 62
7
100
AcDbSpline
 70
8
 71
3
 72
8
 73
4
 74
0
 40
0
 40
0
 40
0
 40
0
 40
1
 40
1
 40
1
 40
1
 10
5.765110
 20
2.170451
 30
0.0
 10
5.785032
 20
2.158948
 30
0.0
 10
5.797305
 20
2.137691
 30
0.0
 10
5.797305
 20
2.114687
 30
0.0
  0
LWPOLYLINE
  5
2a2
100
AcDbEntity
  8
cuts
 62
7
100
AcDbPolyline
 90
1
 70
1
 10
15.396436
 20
1.306445
 30
0.0
  0
SPLINE
  5
2a3
100
AcDbEntity
  8
cuts
 62
7
100
AcDbSpline
 70
8
 71
3
 72
8
 73
4
 74
0
 40
0
 40
0
 40
0
 40
0
 40
1
 40
1
 40
1
 40
1
 10
8.529679
 20
0.899666
 30
0.0
 10
8.529679
 20
0.876661
 30
0.0
 10
8.517406
 20
0.855404
 30
0.0
 10
8.497484
 20
0.843902
 30
0.0
  0
SPLINE
  5
2a4
100
AcDbEntity
  8
cuts
 62
7
100
AcDbSpline
 70
8
 71
3
 72
8
 73
4
 74
0
 40
0
 40
0
 40
0
 40
0
 40
1
 40
1
 40
1
 40
1
 10
8.497484
 20
0.843902
 30
0.0
 10
8.477561
 20
0.832400
 30
0.0
 10
8.453016
 20
0.832400
 30
0.0
 10
8.433093
 20
0.843902
 30
0.0
  0
SPLINE
  5
2a5
100
AcDbEntity
  8
cuts
 62
7
100
AcDbSpline
 70
8
 71
3
 72
8
 73
4
 74
0
 40
0
 40
0
 40
0
 40
0
 40
1
 40
1
 40
1
 40
1
 10
8.433093
 20
0.843902
 30
0.0
 10
8.413171
 20
0.855404
 30
0.0
 10
8.400898
 20
0.876661
 30
0.0
 10
8.400898
 20
0.899666
 30
0.0
  0
SPLINE
  5
2a6
100
AcDbEntity
  8
cuts
 62
7
100
AcDbSpline
 70
8
 71
3
 72
8
 73
4
 74
0
 40
0
 40
0
 40
0
 40
0
 40
1
 40
1
 40
1
 40
1
 10
8.400898
 20
0.899666
 30
0.0
 10
8.400898
 20
0.922670
 30
0.0
 10
8.413171
 20
0.943927
 30
0.0
 10
8.433093
 20
0.955430
 30
0.0
  0
SPLINE
  5
2a7
100
AcDbEntity
  8
cuts
 62
7
100
AcDbSpline
 70
8
 71
3
 72
8
 73
4
 74
0
 40
0
 40
0
 40
0
 40
0
 40
1
 40
1
 40
1
 40
1
 10
8.433093
 20
0.955430
 30
0.0
 10
8.453016
 20
0.966932
 30
0.0
 10
8.477561
 20
0.966932
 30
0.0
 10
8.497484
 20
0.955430
 30
0.0
  0
SPLINE
  5
2a8
100
AcDbEntity
  8
cuts
 62
7
100
AcDbSpline
 70
8
 71
3
 72
8
 73
4
 74
0
 40
0
 40
0
 40
0
 40
0
 40
1
 40
1
 40
1
 40
1
 10
8.497484
 20
0.955430
 30
0.0
 10
8.517406
 20
0.943927
 30
0.0
 10
8.529679
 20
0.922670
 30
0.0
 10
8.529679
 20
0.899666
 30
0.0
  0
LWPOLYLINE
  5
2a9
100
AcDbEntity
  8
cuts
 62
7
100
AcDbPolyline
 90
1
 70
1
 10
5.797305
 20
2.114687
 30
0.0
  0
LWPOLYLINE
  5
2aa
100
AcDbEntity
  8
cuts
 62
7
100
AcDbPolyline
 90
1
 70
1
 10
8.529679
 20
0.899666
 30
0.0
  0
ENDSEC
  0
SECTION
  2
OBJECTS
  0
DICTIONARY
  5
C
330
0
100
AcDbDictionary
  3
ACAD_GROUP
350
D
  3
ACAD_MLINESTYLE
350
17
  0
DICTIONARY
  5
D
330
C
100
AcDbDictionary
  0
DICTIONARY
  5
1A
330
C
100
AcDbDictionary
  0
DICTIONARY
  5
17
330
C
100
AcDbDictionary
  3
STANDARD
350
18
  0
DICTIONARY
  5
19
330
C
100
AcDbDictionary
  0
ENDSEC
  0
EOF
