  0
SECTION
  2
HEADER
  9
$ACADVER
  1
AC1009
  9
$FILLMODE
 70
0
  9
$EXTMIN
 10
-0.003000
 20
-0.003000
 30
0.000000
  9
$EXTMAX
 10
10.003000
 20
10.003000
 30
0.000000
  0
ENDSEC
  0
SECTION
  2
TABLES
  0
TABLE
  2
LTYPE
 70
1
  0
LTYPE
  2
CONTINUOUS
 70
64
  3
Solid line
 72
65
 73
0
 40
0
  0
ENDTAB
  0
TABLE
  2
LAYER
 70
255
  0
LAYER
  2
1
 70
64
 62
22
  6
CONTINUOUS
  0
LAYER
  2
16
 70
64
 62
175
  6
CONTINUOUS
  0
LAYER
  2
17
 70
64
 62
82
  6
CONTINUOUS
  0
LAYER
  2
18
 70
64
 62
82
  6
CONTINUOUS
  0
LAYER
  2
19
 70
64
 62
53
  6
CONTINUOUS
  0
LAYER
  2
20
 70
64
 62
253
  6
CONTINUOUS
  0
LAYER
  2
21
 70
64
 62
253
  6
CONTINUOUS
  0
LAYER
  2
22
 70
64
 62
253
  6
CONTINUOUS
  0
LAYER
  2
23
 70
64
 62
53
  6
CONTINUOUS
  0
LAYER
  2
24
 70
64
 62
53
  6
CONTINUOUS
  0
LAYER
  2
25
 70
64
 62
253
  6
CONTINUOUS
  0
LAYER
  2
26
 70
64
 62
253
  6
CONTINUOUS
  0
LAYER
  2
27
 70
64
 62
253
  6
CONTINUOUS
  0
LAYER
  2
28
 70
64
 62
253
  6
CONTINUOUS
  0
LAYER
  2
39
 70
64
 62
22
  6
CONTINUOUS
  0
LAYER
  2
40
 70
64
 62
175
  6
CONTINUOUS
  0
LAYER
  2
41
 70
64
 62
22
  6
CONTINUOUS
  0
LAYER
  2
42
 70
64
 62
175
  6
CONTINUOUS
  0
LAYER
  2
43
 70
64
 62
82
  6
CONTINUOUS
  0
LAYER
  2
48
 70
64
 62
253
  6
CONTINUOUS
  0
LAYER
  2
49
 70
64
 62
6
  6
CONTINUOUS
  0
LAYER
  2
51
 70
64
 62
253
  6
CONTINUOUS
  0
LAYER
  2
52
 70
64
 62
253
  6
CONTINUOUS
  0
ENDTAB
  0
ENDSEC
  0
SECTION
  2
BLOCKS
  0
BLOCK
  8
0
  2
RECT
 70
64
 10
0.000000
 20
0.000000
 30
0.000000
  3
RECT
  0
SOLID
  8
0
 10
-0.500000
 20
-0.500000
 30
0.000000
 11
0.500000
 21
-0.500000
 31
0.000000
 12
-0.500000
 22
0.500000
 32
0.000000
 13
0.500000
 23
0.500000
 33
0.000000
  0
ENDBLK
  8
0
  0
BLOCK
  8
0
  2
PIE
 70
64
 10
0.000000
 20
0.000000
 30
0.000000
  3
PIE
  0
CIRCLE
  8
0
 10
0.000000
 20
0.000000
 30
0.000000
 40
0.500000
  0
ENDBLK
  8
0
  0
BLOCK
  8
0
  2
OCTAGONP
 70
64
 10
0.000000
 20
0.000000
 30
0.000000
  3
OCTAGONP
  0
POLYLINE
  8
0
 66
1
 10
0.000000
 20
0.000000
 30
0.000000
 40
0.000000
 41
0.000000
 70
1
  0
VERTEX
  8
0
 10
-0.500000
 20
-0.207107
 30
0.000000
  0
VERTEX
  8
0
 10
-0.500000
 20
0.207107
 30
0.000000
  0
VERTEX
  8
0
 10
-0.207107
 20
0.500000
 30
0.000000
  0
VERTEX
  8
0
 10
0.207107
 20
0.500000
 30
0.000000
  0
VERTEX
  8
0
 10
0.500000
 20
0.207107
 30
0.000000
  0
VERTEX
  8
0
 10
0.500000
 20
-0.207107
 30
0.000000
  0
VERTEX
  8
0
 10
0.207107
 20
-0.500000
 30
0.000000
  0
VERTEX
  8
0
 10
-0.207107
 20
-0.500000
 30
0.000000
  0
SEQEND
  8
0
  0
ENDBLK
  8
0
  0
BLOCK
  8
0
  2
SQUAREP
 70
64
 10
0.000000
 20
0.000000
 30
0.000000
  3
SQUAREP
  0
SOLID
  8
0
 10
-0.500000
 20
-0.500000
 30
0.000000
 11
0.500000
 21
-0.500000
 31
0.000000
 12
-0.500000
 22
0.500000
 32
0.000000
 13
0.500000
 23
0.500000
 33
0.000000
  0
ENDBLK
  8
0
  0
BLOCK
  8
0
  2
ROUNDP
 70
64
 10
0.000000
 20
0.000000
 30
0.000000
  3
ROUNDP
  0
CIRCLE
  8
0
 10
0.000000
 20
0.000000
 30
0.000000
 40
0.500000
  0
ENDBLK
  8
0
  0
BLOCK
  8
0
  2
ANNULUSP
 70
64
 10
0.000000
 20
0.000000
 30
0.000000
  3
ANNULUSP
  0
CIRCLE
  8
0
 10
0.000000
 20
0.000000
 30
0.000000
 40
0.500000
  0
ENDBLK
  8
0
  0
BLOCK
  8
0
  2
THERMALP
 70
64
 10
0.000000
 20
0.000000
 30
0.000000
  3
THERMALP
  0
LINE
  8
0
 10
-0.237868
 20
0.450000
 30
0.000000
 11
0.237868
 21
0.450000
 31
0.000000
  0
LINE
  8
0
 10
0.450000
 20
0.237868
 30
0.000000
 11
0.450000
 21
-0.237868
 31
0.000000
  0
LINE
  8
0
 10
0.237868
 20
-0.450000
 30
0.000000
 11
-0.237868
 21
-0.450000
 31
0.000000
  0
LINE
  8
0
 10
-0.450000
 20
-0.237868
 30
0.000000
 11
-0.450000
 21
0.237868
 31
0.000000
  0
ENDBLK
  8
0
  0
BLOCK
  8
0
  2
OCTAGONV
 70
64
 10
0.000000
 20
0.000000
 30
0.000000
  3
OCTAGONV
  0
POLYLINE
  8
0
 66
1
 10
0.000000
 20
0.000000
 30
0.000000
 40
0.000000
 41
0.000000
 70
1
  0
VERTEX
  8
0
 10
-0.500000
 20
-0.207107
 30
0.000000
  0
VERTEX
  8
0
 10
-0.500000
 20
0.207107
 30
0.000000
  0
VERTEX
  8
0
 10
-0.207107
 20
0.500000
 30
0.000000
  0
VERTEX
  8
0
 10
0.207107
 20
0.500000
 30
0.000000
  0
VERTEX
  8
0
 10
0.500000
 20
0.207107
 30
0.000000
  0
VERTEX
  8
0
 10
0.500000
 20
-0.207107
 30
0.000000
  0
VERTEX
  8
0
 10
0.207107
 20
-0.500000
 30
0.000000
  0
VERTEX
  8
0
 10
-0.207107
 20
-0.500000
 30
0.000000
  0
SEQEND
  8
0
  0
ENDBLK
  8
0
  0
BLOCK
  8
0
  2
SQUAREV
 70
64
 10
0.000000
 20
0.000000
 30
0.000000
  3
SQUAREV
  0
SOLID
  8
0
 10
-0.500000
 20
-0.500000
 30
0.000000
 11
0.500000
 21
-0.500000
 31
0.000000
 12
-0.500000
 22
0.500000
 32
0.000000
 13
0.500000
 23
0.500000
 33
0.000000
  0
ENDBLK
  8
0
  0
BLOCK
  8
0
  2
ROUNDV
 70
64
 10
0.000000
 20
0.000000
 30
0.000000
  3
ROUNDV
  0
CIRCLE
  8
0
 10
0.000000
 20
0.000000
 30
0.000000
 40
0.500000
  0
ENDBLK
  8
0
  0
BLOCK
  8
0
  2
ANNULUSV
 70
64
 10
0.000000
 20
0.000000
 30
0.000000
  3
ANNULUSV
  0
CIRCLE
  8
0
 10
0.000000
 20
0.000000
 30
0.000000
 40
0.500000
  0
ENDBLK
  8
0
  0
BLOCK
  8
0
  2
THERMALV
 70
64
 10
0.000000
 20
0.000000
 30
0.000000
  3
THERMALV
  0
LINE
  8
0
 10
-0.237868
 20
0.450000
 30
0.000000
 11
0.237868
 21
0.450000
 31
0.000000
  0
LINE
  8
0
 10
0.450000
 20
0.237868
 30
0.000000
 11
0.450000
 21
-0.237868
 31
0.000000
  0
LINE
  8
0
 10
0.237868
 20
-0.450000
 30
0.000000
 11
-0.237868
 21
-0.450000
 31
0.000000
  0
LINE
  8
0
 10
-0.450000
 20
-0.237868
 30
0.000000
 11
-0.450000
 21
0.237868
 31
0.000000
  0
ENDBLK
  8
0
  0
ENDSEC
  0
SECTION
  2
ENTITIES
  0
LINE
  8
49
 10
0.000000
 20
0.000000
 30
0.000000
 11
10.000000
 21
0.000000
 31
0.000000
  0
LINE
  8
49
 10
10.000000
 20
0.000000
 30
0.000000
 11
10.000000
 21
10.000000
 31
0.000000
  0
LINE
  8
49
 10
10.000000
 20
10.000000
 30
0.000000
 11
0.000000
 21
10.000000
 31
0.000000
  0
LINE
  8
49
 10
0.000000
 20
10.000000
 30
0.000000
 11
0.000000
 21
0.000000
 31
0.000000
  0
LINE
  8
20
 10
1.000000
 20
8.704724
 30
0.000000
 11
1.000000
 21
5.295276
 31
0.000000
  0
ARC
  8
20
 10
1.295276
 20
5.295276
 30
0.000000
 40
0.295276
 50
180.000000
 51
270.000000
  0
LINE
  8
20
 10
1.295276
 20
5.000000
 30
0.000000
 11
8.704724
 21
5.000000
 31
0.000000
  0
ARC
  8
20
 10
8.704724
 20
5.295276
 30
0.000000
 40
0.295276
 50
270.000000
 51
0.000000
  0
LINE
  8
20
 10
9.000000
 20
5.295276
 30
0.000000
 11
9.000000
 21
8.704724
 31
0.000000
  0
ARC
  8
20
 10
8.704724
 20
8.704724
 30
0.000000
 40
0.295276
 50
0.000000
 51
90.000000
  0
LINE
  8
20
 10
8.704724
 20
9.000000
 30
0.000000
 11
1.295276
 21
9.000000
 31
0.000000
  0
ARC
  8
20
 10
1.295276
 20
8.704724
 30
0.000000
 40
0.295276
 50
90.000000
 51
180.000000
  0
LINE
  8
49
 10
1.500000
 20
3.500000
 30
0.000000
 11
1.500000
 21
1.500000
 31
0.000000
  0
LINE
  8
49
 10
1.500000
 20
1.500000
 30
0.000000
 11
3.500000
 21
1.500000
 31
0.000000
  0
LINE
  8
49
 10
3.500000
 20
1.500000
 30
0.000000
 11
3.500000
 21
3.500000
 31
0.000000
  0
LINE
  8
49
 10
3.500000
 20
3.500000
 30
0.000000
 11
1.500000
 21
3.500000
 31
0.000000
  0
LINE
  8
49
 10
8.500000
 20
1.500000
 30
0.000000
 11
5.500000
 21
1.500000
 31
0.000000
  0
LINE
  8
49
 10
5.500000
 20
1.500000
 30
0.000000
 11
5.500000
 21
3.500000
 31
0.000000
  0
LINE
  8
49
 10
5.500000
 20
3.500000
 30
0.000000
 11
8.500000
 21
3.500000
 31
0.000000
  0
LINE
  8
49
 10
8.500000
 20
3.500000
 30
0.000000
 11
8.500000
 21
1.500000
 31
0.000000
  0
LINE
  8
20
 10
6.467000
 20
5.762000
 30
0.000000
 11
6.467000
 21
6.038000
 31
0.000000
  0
LINE
  8
20
 10
6.467000
 20
6.038000
 30
0.000000
 11
6.559000
 21
5.884667
 31
0.000000
  0
LINE
  8
20
 10
6.559000
 20
5.884667
 30
0.000000
 11
6.651000
 21
6.038000
 31
0.000000
  0
LINE
  8
20
 10
6.651000
 20
6.038000
 30
0.000000
 11
6.651000
 21
5.762000
 31
0.000000
  0
LINE
  8
20
 10
6.729833
 20
5.838667
 30
0.000000
 11
6.729833
 21
5.961333
 31
0.000000
  0
ARC
  8
20
 10
6.806500
 20
5.961333
 30
0.000000
 40
0.076667
 50
0.000000
 51
180.000000
  0
LINE
  8
20
 10
6.883167
 20
5.961333
 30
0.000000
 11
6.883167
 21
5.838667
 31
0.000000
  0
ARC
  8
20
 10
6.806500
 20
5.838667
 30
0.000000
 40
0.076667
 50
180.000000
 51
0.000000
  0
LINE
  8
20
 10
6.962333
 20
5.762000
 30
0.000000
 11
6.962333
 21
6.038000
 31
0.000000
  0
LINE
  8
20
 10
6.962333
 20
6.038000
 30
0.000000
 11
7.039000
 21
6.038000
 31
0.000000
  0
ARC
  8
20
 10
7.039000
 20
5.961333
 30
0.000000
 40
0.076667
 50
0.000000
 51
90.000000
  0
LINE
  8
20
 10
7.115666
 20
5.961333
 30
0.000000
 11
7.115666
 21
5.838667
 31
0.000000
  0
ARC
  8
20
 10
7.039000
 20
5.838667
 30
0.000000
 40
0.076667
 50
270.000000
 51
0.000000
  0
LINE
  8
20
 10
7.039000
 20
5.762000
 30
0.000000
 11
6.962333
 21
5.762000
 31
0.000000
  0
LINE
  8
20
 10
7.324889
 20
5.762000
 30
0.000000
 11
7.202222
 21
5.762000
 31
0.000000
  0
LINE
  8
20
 10
7.202222
 20
5.762000
 30
0.000000
 11
7.202222
 21
6.038000
 31
0.000000
  0
LINE
  8
20
 10
7.202222
 20
6.038000
 30
0.000000
 11
7.324889
 21
6.038000
 31
0.000000
  0
LINE
  8
20
 10
7.202222
 20
5.915333
 30
0.000000
 11
7.294222
 21
5.915333
 31
0.000000
  0
LINE
  8
20
 10
2.667000
 20
7.978667
 30
0.000000
 11
2.667000
 21
8.101333
 31
0.000000
  0
ARC
  8
20
 10
2.743667
 20
8.101333
 30
0.000000
 40
0.076667
 50
0.000000
 51
180.000000
  0
LINE
  8
20
 10
2.820333
 20
8.101333
 30
0.000000
 11
2.820333
 21
7.978667
 31
0.000000
  0
ARC
  8
20
 10
2.743667
 20
7.978667
 30
0.000000
 40
0.076667
 50
180.000000
 51
0.000000
  0
LINE
  8
20
 10
2.899500
 20
7.902000
 30
0.000000
 11
2.899500
 21
8.178000
 31
0.000000
  0
LINE
  8
20
 10
2.899500
 20
8.178000
 30
0.000000
 11
3.052833
 21
7.902000
 31
0.000000
  0
LINE
  8
20
 10
3.052833
 20
7.902000
 30
0.000000
 11
3.052833
 21
8.178000
 31
0.000000
  0
LINE
  8
20
 10
2.592000
 20
5.888667
 30
0.000000
 11
2.592000
 21
6.011333
 31
0.000000
  0
ARC
  8
20
 10
2.668667
 20
6.011333
 30
0.000000
 40
0.076667
 50
0.000000
 51
180.000000
  0
LINE
  8
20
 10
2.745333
 20
6.011333
 30
0.000000
 11
2.745333
 21
5.888667
 31
0.000000
  0
ARC
  8
20
 10
2.668667
 20
5.888667
 30
0.000000
 40
0.076667
 50
180.000000
 51
0.000000
  0
LINE
  8
20
 10
2.824389
 20
5.812000
 30
0.000000
 11
2.824389
 21
6.088000
 31
0.000000
  0
LINE
  8
20
 10
2.824389
 20
6.088000
 30
0.000000
 11
2.947055
 21
6.088000
 31
0.000000
  0
LINE
  8
20
 10
2.824389
 20
5.965333
 30
0.000000
 11
2.947055
 21
5.965333
 31
0.000000
  0
LINE
  8
20
 10
3.019389
 20
5.812000
 30
0.000000
 11
3.019389
 21
6.088000
 31
0.000000
  0
LINE
  8
20
 10
3.019389
 20
6.088000
 30
0.000000
 11
3.142055
 21
6.088000
 31
0.000000
  0
LINE
  8
20
 10
3.019389
 20
5.965333
 30
0.000000
 11
3.142055
 21
5.965333
 31
0.000000
  0
LINE
  8
49
 10
6.733386
 20
1.980357
 30
0.000000
 11
6.538225
 21
2.175518
 31
0.000000
  0
LINE
  8
49
 10
6.538225
 20
2.175518
 30
0.000000
 11
6.592436
 21
2.229730
 31
0.000000
  0
ARC
  8
49
 10
6.646648
 20
2.175518
 30
0.000000
 40
0.076667
 50
315.000000
 51
135.000000
  0
LINE
  8
49
 10
6.700859
 20
2.121307
 30
0.000000
 11
6.646648
 21
2.067095
 31
0.000000
  0
LINE
  8
49
 10
6.833363
 20
2.188757
 30
0.000000
 11
6.746625
 21
2.275495
 31
0.000000
  0
ARC
  8
49
 10
6.800836
 20
2.329707
 30
0.000000
 40
0.076667
 50
45.000032
 51
224.999968
  0
LINE
  8
49
 10
6.855048
 20
2.383918
 30
0.000000
 11
6.941786
 21
2.297180
 31
0.000000
  0
ARC
  8
49
 10
6.887575
 20
2.242968
 30
0.000000
 40
0.076667
 50
225.000000
 51
45.000000
  0
LINE
  8
49
 10
6.840198
 20
2.477492
 30
0.000000
 11
7.078729
 21
2.325700
 31
0.000000
  0
LINE
  8
49
 10
7.078729
 20
2.325700
 30
0.000000
 11
6.991991
 21
2.499176
 31
0.000000
  0
LINE
  8
49
 10
6.991991
 20
2.499176
 30
0.000000
 11
7.165467
 21
2.412438
 31
0.000000
  0
LINE
  8
49
 10
7.165467
 20
2.412438
 30
0.000000
 11
7.013675
 21
2.650969
 31
0.000000
  0
LINE
  8
49
 10
7.340162
 20
2.587132
 30
0.000000
 11
7.253423
 21
2.500394
 31
0.000000
  0
LINE
  8
49
 10
7.253423
 20
2.500394
 30
0.000000
 11
7.058262
 21
2.695555
 31
0.000000
  0
LINE
  8
49
 10
7.058262
 20
2.695555
 30
0.000000
 11
7.145000
 21
2.782294
 31
0.000000
  0
LINE
  8
49
 10
7.145000
 20
2.608817
 30
0.000000
 11
7.210054
 21
2.673871
 31
0.000000
  0
LINE
  8
49
 10
7.391219
 20
2.638190
 30
0.000000
 11
7.196058
 21
2.833351
 31
0.000000
  0
LINE
  8
49
 10
7.196058
 20
2.833351
 30
0.000000
 11
7.250269
 21
2.887563
 31
0.000000
  0
ARC
  8
49
 10
7.304481
 20
2.833351
 30
0.000000
 40
0.076667
 50
315.000000
 51
135.000000
  0
LINE
  8
49
 10
7.358692
 20
2.779140
 30
0.000000
 11
7.304481
 21
2.724928
 31
0.000000
  0
LINE
  8
49
 10
7.499642
 20
2.746613
 30
0.000000
 11
7.369535
 21
2.789982
 31
0.000000
  0
LINE
  8
49
 10
1.826443
 20
1.898629
 30
0.000000
 11
1.924024
 21
1.801048
 31
0.000000
  0
ARC
  8
49
 10
1.956551
 20
1.833575
 30
0.000000
 40
0.046000
 50
224.999946
 51
315.000054
  0
LINE
  8
49
 10
1.989078
 20
1.801048
 30
0.000000
 11
2.043289
 21
1.855260
 31
0.000000
  0
LINE
  8
49
 10
2.043289
 20
1.855260
 30
0.000000
 11
1.913182
 21
1.985367
 31
0.000000
  0
LINE
  8
49
 10
2.186290
 20
1.998260
 30
0.000000
 11
2.142920
 21
1.954891
 31
0.000000
  0
ARC
  8
49
 10
2.099551
 20
1.998260
 30
0.000000
 40
0.061333
 50
225.000122
 51
315.000041
  0
LINE
  8
49
 10
2.056182
 20
1.954891
 30
0.000000
 11
1.947759
 21
2.063314
 31
0.000000
  0
ARC
  8
49
 10
1.991128
 20
2.106683
 30
0.000000
 40
0.061334
 50
135.000163
 51
225.000000
  0
LINE
  8
49
 10
1.947759
 20
2.150053
 30
0.000000
 11
1.991128
 21
2.193422
 31
0.000000
  0
LINE
  8
49
 10
2.188953
 20
2.087662
 30
0.000000
 11
2.145584
 21
2.131031
 31
0.000000
  0
ARC
  8
49
 10
2.188953
 20
2.174400
 30
0.000000
 40
0.061333
 50
45.000000
 51
225.000000
  0
LINE
  8
49
 10
2.232322
 20
2.217770
 30
0.000000
 11
2.275691
 21
2.174400
 31
0.000000
  0
ARC
  8
49
 10
2.232322
 20
2.131031
 30
0.000000
 40
0.061333
 50
225.000284
 51
44.999878
  0
LINE
  8
49
 10
2.375511
 20
2.187482
 30
0.000000
 11
2.245404
 21
2.317589
 31
0.000000
  0
LINE
  8
49
 10
2.245404
 20
2.317589
 30
0.000000
 11
2.299615
 21
2.371801
 31
0.000000
  0
ARC
  8
49
 10
2.332142
 20
2.339274
 30
0.000000
 40
0.046000
 50
44.999891
 51
135.000109
  0
LINE
  8
49
 10
2.364669
 20
2.371801
 30
0.000000
 11
2.462250
 21
2.274220
 31
0.000000
  0
LINE
  8
49
 10
2.378457
 20
2.450643
 30
0.000000
 11
2.443511
 21
2.515697
 31
0.000000
  0
LINE
  8
49
 10
2.335088
 20
2.537381
 30
0.000000
 11
2.497722
 21
2.374747
 31
0.000000
  0
ARC
  8
49
 10
2.530249
 20
2.407274
 30
0.000000
 40
0.046000
 50
224.999946
 51
315.000054
  0
LINE
  8
49
 10
2.562776
 20
2.374747
 30
0.000000
 11
2.573619
 21
2.385589
 31
0.000000
  0
LINE
  8
49
 10
2.624577
 20
2.436548
 30
0.000000
 11
2.494470
 21
2.566655
 31
0.000000
  0
LINE
  8
49
 10
2.494470
 20
2.566655
 30
0.000000
 11
2.559523
 21
2.631709
 31
0.000000
  0
LINE
  8
49
 10
2.559523
 20
2.631709
 30
0.000000
 11
2.581208
 21
2.610025
 31
0.000000
  0
LINE
  8
49
 10
2.687462
 20
2.586171
 30
0.000000
 11
2.644093
 21
2.629541
 31
0.000000
  0
ARC
  8
49
 10
2.687462
 20
2.672910
 30
0.000000
 40
0.061333
 50
45.000000
 51
225.000000
  0
LINE
  8
49
 10
2.730832
 20
2.716279
 30
0.000000
 11
2.774201
 21
2.672910
 31
0.000000
  0
ARC
  8
49
 10
2.730831
 20
2.629541
 30
0.000000
 40
0.061333
 50
225.000284
 51
44.999878
  0
LINE
  8
49
 10
2.679330
 20
2.881624
 30
0.000000
 11
2.841965
 21
2.718989
 31
0.000000
  0
ARC
  8
49
 10
2.874492
 20
2.751516
 30
0.000000
 40
0.046000
 50
224.999946
 51
315.000054
  0
LINE
  8
49
 10
2.764183
 20
2.966477
 30
0.000000
 11
2.926818
 21
2.803842
 31
0.000000
  0
ARC
  8
49
 10
2.959344
 20
2.836369
 30
0.000000
 40
0.046000
 50
224.999946
 51
315.000054
  0
LINE
  8
49
 10
3.125161
 20
2.937132
 30
0.000000
 11
3.070949
 21
2.882920
 31
0.000000
  0
ARC
  8
49
 10
3.038422
 20
2.915447
 30
0.000000
 40
0.046000
 50
225.000162
 51
315.000054
  0
LINE
  8
49
 10
3.005896
 20
2.882920
 30
0.000000
 11
2.951684
 21
2.937132
 31
0.000000
  0
ARC
  8
49
 10
2.995053
 20
2.980501
 30
0.000000
 40
0.061333
 50
45.000000
 51
225.000000
  0
LINE
  8
49
 10
3.038423
 20
3.023870
 30
0.000000
 11
3.060107
 21
3.002185
 31
0.000000
  0
LINE
  8
49
 10
3.060107
 20
3.002185
 30
0.000000
 11
2.973369
 21
2.915447
 31
0.000000
  0
LINE
  8
49
 10
3.181423
 20
2.993394
 30
0.000000
 11
3.051315
 21
3.123501
 31
0.000000
  0
LINE
  8
49
 10
3.051315
 20
3.123501
 30
0.000000
 11
3.116369
 21
3.188555
 31
0.000000
  0
LINE
  8
49
 10
3.116369
 20
3.188555
 30
0.000000
 11
3.138054
 21
3.166870
 31
0.000000
  0
CIRCLE
  8
20
 10
3.000000
 20
7.000000
 30
0.000000
 40
0.235000
  0
CIRCLE
  8
20
 10
7.000000
 20
7.000000
 30
0.000000
 40
0.550000
  0
CIRCLE
  8
20
 10
1.500000
 20
8.500000
 30
0.000000
 40
0.125000
  0
CIRCLE
  8
20
 10
8.500000
 20
8.500000
 30
0.000000
 40
0.125000
  0
CIRCLE
  8
20
 10
8.500000
 20
5.500000
 30
0.000000
 40
0.125000
  0
CIRCLE
  8
20
 10
1.500000
 20
5.500000
 30
0.000000
 40
0.125000
  0
CIRCLE
  8
20
 10
5.000000
 20
7.000000
 30
0.000000
 40
0.125000
  0
ENDSEC
  0
EOF
